%
M48
M72
T01C0.02400
T02C0.03200
T03C0.03346
T04C0.04000
T05C0.04370
T06C0.12992
T07C0.27165
T08C0.27559
T09C0.49213
%
T01
X60390Y83224
X76138Y98972
X81059Y98972
X84012Y111768
X71217Y110783
X66295Y116689
X70232Y119642
X70232Y132437
X88933Y132437
X102713Y118657
X108618Y136374
X113539Y156059
X107634Y168854
X111571Y178697
X139130Y180665
X139130Y185587
X116492Y219051
X78106Y214130
X63343Y228894
X73185Y194445
X77122Y182634
X83028Y154091
X51531Y123579
X147004Y149169
X190311Y148185
X247398Y197398
X260193Y197398
X280862Y208224
X314327Y217083
X332043Y234799
X332043Y239720
X347791Y269248
X316295Y310587
X299563Y319445
X302516Y275154
X302516Y259406
X207043Y249563
X207043Y229878
X207043Y310587
X182437Y310587
X161768Y337161
X151925Y329287
X142083Y319445
X64327Y321413
X44642Y320429
X64327Y278106
X317280Y137358
X344839Y92083
X367476Y81256
T02
X356650Y80177
X356650Y92177
X114248Y92461
X114248Y104461
T03
X38736Y113461
X38736Y128421
T04
X100744Y66650
X100744Y56650
X100744Y46650
X118461Y46650
X118461Y56650
X118461Y66650
X178343Y136571
X188343Y136571
X198343Y136571
X208343Y136571
X218343Y136571
X228343Y136571
X238343Y136571
X248343Y136571
X275154Y136768
X275154Y126768
X275154Y116768
X275154Y106768
X275154Y96768
X275154Y86768
X268854Y211098
X268854Y221098
X264012Y235390
X254012Y235390
X244012Y235390
X274012Y235390
X174012Y235390
X164012Y235390
X154012Y235390
X144012Y235390
X147594Y219524
X147594Y209524
X139602Y167673
X129602Y167673
X129602Y152713
X139602Y152713
X146020Y302831
X146020Y312831
X160193Y312831
X160193Y302831
T05
X123303Y304091
X123303Y314091
X123303Y324091
X123303Y294091
X123303Y284091
X123303Y274091
X123303Y264091
X123303Y254091
X33303Y254091
X33303Y264091
X33303Y274091
X33303Y284091
X33303Y294091
X33303Y304091
X33303Y314091
X33303Y324091
X291571Y324091
X291571Y314091
X291571Y304091
X291571Y294091
X291571Y284091
X291571Y274091
X291571Y264091
X291571Y254091
X381571Y254091
X381571Y264091
X381571Y274091
X381571Y284091
X381571Y294091
X381571Y304091
X381571Y314091
X381571Y324091
T06
X287909Y58264
X141846Y58421
T07
X166886Y381059
X244445Y379484
T08
X257437Y285783
X217752Y285469
X177909Y285390
T09
X205469Y196020
M30
