G75*
%MOIN*%
%OFA0B0*%
%FSLAX25Y25*%
%IPPOS*%
%LPD*%
%AMOC8*
5,1,8,0,0,1.08239X$1,22.5*
%
%ADD10R,0.08280X0.07099*%
%ADD11R,0.05131X0.04737*%
%ADD12C,0.01421*%
%ADD13C,0.07355*%
%ADD14R,0.07355X0.07355*%
%ADD15R,0.04737X0.05131*%
%ADD16R,0.03950X0.05524*%
%ADD17R,0.05800X0.03300*%
%ADD18C,0.04000*%
%ADD19R,0.01981X0.03753*%
%ADD20R,0.03162X0.03950*%
%ADD21R,0.04087X0.02454*%
%ADD22R,0.02375X0.02965*%
%ADD23R,0.02965X0.02965*%
%ADD24R,0.06312X0.02375*%
%ADD25C,0.04146*%
%ADD26R,0.07800X0.46800*%
%ADD27C,0.36233*%
%ADD28C,0.06800*%
%ADD29R,0.07808X0.06902*%
%ADD30C,0.06800*%
%ADD31R,0.03950X0.06312*%
%ADD32C,0.06600*%
%ADD33R,0.03937X0.06299*%
%ADD34R,0.08674X0.07493*%
%ADD35R,0.21272X0.09068*%
%ADD36C,0.57887*%
%ADD37R,0.10839X0.18123*%
%ADD38R,0.18123X0.10839*%
%ADD39C,0.04800*%
%ADD40OC8,0.17792*%
D10*
X0042083Y0088894D03*
X0055075Y0088894D03*
X0072201Y0089327D03*
X0085193Y0089327D03*
D11*
X0060744Y0116177D03*
X0054051Y0116177D03*
X0066650Y0166256D03*
X0073343Y0166256D03*
X0072673Y0176059D03*
X0065980Y0176059D03*
X0107319Y0163736D03*
X0114012Y0163736D03*
X0115272Y0127870D03*
X0108579Y0127870D03*
X0074563Y0247988D03*
X0067870Y0247988D03*
X0069051Y0325547D03*
X0075744Y0325547D03*
X0313539Y0326728D03*
X0320232Y0326728D03*
X0354878Y0326728D03*
X0361571Y0326728D03*
X0341886Y0217280D03*
X0335193Y0217280D03*
D12*
X0089871Y0177560D02*
X0089871Y0174244D01*
X0086555Y0174244D01*
X0086555Y0177560D01*
X0089871Y0177560D01*
X0089871Y0175664D02*
X0086555Y0175664D01*
X0086555Y0177084D02*
X0089871Y0177084D01*
X0082965Y0177560D02*
X0082965Y0174244D01*
X0079649Y0174244D01*
X0079649Y0177560D01*
X0082965Y0177560D01*
X0082965Y0175664D02*
X0079649Y0175664D01*
X0079649Y0177084D02*
X0082965Y0177084D01*
X0083713Y0167205D02*
X0083713Y0163889D01*
X0080397Y0163889D01*
X0080397Y0167205D01*
X0083713Y0167205D01*
X0083713Y0165309D02*
X0080397Y0165309D01*
X0080397Y0166729D02*
X0083713Y0166729D01*
X0090619Y0167205D02*
X0090619Y0163889D01*
X0087303Y0163889D01*
X0087303Y0167205D01*
X0090619Y0167205D01*
X0090619Y0165309D02*
X0087303Y0165309D01*
X0087303Y0166729D02*
X0090619Y0166729D01*
D13*
X0123303Y0254091D03*
X0123303Y0264091D03*
X0123303Y0274091D03*
X0123303Y0284091D03*
X0123303Y0294091D03*
X0123303Y0304091D03*
X0123303Y0314091D03*
X0033303Y0314091D03*
X0033303Y0304091D03*
X0033303Y0294091D03*
X0033303Y0284091D03*
X0033303Y0274091D03*
X0033303Y0264091D03*
X0033303Y0254091D03*
X0291571Y0254091D03*
X0291571Y0264091D03*
X0291571Y0274091D03*
X0291571Y0284091D03*
X0291571Y0294091D03*
X0291571Y0304091D03*
X0291571Y0314091D03*
X0381571Y0314091D03*
X0381571Y0304091D03*
X0381571Y0294091D03*
X0381571Y0284091D03*
X0381571Y0274091D03*
X0381571Y0264091D03*
X0381571Y0254091D03*
D14*
X0381571Y0324091D03*
X0291571Y0324091D03*
X0123303Y0324091D03*
X0033303Y0324091D03*
D15*
X0047358Y0173933D03*
X0047358Y0167240D03*
D16*
X0053185Y0141453D03*
X0060272Y0141453D03*
D17*
X0101748Y0108461D03*
X0101748Y0098461D03*
X0101748Y0088461D03*
X0126748Y0088461D03*
X0126748Y0098461D03*
X0126748Y0108461D03*
X0344150Y0096177D03*
X0344150Y0086177D03*
X0344150Y0076177D03*
X0369150Y0076177D03*
X0369150Y0086177D03*
X0369150Y0096177D03*
D18*
X0356650Y0092177D03*
X0356650Y0080177D03*
X0114248Y0092461D03*
X0114248Y0104461D03*
D19*
X0079228Y0104031D03*
X0076669Y0104031D03*
X0074110Y0104031D03*
X0071551Y0104031D03*
X0071551Y0127063D03*
X0074110Y0127063D03*
X0076669Y0127063D03*
X0079228Y0127063D03*
D20*
X0060626Y0130980D03*
X0053933Y0130980D03*
D21*
X0069091Y0139386D03*
X0069091Y0144386D03*
X0069091Y0149386D03*
X0069091Y0154386D03*
X0089406Y0154386D03*
X0089406Y0149386D03*
X0089406Y0144386D03*
X0089406Y0139386D03*
D22*
X0108972Y0142516D03*
X0112713Y0142516D03*
X0116453Y0142516D03*
D23*
X0116453Y0151571D03*
X0112713Y0151571D03*
X0108972Y0151571D03*
D24*
X0040705Y0126059D03*
X0040705Y0123500D03*
X0040705Y0120941D03*
X0040705Y0118382D03*
X0040705Y0115823D03*
D25*
X0038736Y0113461D03*
X0038736Y0128421D03*
D26*
X0030075Y0120941D03*
D27*
X0177909Y0285390D03*
X0217752Y0285469D03*
X0257437Y0285783D03*
X0244445Y0379484D03*
X0166886Y0381059D03*
D28*
X0163193Y0312831D02*
X0157193Y0312831D01*
X0149020Y0312831D02*
X0143020Y0312831D01*
X0143020Y0302831D02*
X0149020Y0302831D01*
X0157193Y0302831D02*
X0163193Y0302831D01*
X0164012Y0238390D02*
X0164012Y0232390D01*
X0174012Y0232390D02*
X0174012Y0238390D01*
X0154012Y0238390D02*
X0154012Y0232390D01*
X0144012Y0232390D02*
X0144012Y0238390D01*
X0144594Y0219524D02*
X0150594Y0219524D01*
X0150594Y0209524D02*
X0144594Y0209524D01*
X0139602Y0170673D02*
X0139602Y0164673D01*
X0139602Y0155713D02*
X0139602Y0149713D01*
X0129602Y0149713D02*
X0129602Y0155713D01*
X0129602Y0164673D02*
X0129602Y0170673D01*
X0178343Y0139571D02*
X0178343Y0133571D01*
X0188343Y0133571D02*
X0188343Y0139571D01*
X0198343Y0139571D02*
X0198343Y0133571D01*
X0208343Y0133571D02*
X0208343Y0139571D01*
X0218343Y0139571D02*
X0218343Y0133571D01*
X0228343Y0133571D02*
X0228343Y0139571D01*
X0238343Y0139571D02*
X0238343Y0133571D01*
X0248343Y0133571D02*
X0248343Y0139571D01*
X0272154Y0136768D02*
X0278154Y0136768D01*
X0278154Y0126768D02*
X0272154Y0126768D01*
X0272154Y0116768D02*
X0278154Y0116768D01*
X0278154Y0106768D02*
X0272154Y0106768D01*
X0272154Y0096768D02*
X0278154Y0096768D01*
X0278154Y0086768D02*
X0272154Y0086768D01*
X0271854Y0211098D02*
X0265854Y0211098D01*
X0265854Y0221098D02*
X0271854Y0221098D01*
X0274012Y0232390D02*
X0274012Y0238390D01*
X0264012Y0238390D02*
X0264012Y0232390D01*
X0254012Y0232390D02*
X0254012Y0238390D01*
X0244012Y0238390D02*
X0244012Y0232390D01*
D29*
X0311886Y0278815D03*
X0321886Y0278815D03*
X0353618Y0278028D03*
X0363618Y0278028D03*
X0363618Y0315587D03*
X0353618Y0315587D03*
X0321886Y0316374D03*
X0311886Y0316374D03*
X0077791Y0309681D03*
X0067791Y0309681D03*
X0067791Y0272122D03*
X0077791Y0272122D03*
D30*
X0100744Y0066650D03*
X0100744Y0056650D03*
X0100744Y0046650D03*
X0118461Y0046650D03*
X0118461Y0056650D03*
X0118461Y0066650D03*
D31*
X0077217Y0205055D03*
X0065217Y0205055D03*
X0318760Y0229071D03*
X0330760Y0229071D03*
D32*
X0325860Y0235987D02*
X0323660Y0235987D01*
X0323660Y0244557D01*
X0325860Y0244557D01*
X0325860Y0235987D01*
X0325860Y0242586D02*
X0323660Y0242586D01*
X0072317Y0211971D02*
X0070117Y0211971D01*
X0070117Y0220541D01*
X0072317Y0220541D01*
X0072317Y0211971D01*
X0072317Y0218570D02*
X0070117Y0218570D01*
D33*
X0071217Y0204760D03*
X0324760Y0228776D03*
D34*
X0323579Y0216886D03*
X0305469Y0216886D03*
X0081059Y0235783D03*
X0062949Y0235783D03*
D35*
X0094445Y0219248D03*
X0094445Y0204287D03*
X0347988Y0229091D03*
X0347988Y0244051D03*
D36*
X0205469Y0196020D03*
D37*
X0290213Y0196413D03*
X0315213Y0196413D03*
X0332732Y0196807D03*
X0357732Y0196807D03*
D38*
X0098776Y0232732D03*
X0098776Y0257732D03*
X0044839Y0226236D03*
X0044839Y0201236D03*
D39*
X0060390Y0083224D03*
X0076138Y0098972D03*
X0081059Y0098972D03*
X0084012Y0111768D03*
X0071217Y0110783D03*
X0066295Y0116689D03*
X0070232Y0119642D03*
X0070232Y0132437D03*
X0088933Y0132437D03*
X0102713Y0118657D03*
X0108618Y0136374D03*
X0113539Y0156059D03*
X0107634Y0168854D03*
X0111571Y0178697D03*
X0139130Y0180665D03*
X0139130Y0185587D03*
X0116492Y0219051D03*
X0078106Y0214130D03*
X0063343Y0228894D03*
X0073185Y0194445D03*
X0077122Y0182634D03*
X0083028Y0154091D03*
X0051531Y0123579D03*
X0147004Y0149169D03*
X0190311Y0148185D03*
X0247398Y0197398D03*
X0260193Y0197398D03*
X0280862Y0208224D03*
X0314327Y0217083D03*
X0332043Y0234799D03*
X0332043Y0239720D03*
X0347791Y0269248D03*
X0316295Y0310587D03*
X0299563Y0319445D03*
X0302516Y0275154D03*
X0302516Y0259406D03*
X0207043Y0249563D03*
X0207043Y0229878D03*
X0207043Y0310587D03*
X0182437Y0310587D03*
X0161768Y0337161D03*
X0151925Y0329287D03*
X0142083Y0319445D03*
X0064327Y0321413D03*
X0044642Y0320429D03*
X0064327Y0278106D03*
X0317280Y0137358D03*
X0344839Y0092083D03*
X0367476Y0081256D03*
D40*
X0287909Y0058264D03*
X0141846Y0058421D03*
M02*
