G75*
%MOIN*%
%OFA0B0*%
%FSLAX25Y25*%
%IPPOS*%
%LPD*%
%AMOC8*
5,1,8,0,0,1.08239X$1,22.5*
%
%ADD10C,0.07355*%
%ADD11R,0.07355X0.07355*%
%ADD12C,0.04000*%
%ADD13R,0.29540X0.29540*%
%ADD14C,0.04146*%
%ADD15C,0.36233*%
%ADD16R,0.04737X0.08674*%
%ADD17C,0.06800*%
%ADD18R,0.05600X0.09600*%
%ADD19R,0.14973X0.09461*%
%ADD20R,0.04737X0.05131*%
%ADD21OC8,0.07400*%
%ADD22C,0.06800*%
%ADD23R,0.21272X0.09068*%
%ADD24R,0.01575X0.05512*%
%ADD25R,0.07480X0.09252*%
%ADD26C,0.48044*%
%ADD27C,0.57887*%
%ADD28R,0.08674X0.04737*%
%ADD29R,0.10839X0.18123*%
%ADD30C,0.04800*%
%ADD31OC8,0.17792*%
D10*
X0117824Y0245461D03*
X0127824Y0245461D03*
X0137824Y0245461D03*
X0147824Y0245461D03*
X0157824Y0245461D03*
X0167824Y0245461D03*
X0177824Y0245461D03*
X0177824Y0335461D03*
X0167824Y0335461D03*
X0157824Y0335461D03*
X0147824Y0335461D03*
X0137824Y0335461D03*
X0127824Y0335461D03*
X0117824Y0335461D03*
X0517824Y0335461D03*
X0527824Y0335461D03*
X0537824Y0335461D03*
X0547824Y0335461D03*
X0557824Y0335461D03*
X0567824Y0335461D03*
X0577824Y0335461D03*
X0577824Y0245461D03*
X0567824Y0245461D03*
X0557824Y0245461D03*
X0547824Y0245461D03*
X0537824Y0245461D03*
X0527824Y0245461D03*
X0517824Y0245461D03*
D11*
X0587824Y0245461D03*
X0587824Y0335461D03*
X0187824Y0335461D03*
X0187824Y0245461D03*
D12*
X0127115Y0085438D03*
X0127115Y0073438D03*
D13*
X0061446Y0044280D03*
X0453572Y0045501D03*
X0061446Y0376564D03*
X0453572Y0377784D03*
D14*
X0030343Y0123572D03*
X0030343Y0108611D03*
D15*
X0295186Y0290461D03*
X0367824Y0290461D03*
D16*
X0362824Y0315461D03*
X0377824Y0315461D03*
X0305186Y0315461D03*
X0290186Y0315461D03*
X0327902Y0394005D03*
X0342902Y0394005D03*
D17*
X0180816Y0220942D02*
X0180816Y0214942D01*
X0180816Y0207556D02*
X0180816Y0201556D01*
X0170816Y0201556D02*
X0170816Y0207556D01*
X0170816Y0214942D02*
X0170816Y0220942D01*
X0135146Y0200076D02*
X0135146Y0194076D01*
X0125146Y0194076D02*
X0125146Y0200076D01*
X0109320Y0200076D02*
X0109320Y0194076D01*
X0099320Y0194076D02*
X0099320Y0200076D01*
X0089320Y0200076D02*
X0089320Y0194076D01*
X0079320Y0194076D02*
X0079320Y0200076D01*
X0208217Y0165036D02*
X0208217Y0159036D01*
X0218217Y0159036D02*
X0218217Y0165036D01*
X0218611Y0150076D02*
X0218611Y0144076D01*
X0208611Y0144076D02*
X0208611Y0150076D01*
X0297115Y0133934D02*
X0297115Y0127934D01*
X0307115Y0127934D02*
X0307115Y0133934D01*
X0317115Y0133934D02*
X0317115Y0127934D01*
X0327115Y0127934D02*
X0327115Y0133934D01*
X0337115Y0133934D02*
X0337115Y0127934D01*
X0347115Y0127934D02*
X0347115Y0133934D01*
X0357115Y0133934D02*
X0357115Y0127934D01*
X0367115Y0127934D02*
X0367115Y0133934D01*
X0519477Y0192894D02*
X0519477Y0198894D01*
X0529477Y0198894D02*
X0529477Y0192894D01*
X0539477Y0192894D02*
X0539477Y0198894D01*
X0549477Y0198894D02*
X0549477Y0192894D01*
X0565698Y0193288D02*
X0565698Y0199288D01*
X0575698Y0199288D02*
X0575698Y0193288D01*
X0530784Y0141367D02*
X0524784Y0141367D01*
X0524784Y0131367D02*
X0530784Y0131367D01*
X0530784Y0121367D02*
X0524784Y0121367D01*
X0524784Y0111367D02*
X0530784Y0111367D01*
X0530784Y0101367D02*
X0524784Y0101367D01*
X0524784Y0091367D02*
X0530784Y0091367D01*
D18*
X0270743Y0243143D03*
X0261643Y0243143D03*
X0252543Y0243143D03*
D19*
X0261643Y0267544D03*
D20*
X0280934Y0250816D03*
X0280934Y0244123D03*
X0242745Y0243729D03*
X0242745Y0250422D03*
D21*
X0149320Y0143926D03*
X0139320Y0143926D03*
X0185383Y0084871D03*
X0195383Y0084871D03*
X0290107Y0035265D03*
X0300107Y0035265D03*
X0522391Y0037627D03*
X0532391Y0037627D03*
X0600737Y0063217D03*
X0610737Y0063217D03*
X0607036Y0142745D03*
X0617036Y0142745D03*
D22*
X0184871Y0048414D03*
X0184871Y0038414D03*
X0184871Y0028414D03*
X0156918Y0028808D03*
X0156918Y0038808D03*
X0156918Y0048808D03*
D23*
X0119517Y0286052D03*
X0119517Y0301013D03*
X0548257Y0282115D03*
X0548257Y0267154D03*
D24*
X0349438Y0045698D03*
X0345501Y0045698D03*
X0341564Y0045698D03*
X0337627Y0045698D03*
X0333690Y0045698D03*
X0329753Y0045698D03*
X0325816Y0045698D03*
X0321879Y0045698D03*
D25*
X0312430Y0032902D03*
X0358887Y0032902D03*
D26*
X0332902Y0364005D03*
D27*
X0333296Y0234871D03*
D28*
X0368296Y0239871D03*
X0368296Y0224871D03*
D29*
X0184772Y0273060D03*
X0159772Y0273060D03*
X0159772Y0308887D03*
X0184772Y0308887D03*
X0585363Y0301406D03*
X0610363Y0301406D03*
X0610363Y0269910D03*
X0585363Y0269910D03*
D30*
X0541367Y0259969D03*
X0450816Y0270304D03*
X0364202Y0266859D03*
X0299241Y0264891D03*
X0285954Y0256524D03*
X0282017Y0307213D03*
X0345009Y0316564D03*
X0301702Y0368729D03*
X0356328Y0378080D03*
X0196879Y0267843D03*
X0176209Y0272272D03*
X0160954Y0258493D03*
X0131918Y0239792D03*
X0118139Y0274733D03*
X0133394Y0283099D03*
X0134871Y0294418D03*
X0151111Y0309182D03*
X0169320Y0313119D03*
X0101898Y0285068D03*
X0096485Y0292450D03*
X0089595Y0309182D03*
X0202784Y0250619D03*
X0071879Y0157115D03*
X0083198Y0145796D03*
X0107312Y0154654D03*
X0107804Y0121682D03*
X0084182Y0098060D03*
X0061052Y0079851D03*
X0186544Y0111839D03*
X0220993Y0120206D03*
X0238709Y0102489D03*
X0239202Y0143335D03*
X0331229Y0057213D03*
X0331721Y0051308D03*
X0436544Y0028670D03*
X0078769Y0389398D03*
D31*
X0248414Y0045304D03*
X0394477Y0045146D03*
M02*
