G75*
%MOIN*%
%OFA0B0*%
%FSLAX25Y25*%
%IPPOS*%
%LPD*%
%AMOC8*
5,1,8,0,0,1.08239X$1,22.5*
%
%ADD10R,0.08280X0.07099*%
%ADD11R,0.05131X0.04737*%
%ADD12C,0.01421*%
%ADD13C,0.07355*%
%ADD14R,0.07355X0.07355*%
%ADD15R,0.03950X0.05524*%
%ADD16R,0.04737X0.05131*%
%ADD17R,0.05800X0.03300*%
%ADD18C,0.04000*%
%ADD19R,0.01981X0.03753*%
%ADD20R,0.03162X0.03950*%
%ADD21R,0.04087X0.02454*%
%ADD22R,0.02375X0.02965*%
%ADD23R,0.02965X0.02965*%
%ADD24R,0.06312X0.02375*%
%ADD25C,0.04146*%
%ADD26R,0.07800X0.46800*%
%ADD27C,0.36233*%
%ADD28R,0.44107X0.20485*%
%ADD29R,0.20485X0.20485*%
%ADD30C,0.06800*%
%ADD31R,0.07808X0.06902*%
%ADD32OC8,0.07400*%
%ADD33R,0.05600X0.09600*%
%ADD34R,0.14973X0.09461*%
%ADD35C,0.06800*%
%ADD36R,0.03950X0.06312*%
%ADD37C,0.06600*%
%ADD38R,0.03937X0.06299*%
%ADD39R,0.08674X0.07493*%
%ADD40C,0.48044*%
%ADD41C,0.57887*%
%ADD42R,0.03900X0.04300*%
%ADD43C,0.04800*%
%ADD44OC8,0.17792*%
D10*
X0053375Y0074202D03*
X0066367Y0074202D03*
X0082312Y0073454D03*
X0095304Y0073454D03*
D11*
X0061013Y0091643D03*
X0054320Y0091643D03*
X0100186Y0112784D03*
X0106879Y0112784D03*
X0161839Y0112036D03*
X0168532Y0112036D03*
X0171682Y0142745D03*
X0164989Y0142745D03*
X0113099Y0159674D03*
X0106406Y0159674D03*
X0072430Y0162194D03*
X0065737Y0162194D03*
X0065068Y0171997D03*
X0071761Y0171997D03*
X0134280Y0258493D03*
X0140973Y0258493D03*
X0098847Y0302194D03*
X0092154Y0302194D03*
X0057509Y0284477D03*
X0050816Y0284477D03*
X0209871Y0082509D03*
X0216564Y0082509D03*
X0309477Y0033690D03*
X0316170Y0033690D03*
X0501603Y0038414D03*
X0508296Y0038414D03*
X0579950Y0062824D03*
X0586643Y0062824D03*
X0587036Y0143139D03*
X0593729Y0143139D03*
X0547666Y0281721D03*
X0540973Y0281721D03*
X0514595Y0318335D03*
X0507902Y0318335D03*
D12*
X0088958Y0173497D02*
X0088958Y0170181D01*
X0085642Y0170181D01*
X0085642Y0173497D01*
X0088958Y0173497D01*
X0088958Y0171601D02*
X0085642Y0171601D01*
X0085642Y0173021D02*
X0088958Y0173021D01*
X0082052Y0173497D02*
X0082052Y0170181D01*
X0078736Y0170181D01*
X0078736Y0173497D01*
X0082052Y0173497D01*
X0082052Y0171601D02*
X0078736Y0171601D01*
X0078736Y0173021D02*
X0082052Y0173021D01*
X0082801Y0163143D02*
X0082801Y0159827D01*
X0079485Y0159827D01*
X0079485Y0163143D01*
X0082801Y0163143D01*
X0082801Y0161247D02*
X0079485Y0161247D01*
X0079485Y0162667D02*
X0082801Y0162667D01*
X0089706Y0163143D02*
X0089706Y0159827D01*
X0086390Y0159827D01*
X0086390Y0163143D01*
X0089706Y0163143D01*
X0089706Y0161247D02*
X0086390Y0161247D01*
X0086390Y0162667D02*
X0089706Y0162667D01*
D13*
X0117824Y0245461D03*
X0127824Y0245461D03*
X0137824Y0245461D03*
X0147824Y0245461D03*
X0157824Y0245461D03*
X0167824Y0245461D03*
X0177824Y0245461D03*
X0177824Y0335461D03*
X0167824Y0335461D03*
X0157824Y0335461D03*
X0147824Y0335461D03*
X0137824Y0335461D03*
X0127824Y0335461D03*
X0117824Y0335461D03*
X0517824Y0335461D03*
X0527824Y0335461D03*
X0537824Y0335461D03*
X0547824Y0335461D03*
X0557824Y0335461D03*
X0567824Y0335461D03*
X0577824Y0335461D03*
X0577824Y0245461D03*
X0567824Y0245461D03*
X0557824Y0245461D03*
X0547824Y0245461D03*
X0537824Y0245461D03*
X0527824Y0245461D03*
X0517824Y0245461D03*
D14*
X0587824Y0245461D03*
X0587824Y0335461D03*
X0187824Y0335461D03*
X0187824Y0245461D03*
D15*
X0059359Y0117312D03*
X0052272Y0117312D03*
X0044595Y0086328D03*
X0037509Y0086328D03*
D16*
X0043690Y0139162D03*
X0043690Y0145855D03*
X0038808Y0241367D03*
X0038808Y0248060D03*
X0076209Y0248454D03*
X0076209Y0241761D03*
X0226209Y0120501D03*
X0226209Y0113808D03*
X0265580Y0113808D03*
X0265580Y0120501D03*
D17*
X0139615Y0089438D03*
X0139615Y0079438D03*
X0139615Y0069438D03*
X0114615Y0069438D03*
X0114615Y0079438D03*
X0114615Y0089438D03*
D18*
X0127115Y0085438D03*
X0127115Y0073438D03*
D19*
X0081072Y0094851D03*
X0078513Y0094851D03*
X0075954Y0094851D03*
X0073394Y0094851D03*
X0073394Y0117883D03*
X0075954Y0117883D03*
X0078513Y0117883D03*
X0081072Y0117883D03*
D20*
X0059713Y0126918D03*
X0053020Y0126918D03*
D21*
X0068178Y0135324D03*
X0068178Y0140324D03*
X0068178Y0145324D03*
X0068178Y0150324D03*
X0088493Y0150324D03*
X0088493Y0145324D03*
X0088493Y0140324D03*
X0088493Y0135324D03*
D22*
X0108060Y0138454D03*
X0111800Y0138454D03*
X0115540Y0138454D03*
D23*
X0115540Y0147509D03*
X0111800Y0147509D03*
X0108060Y0147509D03*
D24*
X0032312Y0121209D03*
X0032312Y0118650D03*
X0032312Y0116091D03*
X0032312Y0113532D03*
X0032312Y0110973D03*
D25*
X0030343Y0108611D03*
X0030343Y0123572D03*
D26*
X0021682Y0116091D03*
D27*
X0295186Y0290461D03*
X0367824Y0290461D03*
D28*
X0453375Y0289989D03*
X0453375Y0207706D03*
X0209005Y0206643D03*
X0209280Y0288808D03*
X0209005Y0372430D03*
X0453769Y0373847D03*
D29*
X0399044Y0373847D03*
X0398650Y0289989D03*
X0398650Y0207706D03*
X0263729Y0206643D03*
X0264005Y0288808D03*
X0263729Y0372430D03*
D30*
X0180816Y0220942D02*
X0180816Y0214942D01*
X0180816Y0207556D02*
X0180816Y0201556D01*
X0170816Y0201556D02*
X0170816Y0207556D01*
X0170816Y0214942D02*
X0170816Y0220942D01*
X0135146Y0200076D02*
X0135146Y0194076D01*
X0125146Y0194076D02*
X0125146Y0200076D01*
X0109320Y0200076D02*
X0109320Y0194076D01*
X0099320Y0194076D02*
X0099320Y0200076D01*
X0089320Y0200076D02*
X0089320Y0194076D01*
X0079320Y0194076D02*
X0079320Y0200076D01*
X0208217Y0165036D02*
X0208217Y0159036D01*
X0218217Y0159036D02*
X0218217Y0165036D01*
X0218611Y0150076D02*
X0218611Y0144076D01*
X0208611Y0144076D02*
X0208611Y0150076D01*
X0297115Y0133934D02*
X0297115Y0127934D01*
X0307115Y0127934D02*
X0307115Y0133934D01*
X0317115Y0133934D02*
X0317115Y0127934D01*
X0327115Y0127934D02*
X0327115Y0133934D01*
X0337115Y0133934D02*
X0337115Y0127934D01*
X0347115Y0127934D02*
X0347115Y0133934D01*
X0357115Y0133934D02*
X0357115Y0127934D01*
X0367115Y0127934D02*
X0367115Y0133934D01*
X0519477Y0192894D02*
X0519477Y0198894D01*
X0529477Y0198894D02*
X0529477Y0192894D01*
X0539477Y0192894D02*
X0539477Y0198894D01*
X0549477Y0198894D02*
X0549477Y0192894D01*
X0565698Y0193288D02*
X0565698Y0199288D01*
X0575698Y0199288D02*
X0575698Y0193288D01*
X0530784Y0141367D02*
X0524784Y0141367D01*
X0524784Y0131367D02*
X0530784Y0131367D01*
X0530784Y0121367D02*
X0524784Y0121367D01*
X0524784Y0111367D02*
X0530784Y0111367D01*
X0530784Y0101367D02*
X0524784Y0101367D01*
X0524784Y0091367D02*
X0530784Y0091367D01*
D31*
X0509950Y0266879D03*
X0499950Y0266879D03*
X0499950Y0304438D03*
X0509950Y0304438D03*
X0167824Y0307194D03*
X0157824Y0307194D03*
X0157824Y0269635D03*
X0167824Y0269635D03*
X0060737Y0296013D03*
X0050737Y0296013D03*
X0050737Y0333572D03*
X0060737Y0333572D03*
D32*
X0139320Y0143926D03*
X0149320Y0143926D03*
X0185383Y0084871D03*
X0195383Y0084871D03*
X0290107Y0035265D03*
X0300107Y0035265D03*
X0522391Y0037627D03*
X0532391Y0037627D03*
X0600737Y0063217D03*
X0610737Y0063217D03*
X0607036Y0142745D03*
X0617036Y0142745D03*
D33*
X0255388Y0110072D03*
X0246288Y0110072D03*
X0237188Y0110072D03*
X0066806Y0238419D03*
X0057706Y0238419D03*
X0048606Y0238419D03*
D34*
X0057706Y0262820D03*
X0246288Y0134473D03*
D35*
X0184871Y0048414D03*
X0184871Y0038414D03*
X0184871Y0028414D03*
X0156918Y0028808D03*
X0156918Y0038808D03*
X0156918Y0048808D03*
D36*
X0133784Y0288788D03*
X0121784Y0288788D03*
X0540288Y0294300D03*
X0552288Y0294300D03*
D37*
X0547388Y0301216D02*
X0545188Y0301216D01*
X0545188Y0309786D01*
X0547388Y0309786D01*
X0547388Y0301216D01*
X0547388Y0307815D02*
X0545188Y0307815D01*
X0128884Y0295704D02*
X0126684Y0295704D01*
X0126684Y0304274D01*
X0128884Y0304274D01*
X0128884Y0295704D01*
X0128884Y0302303D02*
X0126684Y0302303D01*
D38*
X0127784Y0288493D03*
X0546288Y0294005D03*
D39*
X0541170Y0267154D03*
X0559280Y0267154D03*
X0108887Y0286839D03*
X0090776Y0286839D03*
D40*
X0332902Y0364005D03*
D41*
X0333296Y0234871D03*
D42*
X0195007Y0121154D03*
X0191207Y0113154D03*
X0198807Y0113154D03*
D43*
X0186544Y0111839D03*
X0220993Y0120206D03*
X0238709Y0102489D03*
X0239202Y0143335D03*
X0107312Y0154654D03*
X0083198Y0145796D03*
X0071879Y0157115D03*
X0107804Y0121682D03*
X0084182Y0098060D03*
X0061052Y0079851D03*
X0131918Y0239792D03*
X0160954Y0258493D03*
X0176209Y0272272D03*
X0196879Y0267843D03*
X0202784Y0250619D03*
X0134871Y0294418D03*
X0133394Y0283099D03*
X0118139Y0274733D03*
X0101898Y0285068D03*
X0096485Y0292450D03*
X0089595Y0309182D03*
X0151111Y0309182D03*
X0169320Y0313119D03*
X0282017Y0307213D03*
X0345009Y0316564D03*
X0364202Y0266859D03*
X0299241Y0264891D03*
X0285954Y0256524D03*
X0450816Y0270304D03*
X0541367Y0259969D03*
X0356328Y0378080D03*
X0301702Y0368729D03*
X0078769Y0389398D03*
X0331229Y0057213D03*
X0331721Y0051308D03*
X0436544Y0028670D03*
D44*
X0394477Y0045146D03*
X0248414Y0045304D03*
M02*
