%
M48
M72
T01C0.02400
T02C0.03200
T03C0.03346
T04C0.04000
T05C0.04370
T06C0.12992
T07C0.27559
T08C0.37402
T09C0.49213
%
T01
X61052Y79851
X84182Y98060
X107804Y121682
X83198Y145796
X71879Y157115
X107312Y154654
X186544Y111839
X220993Y120206
X238709Y102489
X239202Y143335
X331229Y57213
X331721Y51308
X436544Y28670
X131918Y239792
X160954Y258493
X176209Y272272
X196879Y267843
X202784Y250619
X134871Y294418
X133394Y283099
X118139Y274733
X101898Y285068
X96485Y292450
X89595Y309182
X151111Y309182
X169320Y313119
X282017Y307213
X345009Y316564
X364202Y266859
X299241Y264891
X285954Y256524
X450816Y270304
X541367Y259969
X356328Y378080
X301702Y368729
X78769Y389398
T02
X139320Y143926
X149320Y143926
X127115Y85438
X127115Y73438
X185383Y84871
X195383Y84871
X290107Y35265
X300107Y35265
X522391Y37627
X532391Y37627
X600737Y63217
X610737Y63217
X607036Y142745
X617036Y142745
T03
X30343Y123572
X30343Y108611
T04
X156918Y48808
X156918Y38808
X156918Y28808
X184871Y28414
X184871Y38414
X184871Y48414
X297115Y130934
X307115Y130934
X317115Y130934
X327115Y130934
X337115Y130934
X347115Y130934
X357115Y130934
X367115Y130934
X218611Y147076
X208611Y147076
X208217Y162036
X218217Y162036
X180816Y204556
X170816Y204556
X170816Y217942
X180816Y217942
X135146Y197076
X125146Y197076
X109320Y197076
X99320Y197076
X89320Y197076
X79320Y197076
X519477Y195894
X529477Y195894
X539477Y195894
X549477Y195894
X565698Y196288
X575698Y196288
X527784Y141367
X527784Y131367
X527784Y121367
X527784Y111367
X527784Y101367
X527784Y91367
T05
X527824Y245461
X517824Y245461
X537824Y245461
X547824Y245461
X557824Y245461
X567824Y245461
X577824Y245461
X587824Y245461
X587824Y335461
X577824Y335461
X567824Y335461
X557824Y335461
X547824Y335461
X537824Y335461
X527824Y335461
X517824Y335461
X187824Y335461
X177824Y335461
X167824Y335461
X157824Y335461
X147824Y335461
X137824Y335461
X127824Y335461
X117824Y335461
X117824Y245461
X127824Y245461
X137824Y245461
X147824Y245461
X157824Y245461
X167824Y245461
X177824Y245461
X187824Y245461
T06
X248414Y45304
X394477Y45146
T07
X367824Y290461
X295186Y290461
T08
X332902Y364005
T09
X333296Y234871
M30
