G75*
%MOIN*%
%OFA0B0*%
%FSLAX25Y25*%
%IPPOS*%
%LPD*%
%AMOC8*
5,1,8,0,0,1.08239X$1,22.5*
%
%ADD10C,0.06555*%
%ADD11R,0.06555X0.06555*%
%ADD12R,0.28740X0.28740*%
%ADD13C,0.35433*%
%ADD14R,0.03937X0.07874*%
%ADD15C,0.06000*%
%ADD16R,0.04800X0.08800*%
%ADD17R,0.14173X0.08661*%
%ADD18R,0.03937X0.04331*%
%ADD19OC8,0.06600*%
%ADD20C,0.06000*%
%ADD21R,0.20472X0.08268*%
%ADD22R,0.01181X0.05118*%
%ADD23R,0.07087X0.08661*%
%ADD24C,0.47244*%
%ADD25C,0.57087*%
%ADD26R,0.07874X0.03937*%
%ADD27R,0.10039X0.17323*%
%ADD28C,0.01000*%
%ADD29C,0.01600*%
%ADD30C,0.04000*%
%ADD31OC8,0.16992*%
D10*
X0117824Y0245461D03*
X0127824Y0245461D03*
X0137824Y0245461D03*
X0147824Y0245461D03*
X0157824Y0245461D03*
X0167824Y0245461D03*
X0177824Y0245461D03*
X0177824Y0335461D03*
X0167824Y0335461D03*
X0157824Y0335461D03*
X0147824Y0335461D03*
X0137824Y0335461D03*
X0127824Y0335461D03*
X0117824Y0335461D03*
X0517824Y0335461D03*
X0527824Y0335461D03*
X0537824Y0335461D03*
X0547824Y0335461D03*
X0557824Y0335461D03*
X0567824Y0335461D03*
X0577824Y0335461D03*
X0577824Y0245461D03*
X0567824Y0245461D03*
X0557824Y0245461D03*
X0547824Y0245461D03*
X0537824Y0245461D03*
X0527824Y0245461D03*
X0517824Y0245461D03*
D11*
X0587824Y0245461D03*
X0587824Y0335461D03*
X0187824Y0335461D03*
X0187824Y0245461D03*
D12*
X0061446Y0376564D03*
X0453572Y0377784D03*
X0453572Y0045501D03*
X0061446Y0044280D03*
D13*
X0295186Y0290461D03*
X0367824Y0290461D03*
D14*
X0362824Y0315461D03*
X0377824Y0315461D03*
X0305186Y0315461D03*
X0290186Y0315461D03*
X0327902Y0394005D03*
X0342902Y0394005D03*
D15*
X0180816Y0220942D02*
X0180816Y0214942D01*
X0180816Y0207556D02*
X0180816Y0201556D01*
X0170816Y0201556D02*
X0170816Y0207556D01*
X0170816Y0214942D02*
X0170816Y0220942D01*
X0135146Y0200076D02*
X0135146Y0194076D01*
X0125146Y0194076D02*
X0125146Y0200076D01*
X0109320Y0200076D02*
X0109320Y0194076D01*
X0099320Y0194076D02*
X0099320Y0200076D01*
X0089320Y0200076D02*
X0089320Y0194076D01*
X0079320Y0194076D02*
X0079320Y0200076D01*
X0208217Y0165036D02*
X0208217Y0159036D01*
X0218217Y0159036D02*
X0218217Y0165036D01*
X0218611Y0150076D02*
X0218611Y0144076D01*
X0208611Y0144076D02*
X0208611Y0150076D01*
X0297115Y0133934D02*
X0297115Y0127934D01*
X0307115Y0127934D02*
X0307115Y0133934D01*
X0317115Y0133934D02*
X0317115Y0127934D01*
X0327115Y0127934D02*
X0327115Y0133934D01*
X0337115Y0133934D02*
X0337115Y0127934D01*
X0347115Y0127934D02*
X0347115Y0133934D01*
X0357115Y0133934D02*
X0357115Y0127934D01*
X0367115Y0127934D02*
X0367115Y0133934D01*
X0519477Y0192894D02*
X0519477Y0198894D01*
X0529477Y0198894D02*
X0529477Y0192894D01*
X0539477Y0192894D02*
X0539477Y0198894D01*
X0549477Y0198894D02*
X0549477Y0192894D01*
X0565698Y0193288D02*
X0565698Y0199288D01*
X0575698Y0199288D02*
X0575698Y0193288D01*
X0530784Y0141367D02*
X0524784Y0141367D01*
X0524784Y0131367D02*
X0530784Y0131367D01*
X0530784Y0121367D02*
X0524784Y0121367D01*
X0524784Y0111367D02*
X0530784Y0111367D01*
X0530784Y0101367D02*
X0524784Y0101367D01*
X0524784Y0091367D02*
X0530784Y0091367D01*
D16*
X0270743Y0243143D03*
X0261643Y0243143D03*
X0252543Y0243143D03*
D17*
X0261643Y0267544D03*
D18*
X0280934Y0250816D03*
X0280934Y0244123D03*
X0242745Y0243729D03*
X0242745Y0250422D03*
D19*
X0149320Y0143926D03*
X0139320Y0143926D03*
X0185383Y0084871D03*
X0195383Y0084871D03*
X0290107Y0035265D03*
X0300107Y0035265D03*
X0522391Y0037627D03*
X0532391Y0037627D03*
X0600737Y0063217D03*
X0610737Y0063217D03*
X0607036Y0142745D03*
X0617036Y0142745D03*
D20*
X0184871Y0048414D03*
X0184871Y0038414D03*
X0184871Y0028414D03*
X0156918Y0028808D03*
X0156918Y0038808D03*
X0156918Y0048808D03*
D21*
X0119517Y0286052D03*
X0119517Y0301013D03*
X0548257Y0282115D03*
X0548257Y0267154D03*
D22*
X0349438Y0045698D03*
X0345501Y0045698D03*
X0341564Y0045698D03*
X0337627Y0045698D03*
X0333690Y0045698D03*
X0329753Y0045698D03*
X0325816Y0045698D03*
X0321879Y0045698D03*
D23*
X0312430Y0032902D03*
X0358887Y0032902D03*
D24*
X0332902Y0364005D03*
D25*
X0333296Y0234871D03*
D26*
X0368296Y0239871D03*
X0368296Y0224871D03*
D27*
X0184772Y0273060D03*
X0159772Y0273060D03*
X0159772Y0308887D03*
X0184772Y0308887D03*
X0585363Y0301406D03*
X0610363Y0301406D03*
X0610363Y0269910D03*
X0585363Y0269910D03*
D28*
X0585658Y0270304D01*
X0585658Y0301308D01*
X0585363Y0301406D01*
X0585166Y0301800D01*
X0572863Y0314103D01*
X0572863Y0337233D01*
X0575816Y0340186D01*
X0579753Y0340186D01*
X0584182Y0335757D01*
X0587627Y0335757D01*
X0587824Y0335461D01*
X0578276Y0335265D02*
X0577824Y0335461D01*
X0578276Y0335265D02*
X0578276Y0333788D01*
X0610265Y0301800D01*
X0610363Y0301406D01*
X0610757Y0301308D01*
X0610757Y0270304D01*
X0610363Y0269910D01*
X0610265Y0269812D01*
X0610265Y0259477D01*
X0575816Y0225028D01*
X0575324Y0225028D01*
X0575324Y0196485D01*
X0575698Y0196288D01*
X0539477Y0195894D02*
X0539398Y0195993D01*
X0539398Y0233887D01*
X0527824Y0245461D01*
X0522666Y0250127D02*
X0518237Y0245698D01*
X0517824Y0245461D01*
X0512824Y0248158D02*
X0540875Y0276209D01*
X0558591Y0276209D01*
X0560068Y0277686D01*
X0560068Y0323454D01*
X0548257Y0335265D01*
X0547824Y0335461D01*
X0563020Y0340186D02*
X0567450Y0335757D01*
X0567824Y0335461D01*
X0563020Y0340186D02*
X0515776Y0340186D01*
X0447371Y0271780D01*
X0447371Y0138414D01*
X0336150Y0027194D01*
X0291367Y0027194D01*
X0206721Y0111839D01*
X0186544Y0111839D01*
X0156524Y0110363D02*
X0074831Y0192056D01*
X0074831Y0299339D01*
X0106328Y0330835D01*
X0123060Y0330835D01*
X0127489Y0335265D01*
X0127824Y0335461D01*
X0147824Y0335461D02*
X0148158Y0335757D01*
X0152587Y0340186D01*
X0202292Y0340186D01*
X0285954Y0256524D01*
X0285461Y0251111D02*
X0281032Y0251111D01*
X0280934Y0250816D01*
X0280540Y0250619D01*
X0269221Y0250619D01*
X0261839Y0243237D01*
X0261643Y0243143D01*
X0261839Y0243729D01*
X0261839Y0267351D01*
X0261643Y0267544D01*
X0261347Y0267843D01*
X0196879Y0267843D01*
X0185068Y0273257D02*
X0184772Y0273060D01*
X0185068Y0273257D02*
X0185068Y0308690D01*
X0184772Y0308887D01*
X0184576Y0309182D01*
X0178178Y0315580D01*
X0178178Y0335265D01*
X0177824Y0335461D01*
X0176209Y0326898D02*
X0167843Y0335265D01*
X0167824Y0335461D01*
X0158001Y0335265D02*
X0157824Y0335461D01*
X0158001Y0335265D02*
X0172765Y0320501D01*
X0172765Y0243729D01*
X0293335Y0123158D01*
X0338611Y0123158D01*
X0345993Y0130540D01*
X0346977Y0130540D01*
X0347115Y0130934D01*
X0356820Y0130540D02*
X0357115Y0130934D01*
X0356820Y0130540D02*
X0356820Y0052784D01*
X0349930Y0045894D01*
X0349438Y0045698D01*
X0349438Y0044418D01*
X0344024Y0039005D01*
X0303670Y0039005D01*
X0300225Y0035560D01*
X0300107Y0035265D01*
X0325816Y0045698D02*
X0325816Y0046879D01*
X0259379Y0113316D01*
X0242154Y0113316D01*
X0208690Y0146780D01*
X0208611Y0147076D01*
X0208198Y0147272D01*
X0206721Y0148749D01*
X0147666Y0148749D01*
X0099438Y0196977D01*
X0099320Y0197076D01*
X0089595Y0197469D02*
X0089320Y0197076D01*
X0089595Y0197469D02*
X0128719Y0236593D01*
X0195894Y0169418D01*
X0211150Y0169418D01*
X0218040Y0162528D01*
X0218217Y0162036D01*
X0231328Y0162036D01*
X0339595Y0053769D01*
X0339595Y0042450D01*
X0338611Y0041465D01*
X0332706Y0041465D01*
X0329753Y0044418D01*
X0329753Y0045698D01*
X0333690Y0045698D02*
X0333690Y0048847D01*
X0331475Y0051062D01*
X0331721Y0051308D01*
X0331475Y0051062D02*
X0239202Y0143335D01*
X0241170Y0146780D02*
X0219024Y0146780D01*
X0218611Y0147076D01*
X0241170Y0146780D02*
X0330983Y0056967D01*
X0331229Y0057213D01*
X0330983Y0056967D02*
X0337627Y0050324D01*
X0337627Y0045698D01*
X0436544Y0028670D02*
X0453276Y0045402D01*
X0453572Y0045501D01*
X0532391Y0037627D02*
X0532509Y0038020D01*
X0535461Y0040973D01*
X0535461Y0068040D01*
X0605835Y0068040D01*
X0610265Y0063611D01*
X0610737Y0063217D01*
X0535461Y0068040D02*
X0535461Y0093631D01*
X0528080Y0101013D01*
X0527784Y0101367D01*
X0527784Y0121367D02*
X0527587Y0121682D01*
X0512824Y0136446D01*
X0512824Y0248158D01*
X0522666Y0250127D02*
X0549733Y0250127D01*
X0554162Y0245698D01*
X0557607Y0245698D01*
X0557824Y0245461D01*
X0558099Y0245206D01*
X0575324Y0227981D01*
X0575324Y0225028D01*
X0541367Y0259969D02*
X0548257Y0266859D01*
X0548257Y0267154D01*
X0548257Y0282115D02*
X0462627Y0282115D01*
X0450816Y0270304D01*
X0377489Y0299831D02*
X0377489Y0315087D01*
X0377824Y0315461D01*
X0376997Y0315087D01*
X0330737Y0361347D01*
X0332902Y0364005D01*
X0305639Y0336741D01*
X0305639Y0315580D01*
X0305186Y0315461D01*
X0305146Y0315087D01*
X0305146Y0300324D01*
X0295304Y0290481D01*
X0295186Y0290461D01*
X0276111Y0282607D02*
X0276111Y0300816D01*
X0282017Y0306721D01*
X0282017Y0307213D01*
X0289891Y0315087D01*
X0290186Y0315461D01*
X0276111Y0282607D02*
X0287430Y0271288D01*
X0339103Y0271288D01*
X0368139Y0242253D01*
X0368139Y0240284D01*
X0368296Y0239871D01*
X0368139Y0225028D02*
X0368296Y0224871D01*
X0368139Y0225028D02*
X0343532Y0225028D01*
X0333690Y0234871D01*
X0333296Y0234871D01*
X0333198Y0235363D01*
X0324831Y0243729D01*
X0281032Y0243729D01*
X0280934Y0244123D01*
X0280540Y0243729D01*
X0271682Y0243729D01*
X0271190Y0243237D01*
X0270743Y0243143D01*
X0270698Y0242745D01*
X0265284Y0237331D01*
X0249536Y0237331D01*
X0243139Y0243729D01*
X0242745Y0243729D01*
X0243139Y0250127D02*
X0242745Y0250422D01*
X0242646Y0250619D01*
X0202784Y0250619D01*
X0188020Y0245206D02*
X0187824Y0245461D01*
X0188020Y0245206D02*
X0197863Y0235363D01*
X0262331Y0235363D01*
X0366662Y0131032D01*
X0367115Y0130934D01*
X0297115Y0130934D02*
X0296780Y0131032D01*
X0292351Y0131032D01*
X0178178Y0245206D01*
X0177824Y0245461D01*
X0158001Y0245206D02*
X0158001Y0240776D01*
X0180639Y0218139D01*
X0180816Y0217942D01*
X0180639Y0217646D01*
X0180639Y0214202D01*
X0171288Y0204851D01*
X0170816Y0204556D01*
X0170816Y0217942D02*
X0170796Y0218139D01*
X0158493Y0218139D01*
X0132902Y0243729D01*
X0132902Y0247174D01*
X0089595Y0290481D01*
X0089595Y0309182D01*
X0096485Y0294418D02*
X0108788Y0306721D01*
X0130442Y0306721D01*
X0138316Y0298847D01*
X0138316Y0288513D01*
X0133394Y0283591D01*
X0133394Y0283099D01*
X0122568Y0283099D01*
X0119615Y0286052D01*
X0119517Y0286052D01*
X0111741Y0294418D02*
X0111495Y0294664D01*
X0101898Y0285068D01*
X0096485Y0292450D02*
X0096485Y0294418D01*
X0111495Y0294664D02*
X0117646Y0300816D01*
X0119123Y0300816D01*
X0119517Y0301013D01*
X0111741Y0294418D02*
X0134871Y0294418D01*
X0151111Y0309182D02*
X0159477Y0309182D01*
X0159772Y0308887D01*
X0159969Y0308690D01*
X0159969Y0273257D01*
X0159772Y0273060D01*
X0159477Y0274733D01*
X0118139Y0274733D01*
X0117824Y0245461D02*
X0117646Y0245206D01*
X0079753Y0207312D01*
X0079753Y0197469D01*
X0079320Y0197076D01*
X0061544Y0200422D02*
X0107312Y0154654D01*
X0083198Y0145796D02*
X0071879Y0157115D01*
X0107804Y0121682D02*
X0084182Y0098060D01*
X0061052Y0079851D02*
X0061052Y0044418D01*
X0061446Y0044280D01*
X0156524Y0048847D02*
X0156918Y0048808D01*
X0156524Y0048847D02*
X0156524Y0110363D01*
X0194910Y0084772D02*
X0195383Y0084871D01*
X0194910Y0084772D02*
X0194910Y0041957D01*
X0185068Y0032115D01*
X0185068Y0028670D01*
X0184871Y0028414D01*
X0238709Y0102489D02*
X0220993Y0120206D01*
X0061544Y0200422D02*
X0061544Y0376111D01*
X0061446Y0376564D01*
X0062036Y0372666D01*
X0078769Y0389398D01*
X0176209Y0326898D02*
X0176209Y0272272D01*
X0169320Y0266859D02*
X0169320Y0313119D01*
X0169320Y0266859D02*
X0160954Y0258493D01*
X0157824Y0245461D02*
X0158001Y0245206D01*
X0131918Y0239792D02*
X0128719Y0236593D01*
X0243139Y0250127D02*
X0245599Y0250127D01*
X0252489Y0243237D01*
X0252543Y0243143D01*
X0285461Y0251111D02*
X0299241Y0264891D01*
X0348454Y0282607D02*
X0348454Y0300816D01*
X0354605Y0306967D01*
X0345009Y0316564D01*
X0354605Y0306967D02*
X0362725Y0315087D01*
X0362824Y0315461D01*
X0377489Y0299831D02*
X0368139Y0290481D01*
X0367824Y0290461D01*
X0348454Y0282607D02*
X0364202Y0266859D01*
X0332902Y0364005D02*
X0342548Y0373650D01*
X0342548Y0393828D01*
X0342902Y0394005D01*
X0327902Y0394005D02*
X0327784Y0393828D01*
X0326800Y0393828D01*
X0301702Y0368729D01*
X0356328Y0378080D02*
X0453276Y0378080D01*
X0453572Y0377784D01*
D29*
X0037584Y0028737D02*
X0032365Y0031750D01*
X0027749Y0035623D01*
X0023876Y0040239D01*
X0020863Y0045458D01*
X0018802Y0051120D01*
X0017755Y0057055D01*
X0017624Y0060068D01*
X0017624Y0364792D01*
X0017755Y0367805D01*
X0018802Y0373740D01*
X0020863Y0379402D01*
X0023876Y0384621D01*
X0027749Y0389237D01*
X0032365Y0393110D01*
X0037584Y0396123D01*
X0043246Y0398184D01*
X0049181Y0399231D01*
X0052194Y0399362D01*
X0325092Y0399362D01*
X0324334Y0398604D01*
X0324334Y0394331D01*
X0302332Y0372329D01*
X0300985Y0372329D01*
X0299662Y0371781D01*
X0298650Y0370768D01*
X0298102Y0369445D01*
X0298102Y0368013D01*
X0298650Y0366690D01*
X0299662Y0365677D01*
X0300985Y0365129D01*
X0302418Y0365129D01*
X0303741Y0365677D01*
X0304753Y0366690D01*
X0305302Y0368013D01*
X0305302Y0369359D01*
X0309232Y0373289D01*
X0309033Y0372811D01*
X0308416Y0370911D01*
X0307950Y0368968D01*
X0307637Y0366995D01*
X0307480Y0365004D01*
X0307480Y0364805D01*
X0332102Y0364805D01*
X0332102Y0363205D01*
X0307480Y0363205D01*
X0307480Y0363006D01*
X0307637Y0361014D01*
X0307950Y0359041D01*
X0308416Y0357099D01*
X0309033Y0355199D01*
X0309798Y0353353D01*
X0310705Y0351573D01*
X0311748Y0349870D01*
X0312923Y0348254D01*
X0314220Y0346735D01*
X0315633Y0345322D01*
X0317152Y0344025D01*
X0318768Y0342851D01*
X0320471Y0341807D01*
X0322251Y0340900D01*
X0324097Y0340136D01*
X0325996Y0339518D01*
X0327939Y0339052D01*
X0329912Y0338739D01*
X0331904Y0338583D01*
X0332102Y0338583D01*
X0332102Y0363205D01*
X0333702Y0363205D01*
X0333702Y0338583D01*
X0333901Y0338583D01*
X0335893Y0338739D01*
X0337866Y0339052D01*
X0339808Y0339518D01*
X0341708Y0340136D01*
X0343554Y0340900D01*
X0345334Y0341807D01*
X0347037Y0342851D01*
X0348653Y0344025D01*
X0350172Y0345322D01*
X0351585Y0346735D01*
X0352882Y0348254D01*
X0354056Y0349870D01*
X0355100Y0351573D01*
X0356007Y0353353D01*
X0356771Y0355199D01*
X0357389Y0357099D01*
X0357855Y0359041D01*
X0358168Y0361014D01*
X0358324Y0363006D01*
X0358324Y0363205D01*
X0333702Y0363205D01*
X0333702Y0364805D01*
X0332102Y0364805D01*
X0332102Y0389427D01*
X0331904Y0389427D01*
X0331458Y0389392D01*
X0331471Y0389405D01*
X0331471Y0398604D01*
X0330713Y0399362D01*
X0339809Y0399362D01*
X0339493Y0399047D01*
X0339257Y0398637D01*
X0339134Y0398179D01*
X0339134Y0394189D01*
X0342718Y0394189D01*
X0342718Y0393820D01*
X0343087Y0393820D01*
X0343087Y0394189D01*
X0346671Y0394189D01*
X0346671Y0398179D01*
X0346548Y0398637D01*
X0346311Y0399047D01*
X0345996Y0399362D01*
X0603375Y0399362D01*
X0606388Y0399231D01*
X0612322Y0398184D01*
X0617985Y0396123D01*
X0623203Y0393110D01*
X0627820Y0389237D01*
X0631693Y0384621D01*
X0634706Y0379402D01*
X0636767Y0373740D01*
X0637813Y0367805D01*
X0637945Y0364792D01*
X0637945Y0060068D01*
X0637813Y0057055D01*
X0636767Y0051120D01*
X0634706Y0045458D01*
X0631693Y0040239D01*
X0627820Y0035623D01*
X0623203Y0031750D01*
X0617985Y0028737D01*
X0612322Y0026676D01*
X0606388Y0025629D01*
X0603375Y0025498D01*
X0438292Y0025498D01*
X0438583Y0025618D01*
X0439596Y0026631D01*
X0440144Y0027954D01*
X0440144Y0029300D01*
X0440375Y0029531D01*
X0468604Y0029531D01*
X0469542Y0030468D01*
X0469542Y0060534D01*
X0468604Y0061471D01*
X0438539Y0061471D01*
X0437602Y0060534D01*
X0437602Y0032697D01*
X0437174Y0032270D01*
X0435828Y0032270D01*
X0434505Y0031722D01*
X0433492Y0030709D01*
X0432944Y0029386D01*
X0432944Y0027954D01*
X0433492Y0026631D01*
X0434505Y0025618D01*
X0434796Y0025498D01*
X0337424Y0025498D01*
X0448241Y0136314D01*
X0449471Y0137544D01*
X0449471Y0266964D01*
X0450100Y0266704D01*
X0451532Y0266704D01*
X0452855Y0267252D01*
X0453868Y0268265D01*
X0454416Y0269588D01*
X0454416Y0270934D01*
X0463497Y0280015D01*
X0536420Y0280015D01*
X0536420Y0277318D01*
X0537358Y0276381D01*
X0538077Y0276381D01*
X0510724Y0249028D01*
X0510724Y0135576D01*
X0511954Y0134346D01*
X0521606Y0124694D01*
X0520885Y0123973D01*
X0520184Y0122282D01*
X0520184Y0120452D01*
X0520885Y0118761D01*
X0522179Y0117467D01*
X0523869Y0116767D01*
X0531699Y0116767D01*
X0533390Y0117467D01*
X0534684Y0118761D01*
X0535384Y0120452D01*
X0535384Y0122282D01*
X0534684Y0123973D01*
X0533390Y0125267D01*
X0531699Y0125967D01*
X0526272Y0125967D01*
X0525472Y0126767D01*
X0531699Y0126767D01*
X0533390Y0127467D01*
X0534684Y0128761D01*
X0535384Y0130452D01*
X0535384Y0132282D01*
X0534684Y0133973D01*
X0533390Y0135267D01*
X0531699Y0135967D01*
X0523869Y0135967D01*
X0522179Y0135267D01*
X0520885Y0133973D01*
X0520184Y0132282D01*
X0520184Y0132055D01*
X0514924Y0137316D01*
X0514924Y0191376D01*
X0515029Y0191052D01*
X0515372Y0190379D01*
X0515816Y0189767D01*
X0516350Y0189233D01*
X0516961Y0188789D01*
X0517635Y0188446D01*
X0518353Y0188213D01*
X0519099Y0188094D01*
X0519277Y0188094D01*
X0519277Y0195694D01*
X0519677Y0195694D01*
X0519677Y0188094D01*
X0519855Y0188094D01*
X0520601Y0188213D01*
X0521320Y0188446D01*
X0521993Y0188789D01*
X0522604Y0189233D01*
X0523138Y0189767D01*
X0523582Y0190379D01*
X0523925Y0191052D01*
X0524159Y0191770D01*
X0524277Y0192517D01*
X0524277Y0195694D01*
X0519677Y0195694D01*
X0519677Y0196094D01*
X0524277Y0196094D01*
X0524277Y0199272D01*
X0524159Y0200018D01*
X0523925Y0200737D01*
X0523582Y0201410D01*
X0523138Y0202021D01*
X0522604Y0202556D01*
X0521993Y0203000D01*
X0521320Y0203343D01*
X0520601Y0203576D01*
X0519855Y0203694D01*
X0519677Y0203694D01*
X0519677Y0196095D01*
X0519277Y0196095D01*
X0519277Y0203694D01*
X0519099Y0203694D01*
X0518353Y0203576D01*
X0517635Y0203343D01*
X0516961Y0203000D01*
X0516350Y0202556D01*
X0515816Y0202021D01*
X0515372Y0201410D01*
X0515029Y0200737D01*
X0514924Y0200413D01*
X0514924Y0241292D01*
X0515162Y0241119D01*
X0515875Y0240756D01*
X0516635Y0240509D01*
X0517424Y0240384D01*
X0517531Y0240384D01*
X0517531Y0245169D01*
X0518116Y0245169D01*
X0518116Y0240384D01*
X0518223Y0240384D01*
X0519013Y0240509D01*
X0519773Y0240756D01*
X0520485Y0241119D01*
X0521131Y0241588D01*
X0521697Y0242154D01*
X0522166Y0242800D01*
X0522529Y0243512D01*
X0522776Y0244272D01*
X0522901Y0245062D01*
X0522901Y0245169D01*
X0518116Y0245169D01*
X0518116Y0245754D01*
X0522901Y0245754D01*
X0522901Y0245861D01*
X0522776Y0246650D01*
X0522529Y0247411D01*
X0522166Y0248123D01*
X0521697Y0248769D01*
X0521131Y0249334D01*
X0520485Y0249804D01*
X0519773Y0250167D01*
X0519013Y0250414D01*
X0518223Y0250539D01*
X0518174Y0250539D01*
X0536420Y0268785D01*
X0536420Y0262358D01*
X0537358Y0261420D01*
X0538071Y0261420D01*
X0537767Y0260685D01*
X0537767Y0259253D01*
X0538315Y0257930D01*
X0539328Y0256917D01*
X0540651Y0256369D01*
X0542083Y0256369D01*
X0543406Y0256917D01*
X0544419Y0257930D01*
X0544967Y0259253D01*
X0544967Y0260599D01*
X0545788Y0261420D01*
X0559156Y0261420D01*
X0560093Y0262358D01*
X0560093Y0271951D01*
X0559156Y0272888D01*
X0540523Y0272888D01*
X0541745Y0274109D01*
X0559461Y0274109D01*
X0560938Y0275586D01*
X0562168Y0276816D01*
X0562168Y0324323D01*
X0555238Y0331253D01*
X0556853Y0330584D01*
X0558794Y0330584D01*
X0560587Y0331326D01*
X0561959Y0332698D01*
X0562701Y0334491D01*
X0562701Y0336432D01*
X0562016Y0338086D01*
X0562151Y0338086D01*
X0563198Y0337039D01*
X0562946Y0336432D01*
X0562946Y0334491D01*
X0563689Y0332698D01*
X0565061Y0331326D01*
X0566853Y0330584D01*
X0568794Y0330584D01*
X0570587Y0331326D01*
X0570763Y0331503D01*
X0570763Y0313233D01*
X0578743Y0305253D01*
X0578743Y0292082D01*
X0579681Y0291145D01*
X0583558Y0291145D01*
X0583558Y0280172D01*
X0579681Y0280172D01*
X0578743Y0279234D01*
X0578743Y0260586D01*
X0579681Y0259649D01*
X0591045Y0259649D01*
X0591983Y0260586D01*
X0591983Y0279234D01*
X0591045Y0280172D01*
X0587758Y0280172D01*
X0587758Y0291145D01*
X0591045Y0291145D01*
X0591983Y0292082D01*
X0591983Y0310730D01*
X0591045Y0311668D01*
X0579681Y0311668D01*
X0578974Y0310962D01*
X0574963Y0314973D01*
X0574963Y0331264D01*
X0575162Y0331119D01*
X0575875Y0330756D01*
X0576635Y0330509D01*
X0577424Y0330384D01*
X0577531Y0330384D01*
X0577531Y0335169D01*
X0578116Y0335169D01*
X0578116Y0330384D01*
X0578223Y0330384D01*
X0579013Y0330509D01*
X0579773Y0330756D01*
X0580485Y0331119D01*
X0581131Y0331588D01*
X0581697Y0332154D01*
X0582166Y0332800D01*
X0582529Y0333512D01*
X0582757Y0334212D01*
X0582946Y0334023D01*
X0582946Y0331521D01*
X0583883Y0330584D01*
X0591764Y0330584D01*
X0592701Y0331521D01*
X0592701Y0339402D01*
X0591764Y0340339D01*
X0583883Y0340339D01*
X0583226Y0339682D01*
X0581853Y0341056D01*
X0580623Y0342286D01*
X0574946Y0342286D01*
X0571993Y0339333D01*
X0571422Y0338761D01*
X0570587Y0339596D01*
X0568794Y0340339D01*
X0566853Y0340339D01*
X0566135Y0340041D01*
X0563890Y0342286D01*
X0514907Y0342286D01*
X0513676Y0341056D01*
X0445271Y0272650D01*
X0445271Y0139284D01*
X0351828Y0045841D01*
X0351828Y0048494D01*
X0351706Y0048951D01*
X0351469Y0049362D01*
X0351134Y0049697D01*
X0350723Y0049934D01*
X0350265Y0050057D01*
X0349438Y0050057D01*
X0349438Y0045698D01*
X0349438Y0045698D01*
X0349438Y0050057D01*
X0348610Y0050057D01*
X0348152Y0049934D01*
X0347742Y0049697D01*
X0347407Y0049362D01*
X0347349Y0049262D01*
X0346754Y0049857D01*
X0344247Y0049857D01*
X0343532Y0049141D01*
X0342817Y0049857D01*
X0341695Y0049857D01*
X0341695Y0054638D01*
X0233428Y0162906D01*
X0232197Y0164136D01*
X0222817Y0164136D01*
X0222817Y0165951D01*
X0222117Y0167642D01*
X0220823Y0168936D01*
X0219132Y0169636D01*
X0217302Y0169636D01*
X0215612Y0168936D01*
X0215107Y0168431D01*
X0212020Y0171518D01*
X0196764Y0171518D01*
X0171481Y0196801D01*
X0171940Y0196874D01*
X0172658Y0197108D01*
X0173331Y0197451D01*
X0173943Y0197895D01*
X0174477Y0198429D01*
X0174921Y0199040D01*
X0175264Y0199713D01*
X0175498Y0200432D01*
X0175616Y0201178D01*
X0175616Y0204356D01*
X0171016Y0204356D01*
X0171016Y0204756D01*
X0175616Y0204756D01*
X0175616Y0207934D01*
X0175498Y0208680D01*
X0175264Y0209398D01*
X0174921Y0210072D01*
X0174477Y0210683D01*
X0173943Y0211217D01*
X0173742Y0211363D01*
X0174715Y0212336D01*
X0175416Y0214027D01*
X0175416Y0221857D01*
X0174715Y0223547D01*
X0173421Y0224841D01*
X0171731Y0225542D01*
X0169901Y0225542D01*
X0168210Y0224841D01*
X0166916Y0223547D01*
X0166216Y0221857D01*
X0166216Y0220239D01*
X0159363Y0220239D01*
X0138952Y0240649D01*
X0140587Y0241326D01*
X0141959Y0242698D01*
X0142701Y0244491D01*
X0142701Y0246432D01*
X0141959Y0248224D01*
X0140587Y0249596D01*
X0138794Y0250339D01*
X0136853Y0250339D01*
X0135061Y0249596D01*
X0134255Y0248791D01*
X0133772Y0249274D01*
X0101578Y0281468D01*
X0102615Y0281468D01*
X0103938Y0282016D01*
X0104950Y0283028D01*
X0105498Y0284352D01*
X0105498Y0285698D01*
X0107680Y0287880D01*
X0107680Y0281255D01*
X0108618Y0280318D01*
X0130415Y0280318D01*
X0130750Y0280653D01*
X0131355Y0280047D01*
X0132678Y0279499D01*
X0134111Y0279499D01*
X0135434Y0280047D01*
X0136446Y0281060D01*
X0136994Y0282383D01*
X0136994Y0283815D01*
X0136875Y0284103D01*
X0140416Y0287643D01*
X0140416Y0299717D01*
X0139186Y0300947D01*
X0131312Y0308821D01*
X0107918Y0308821D01*
X0106688Y0307591D01*
X0094707Y0295610D01*
X0094446Y0295502D01*
X0093433Y0294489D01*
X0092885Y0293166D01*
X0092885Y0291734D01*
X0093433Y0290410D01*
X0094446Y0289398D01*
X0095769Y0288850D01*
X0097201Y0288850D01*
X0098524Y0289398D01*
X0099537Y0290410D01*
X0100085Y0291734D01*
X0100085Y0293166D01*
X0099537Y0294489D01*
X0099531Y0294495D01*
X0107680Y0302644D01*
X0107680Y0296216D01*
X0108618Y0295279D01*
X0109140Y0295279D01*
X0102529Y0288668D01*
X0101182Y0288668D01*
X0099859Y0288120D01*
X0098846Y0287107D01*
X0098298Y0285784D01*
X0098298Y0284748D01*
X0091695Y0291351D01*
X0091695Y0306191D01*
X0092647Y0307143D01*
X0093195Y0308466D01*
X0093195Y0309898D01*
X0092647Y0311221D01*
X0091635Y0312234D01*
X0090971Y0312509D01*
X0107197Y0328735D01*
X0123930Y0328735D01*
X0126093Y0330899D01*
X0126853Y0330584D01*
X0128794Y0330584D01*
X0130587Y0331326D01*
X0131959Y0332698D01*
X0132701Y0334491D01*
X0132701Y0336432D01*
X0131959Y0338224D01*
X0130587Y0339596D01*
X0128794Y0340339D01*
X0126853Y0340339D01*
X0125061Y0339596D01*
X0123689Y0338224D01*
X0122946Y0336432D01*
X0122946Y0334491D01*
X0123180Y0333926D01*
X0122190Y0332935D01*
X0122057Y0332935D01*
X0122701Y0334491D01*
X0122701Y0336432D01*
X0121959Y0338224D01*
X0120587Y0339596D01*
X0118794Y0340339D01*
X0116853Y0340339D01*
X0115061Y0339596D01*
X0113689Y0338224D01*
X0112946Y0336432D01*
X0112946Y0334491D01*
X0113590Y0332935D01*
X0105458Y0332935D01*
X0104228Y0331705D01*
X0072731Y0300209D01*
X0072731Y0192204D01*
X0063644Y0201292D01*
X0063644Y0360594D01*
X0076478Y0360594D01*
X0077416Y0361531D01*
X0077416Y0385076D01*
X0078138Y0385798D01*
X0079485Y0385798D01*
X0080808Y0386346D01*
X0081820Y0387359D01*
X0082368Y0388682D01*
X0082368Y0390115D01*
X0081820Y0391438D01*
X0080808Y0392450D01*
X0079485Y0392998D01*
X0078052Y0392998D01*
X0076729Y0392450D01*
X0076646Y0392367D01*
X0076478Y0392534D01*
X0046413Y0392534D01*
X0045476Y0391597D01*
X0045476Y0361531D01*
X0046413Y0360594D01*
X0059444Y0360594D01*
X0059444Y0199552D01*
X0103712Y0155284D01*
X0103712Y0153938D01*
X0104260Y0152615D01*
X0105273Y0151602D01*
X0106596Y0151054D01*
X0108028Y0151054D01*
X0109351Y0151602D01*
X0110364Y0152615D01*
X0110639Y0153279D01*
X0154424Y0109493D01*
X0154424Y0052754D01*
X0154312Y0052708D01*
X0153018Y0051414D01*
X0152318Y0049723D01*
X0152318Y0047893D01*
X0153018Y0046202D01*
X0154312Y0044908D01*
X0156003Y0044208D01*
X0157833Y0044208D01*
X0159524Y0044908D01*
X0160818Y0046202D01*
X0161518Y0047893D01*
X0161518Y0049723D01*
X0160818Y0051414D01*
X0159524Y0052708D01*
X0158624Y0053080D01*
X0158624Y0111233D01*
X0080459Y0189399D01*
X0081162Y0189627D01*
X0081835Y0189970D01*
X0082447Y0190414D01*
X0082981Y0190949D01*
X0083425Y0191560D01*
X0083768Y0192233D01*
X0084001Y0192952D01*
X0084120Y0193698D01*
X0084120Y0196876D01*
X0079520Y0196876D01*
X0079520Y0197276D01*
X0079120Y0197276D01*
X0079120Y0204876D01*
X0078942Y0204876D01*
X0078196Y0204757D01*
X0077477Y0204524D01*
X0076931Y0204246D01*
X0076931Y0298470D01*
X0086268Y0307806D01*
X0086543Y0307143D01*
X0087495Y0306191D01*
X0087495Y0289611D01*
X0126793Y0250314D01*
X0125061Y0249596D01*
X0123689Y0248224D01*
X0122946Y0246432D01*
X0122946Y0244491D01*
X0123689Y0242698D01*
X0125061Y0241326D01*
X0126853Y0240584D01*
X0128349Y0240584D01*
X0128318Y0240508D01*
X0128318Y0239162D01*
X0127849Y0238693D01*
X0126619Y0237463D01*
X0092528Y0203372D01*
X0091925Y0203975D01*
X0090235Y0204676D01*
X0088405Y0204676D01*
X0086714Y0203975D01*
X0085420Y0202681D01*
X0084720Y0200991D01*
X0084720Y0193161D01*
X0085420Y0191470D01*
X0086714Y0190176D01*
X0088405Y0189476D01*
X0090235Y0189476D01*
X0091925Y0190176D01*
X0093219Y0191470D01*
X0093920Y0193161D01*
X0093920Y0198824D01*
X0094720Y0199624D01*
X0094720Y0193161D01*
X0095420Y0191470D01*
X0096714Y0190176D01*
X0098405Y0189476D01*
X0100235Y0189476D01*
X0101925Y0190176D01*
X0102597Y0190848D01*
X0145566Y0147879D01*
X0145813Y0147632D01*
X0144220Y0146038D01*
X0144220Y0143926D01*
X0144220Y0141813D01*
X0147207Y0138826D01*
X0149320Y0138826D01*
X0151432Y0138826D01*
X0154420Y0141813D01*
X0154420Y0143926D01*
X0154420Y0146038D01*
X0153809Y0146649D01*
X0204011Y0146649D01*
X0204011Y0143161D01*
X0204711Y0141470D01*
X0206005Y0140176D01*
X0207696Y0139476D01*
X0209526Y0139476D01*
X0211217Y0140176D01*
X0211771Y0140730D01*
X0241284Y0111216D01*
X0258509Y0111216D01*
X0320247Y0049478D01*
X0319688Y0048919D01*
X0319688Y0042476D01*
X0320625Y0041539D01*
X0323132Y0041539D01*
X0323847Y0042254D01*
X0324562Y0041539D01*
X0327069Y0041539D01*
X0327784Y0042254D01*
X0328499Y0041539D01*
X0329662Y0041539D01*
X0330606Y0040595D01*
X0331836Y0039365D01*
X0339481Y0039365D01*
X0340465Y0040350D01*
X0341654Y0041539D01*
X0342817Y0041539D01*
X0343532Y0042254D01*
X0344247Y0041539D01*
X0346754Y0041539D01*
X0347349Y0042134D01*
X0347407Y0042033D01*
X0347714Y0041727D01*
X0335281Y0029294D01*
X0317573Y0029294D01*
X0317573Y0037896D01*
X0316636Y0038833D01*
X0308224Y0038833D01*
X0307287Y0037896D01*
X0307287Y0029294D01*
X0292237Y0029294D01*
X0291166Y0030365D01*
X0292137Y0030365D01*
X0295007Y0033235D01*
X0295007Y0037294D01*
X0292137Y0040165D01*
X0288077Y0040165D01*
X0285207Y0037294D01*
X0285207Y0036323D01*
X0207591Y0113939D01*
X0189535Y0113939D01*
X0188583Y0114891D01*
X0187260Y0115439D01*
X0185828Y0115439D01*
X0184505Y0114891D01*
X0183492Y0113879D01*
X0182944Y0112555D01*
X0182944Y0111123D01*
X0183492Y0109800D01*
X0184505Y0108787D01*
X0185828Y0108239D01*
X0187260Y0108239D01*
X0188583Y0108787D01*
X0189535Y0109739D01*
X0205851Y0109739D01*
X0289267Y0026324D01*
X0290093Y0025498D01*
X0188685Y0025498D01*
X0188976Y0025898D01*
X0189319Y0026572D01*
X0189553Y0027290D01*
X0189671Y0028036D01*
X0189671Y0028214D01*
X0185071Y0028214D01*
X0185071Y0028614D01*
X0189671Y0028614D01*
X0189671Y0028792D01*
X0189553Y0029538D01*
X0189319Y0030257D01*
X0188976Y0030930D01*
X0188532Y0031541D01*
X0187998Y0032075D01*
X0187387Y0032519D01*
X0186713Y0032863D01*
X0185995Y0033096D01*
X0185249Y0033214D01*
X0185071Y0033214D01*
X0185071Y0028614D01*
X0184671Y0028614D01*
X0184671Y0028214D01*
X0180071Y0028214D01*
X0180071Y0028036D01*
X0180189Y0027290D01*
X0180423Y0026572D01*
X0180766Y0025898D01*
X0181057Y0025498D01*
X0160396Y0025498D01*
X0160579Y0025681D01*
X0161023Y0026292D01*
X0161366Y0026965D01*
X0161600Y0027684D01*
X0161718Y0028430D01*
X0161718Y0028608D01*
X0157118Y0028608D01*
X0157118Y0029008D01*
X0156718Y0029008D01*
X0156718Y0033608D01*
X0156540Y0033608D01*
X0155794Y0033490D01*
X0155076Y0033256D01*
X0154402Y0032913D01*
X0153791Y0032469D01*
X0153257Y0031935D01*
X0152813Y0031324D01*
X0152470Y0030650D01*
X0152236Y0029932D01*
X0152118Y0029186D01*
X0152118Y0029008D01*
X0156718Y0029008D01*
X0156718Y0028608D01*
X0152118Y0028608D01*
X0152118Y0028430D01*
X0152236Y0027684D01*
X0152470Y0026965D01*
X0152813Y0026292D01*
X0153257Y0025681D01*
X0153440Y0025498D01*
X0052194Y0025498D01*
X0049181Y0025629D01*
X0043246Y0026676D01*
X0037584Y0028737D01*
X0036013Y0029644D02*
X0045476Y0029644D01*
X0045476Y0029247D02*
X0046413Y0028310D01*
X0076478Y0028310D01*
X0077416Y0029247D01*
X0077416Y0059313D01*
X0076478Y0060250D01*
X0063152Y0060250D01*
X0063152Y0076860D01*
X0064104Y0077812D01*
X0064652Y0079135D01*
X0064652Y0080567D01*
X0064104Y0081890D01*
X0063091Y0082903D01*
X0061768Y0083451D01*
X0060336Y0083451D01*
X0059013Y0082903D01*
X0058000Y0081890D01*
X0057452Y0080567D01*
X0057452Y0079135D01*
X0058000Y0077812D01*
X0058952Y0076860D01*
X0058952Y0060250D01*
X0046413Y0060250D01*
X0045476Y0059313D01*
X0045476Y0029247D01*
X0045476Y0031242D02*
X0033244Y0031242D01*
X0031065Y0032841D02*
X0045476Y0032841D01*
X0045476Y0034439D02*
X0029160Y0034439D01*
X0027401Y0036038D02*
X0045476Y0036038D01*
X0045476Y0037636D02*
X0026060Y0037636D01*
X0024718Y0039235D02*
X0045476Y0039235D01*
X0045476Y0040833D02*
X0023533Y0040833D01*
X0022610Y0042432D02*
X0045476Y0042432D01*
X0045476Y0044030D02*
X0021687Y0044030D01*
X0020800Y0045629D02*
X0045476Y0045629D01*
X0045476Y0047227D02*
X0020219Y0047227D01*
X0019637Y0048826D02*
X0045476Y0048826D01*
X0045476Y0050424D02*
X0019055Y0050424D01*
X0018642Y0052023D02*
X0045476Y0052023D01*
X0045476Y0053621D02*
X0018361Y0053621D01*
X0018079Y0055220D02*
X0045476Y0055220D01*
X0045476Y0056818D02*
X0017797Y0056818D01*
X0017696Y0058417D02*
X0045476Y0058417D01*
X0046178Y0060015D02*
X0017626Y0060015D01*
X0017624Y0061614D02*
X0058952Y0061614D01*
X0058952Y0063212D02*
X0017624Y0063212D01*
X0017624Y0064811D02*
X0058952Y0064811D01*
X0058952Y0066409D02*
X0017624Y0066409D01*
X0017624Y0068008D02*
X0058952Y0068008D01*
X0058952Y0069606D02*
X0017624Y0069606D01*
X0017624Y0071205D02*
X0058952Y0071205D01*
X0058952Y0072803D02*
X0017624Y0072803D01*
X0017624Y0074402D02*
X0058952Y0074402D01*
X0058952Y0076000D02*
X0017624Y0076000D01*
X0017624Y0077599D02*
X0058213Y0077599D01*
X0057452Y0079197D02*
X0017624Y0079197D01*
X0017624Y0080796D02*
X0057547Y0080796D01*
X0058504Y0082394D02*
X0017624Y0082394D01*
X0017624Y0083993D02*
X0120786Y0083993D01*
X0120715Y0084165D02*
X0121689Y0081812D01*
X0123490Y0080012D01*
X0124876Y0079438D01*
X0123490Y0078863D01*
X0121689Y0077063D01*
X0120715Y0074711D01*
X0120715Y0072165D01*
X0121689Y0069812D01*
X0123490Y0068012D01*
X0125842Y0067038D01*
X0128388Y0067038D01*
X0130740Y0068012D01*
X0132541Y0069812D01*
X0133515Y0072165D01*
X0133515Y0074711D01*
X0132541Y0077063D01*
X0130740Y0078863D01*
X0129354Y0079438D01*
X0130740Y0080012D01*
X0132541Y0081812D01*
X0133515Y0084165D01*
X0133515Y0086711D01*
X0132541Y0089063D01*
X0130740Y0090863D01*
X0128388Y0091838D01*
X0125842Y0091838D01*
X0123490Y0090863D01*
X0121689Y0089063D01*
X0120715Y0086711D01*
X0120715Y0084165D01*
X0120715Y0085591D02*
X0017624Y0085591D01*
X0017624Y0087190D02*
X0120913Y0087190D01*
X0121576Y0088788D02*
X0017624Y0088788D01*
X0017624Y0090387D02*
X0123013Y0090387D01*
X0131217Y0090387D02*
X0154424Y0090387D01*
X0154424Y0091985D02*
X0017624Y0091985D01*
X0017624Y0093584D02*
X0154424Y0093584D01*
X0154424Y0095183D02*
X0086396Y0095183D01*
X0086221Y0095008D02*
X0087234Y0096021D01*
X0087782Y0097344D01*
X0087782Y0098690D01*
X0107174Y0118082D01*
X0108520Y0118082D01*
X0109843Y0118630D01*
X0110856Y0119643D01*
X0111404Y0120966D01*
X0111404Y0122398D01*
X0110856Y0123721D01*
X0109843Y0124734D01*
X0108520Y0125282D01*
X0107088Y0125282D01*
X0105765Y0124734D01*
X0104752Y0123721D01*
X0104204Y0122398D01*
X0104204Y0121052D01*
X0084812Y0101660D01*
X0083466Y0101660D01*
X0082143Y0101112D01*
X0081130Y0100099D01*
X0080582Y0098776D01*
X0080582Y0097344D01*
X0081130Y0096021D01*
X0082143Y0095008D01*
X0083466Y0094460D01*
X0084898Y0094460D01*
X0086221Y0095008D01*
X0087549Y0096781D02*
X0154424Y0096781D01*
X0154424Y0098380D02*
X0087782Y0098380D01*
X0089070Y0099978D02*
X0154424Y0099978D01*
X0154424Y0101577D02*
X0090668Y0101577D01*
X0092267Y0103175D02*
X0154424Y0103175D01*
X0154424Y0104774D02*
X0093865Y0104774D01*
X0095464Y0106372D02*
X0154424Y0106372D01*
X0154424Y0107971D02*
X0097062Y0107971D01*
X0098661Y0109569D02*
X0154348Y0109569D01*
X0152750Y0111168D02*
X0100260Y0111168D01*
X0101858Y0112766D02*
X0151151Y0112766D01*
X0149553Y0114365D02*
X0103457Y0114365D01*
X0105055Y0115963D02*
X0147954Y0115963D01*
X0146356Y0117562D02*
X0106654Y0117562D01*
X0110373Y0119160D02*
X0144757Y0119160D01*
X0143159Y0120759D02*
X0111318Y0120759D01*
X0111404Y0122357D02*
X0141560Y0122357D01*
X0139962Y0123956D02*
X0110621Y0123956D01*
X0104987Y0123956D02*
X0036817Y0123956D01*
X0036817Y0124859D02*
X0035831Y0127238D01*
X0034010Y0129059D01*
X0031631Y0130045D01*
X0029056Y0130045D01*
X0026677Y0129059D01*
X0024856Y0127238D01*
X0023870Y0124859D01*
X0023870Y0122284D01*
X0024856Y0119905D01*
X0026677Y0118084D01*
X0029056Y0117098D01*
X0031631Y0117098D01*
X0034010Y0118084D01*
X0035831Y0119905D01*
X0036817Y0122284D01*
X0036817Y0124859D01*
X0036529Y0125554D02*
X0138363Y0125554D01*
X0136765Y0127153D02*
X0035867Y0127153D01*
X0034318Y0128751D02*
X0135166Y0128751D01*
X0133568Y0130350D02*
X0017624Y0130350D01*
X0017624Y0131948D02*
X0131969Y0131948D01*
X0130371Y0133547D02*
X0017624Y0133547D01*
X0017624Y0135145D02*
X0128772Y0135145D01*
X0127174Y0136744D02*
X0017624Y0136744D01*
X0017624Y0138342D02*
X0125575Y0138342D01*
X0123977Y0139941D02*
X0017624Y0139941D01*
X0017624Y0141539D02*
X0122378Y0141539D01*
X0120780Y0143138D02*
X0085631Y0143138D01*
X0085237Y0142744D02*
X0086250Y0143757D01*
X0086798Y0145080D01*
X0086798Y0146512D01*
X0086250Y0147835D01*
X0085237Y0148848D01*
X0083914Y0149396D01*
X0082567Y0149396D01*
X0075479Y0156485D01*
X0075479Y0157831D01*
X0074931Y0159154D01*
X0073918Y0160167D01*
X0072595Y0160715D01*
X0071163Y0160715D01*
X0069839Y0160167D01*
X0068827Y0159154D01*
X0068279Y0157831D01*
X0068279Y0156399D01*
X0068827Y0155076D01*
X0069839Y0154063D01*
X0071163Y0153515D01*
X0072509Y0153515D01*
X0079598Y0146426D01*
X0079598Y0145080D01*
X0080146Y0143757D01*
X0081158Y0142744D01*
X0082482Y0142196D01*
X0083914Y0142196D01*
X0085237Y0142744D01*
X0086655Y0144736D02*
X0119181Y0144736D01*
X0117583Y0146335D02*
X0086798Y0146335D01*
X0086151Y0147933D02*
X0115984Y0147933D01*
X0114386Y0149532D02*
X0082432Y0149532D01*
X0080833Y0151130D02*
X0106412Y0151130D01*
X0108212Y0151130D02*
X0112787Y0151130D01*
X0111189Y0152729D02*
X0110411Y0152729D01*
X0113931Y0155926D02*
X0137519Y0155926D01*
X0135921Y0157524D02*
X0112333Y0157524D01*
X0110734Y0159123D02*
X0134322Y0159123D01*
X0132724Y0160721D02*
X0109136Y0160721D01*
X0107537Y0162320D02*
X0131125Y0162320D01*
X0129527Y0163919D02*
X0105939Y0163919D01*
X0104340Y0165517D02*
X0127928Y0165517D01*
X0126330Y0167116D02*
X0102742Y0167116D01*
X0101143Y0168714D02*
X0124731Y0168714D01*
X0123133Y0170313D02*
X0099545Y0170313D01*
X0097946Y0171911D02*
X0121534Y0171911D01*
X0119936Y0173510D02*
X0096348Y0173510D01*
X0094749Y0175108D02*
X0118337Y0175108D01*
X0116739Y0176707D02*
X0093151Y0176707D01*
X0091552Y0178305D02*
X0115140Y0178305D01*
X0113541Y0179904D02*
X0089954Y0179904D01*
X0088355Y0181502D02*
X0111943Y0181502D01*
X0110344Y0183101D02*
X0086757Y0183101D01*
X0085158Y0184699D02*
X0108746Y0184699D01*
X0107147Y0186298D02*
X0083560Y0186298D01*
X0081961Y0187896D02*
X0105549Y0187896D01*
X0103950Y0189495D02*
X0100281Y0189495D01*
X0098359Y0189495D02*
X0090281Y0189495D01*
X0088359Y0189495D02*
X0080754Y0189495D01*
X0083086Y0191093D02*
X0085797Y0191093D01*
X0084914Y0192692D02*
X0083917Y0192692D01*
X0084120Y0194290D02*
X0084720Y0194290D01*
X0084720Y0195889D02*
X0084120Y0195889D01*
X0084120Y0197276D02*
X0084120Y0200453D01*
X0084001Y0201200D01*
X0083768Y0201918D01*
X0083425Y0202591D01*
X0082981Y0203203D01*
X0082447Y0203737D01*
X0081835Y0204181D01*
X0081162Y0204524D01*
X0080444Y0204757D01*
X0079697Y0204876D01*
X0079520Y0204876D01*
X0079520Y0197276D01*
X0084120Y0197276D01*
X0084120Y0197487D02*
X0084720Y0197487D01*
X0084720Y0199086D02*
X0084120Y0199086D01*
X0084083Y0200684D02*
X0084720Y0200684D01*
X0085255Y0202283D02*
X0083582Y0202283D01*
X0082248Y0203881D02*
X0086620Y0203881D01*
X0092019Y0203881D02*
X0093037Y0203881D01*
X0094636Y0205480D02*
X0076931Y0205480D01*
X0076931Y0207078D02*
X0096234Y0207078D01*
X0097833Y0208677D02*
X0076931Y0208677D01*
X0076931Y0210275D02*
X0099431Y0210275D01*
X0101030Y0211874D02*
X0076931Y0211874D01*
X0076931Y0213472D02*
X0102629Y0213472D01*
X0104227Y0215071D02*
X0076931Y0215071D01*
X0076931Y0216669D02*
X0105826Y0216669D01*
X0107424Y0218268D02*
X0076931Y0218268D01*
X0076931Y0219866D02*
X0109023Y0219866D01*
X0110621Y0221465D02*
X0076931Y0221465D01*
X0076931Y0223063D02*
X0112220Y0223063D01*
X0113818Y0224662D02*
X0076931Y0224662D01*
X0076931Y0226260D02*
X0115417Y0226260D01*
X0117015Y0227859D02*
X0076931Y0227859D01*
X0076931Y0229457D02*
X0118614Y0229457D01*
X0120212Y0231056D02*
X0076931Y0231056D01*
X0076931Y0232654D02*
X0121811Y0232654D01*
X0123409Y0234253D02*
X0076931Y0234253D01*
X0076931Y0235852D02*
X0125008Y0235852D01*
X0126606Y0237450D02*
X0076931Y0237450D01*
X0076931Y0239049D02*
X0128205Y0239049D01*
X0127849Y0238693D02*
X0127849Y0238693D01*
X0126619Y0237463D02*
X0126619Y0237463D01*
X0126701Y0240647D02*
X0119438Y0240647D01*
X0119773Y0240756D02*
X0120485Y0241119D01*
X0121131Y0241588D01*
X0121697Y0242154D01*
X0122166Y0242800D01*
X0122529Y0243512D01*
X0122776Y0244272D01*
X0122901Y0245062D01*
X0122901Y0245169D01*
X0118116Y0245169D01*
X0118116Y0240384D01*
X0118223Y0240384D01*
X0119013Y0240509D01*
X0119773Y0240756D01*
X0118116Y0240647D02*
X0117531Y0240647D01*
X0117531Y0240384D02*
X0117531Y0245169D01*
X0112746Y0245169D01*
X0112746Y0245062D01*
X0112871Y0244272D01*
X0113118Y0243512D01*
X0113481Y0242800D01*
X0113951Y0242154D01*
X0114516Y0241588D01*
X0115162Y0241119D01*
X0115875Y0240756D01*
X0116635Y0240509D01*
X0117424Y0240384D01*
X0117531Y0240384D01*
X0116209Y0240647D02*
X0076931Y0240647D01*
X0076931Y0242246D02*
X0113884Y0242246D01*
X0113010Y0243844D02*
X0076931Y0243844D01*
X0076931Y0245443D02*
X0117531Y0245443D01*
X0117531Y0245169D02*
X0117531Y0245754D01*
X0112746Y0245754D01*
X0112746Y0245861D01*
X0112871Y0246650D01*
X0113118Y0247411D01*
X0113481Y0248123D01*
X0113951Y0248769D01*
X0114516Y0249334D01*
X0115162Y0249804D01*
X0115875Y0250167D01*
X0116635Y0250414D01*
X0117424Y0250539D01*
X0117531Y0250539D01*
X0117531Y0245754D01*
X0118116Y0245754D01*
X0118116Y0250539D01*
X0118223Y0250539D01*
X0119013Y0250414D01*
X0119773Y0250167D01*
X0120485Y0249804D01*
X0121131Y0249334D01*
X0121697Y0248769D01*
X0122166Y0248123D01*
X0122529Y0247411D01*
X0122776Y0246650D01*
X0122901Y0245861D01*
X0122901Y0245754D01*
X0118116Y0245754D01*
X0118116Y0245169D01*
X0117531Y0245169D01*
X0118116Y0245443D02*
X0122946Y0245443D01*
X0123199Y0247041D02*
X0122649Y0247041D01*
X0121791Y0248640D02*
X0124104Y0248640D01*
X0126610Y0250238D02*
X0119554Y0250238D01*
X0118116Y0250238D02*
X0117531Y0250238D01*
X0116093Y0250238D02*
X0076931Y0250238D01*
X0076931Y0248640D02*
X0113857Y0248640D01*
X0112998Y0247041D02*
X0076931Y0247041D01*
X0072731Y0247041D02*
X0063644Y0247041D01*
X0063644Y0245443D02*
X0072731Y0245443D01*
X0072731Y0243844D02*
X0063644Y0243844D01*
X0063644Y0242246D02*
X0072731Y0242246D01*
X0072731Y0240647D02*
X0063644Y0240647D01*
X0063644Y0239049D02*
X0072731Y0239049D01*
X0072731Y0237450D02*
X0063644Y0237450D01*
X0063644Y0235852D02*
X0072731Y0235852D01*
X0072731Y0234253D02*
X0063644Y0234253D01*
X0063644Y0232654D02*
X0072731Y0232654D01*
X0072731Y0231056D02*
X0063644Y0231056D01*
X0063644Y0229457D02*
X0072731Y0229457D01*
X0072731Y0227859D02*
X0063644Y0227859D01*
X0063644Y0226260D02*
X0072731Y0226260D01*
X0072731Y0224662D02*
X0063644Y0224662D01*
X0063644Y0223063D02*
X0072731Y0223063D01*
X0072731Y0221465D02*
X0063644Y0221465D01*
X0063644Y0219866D02*
X0072731Y0219866D01*
X0072731Y0218268D02*
X0063644Y0218268D01*
X0063644Y0216669D02*
X0072731Y0216669D01*
X0072731Y0215071D02*
X0063644Y0215071D01*
X0063644Y0213472D02*
X0072731Y0213472D01*
X0072731Y0211874D02*
X0063644Y0211874D01*
X0063644Y0210275D02*
X0072731Y0210275D01*
X0072731Y0208677D02*
X0063644Y0208677D01*
X0063644Y0207078D02*
X0072731Y0207078D01*
X0072731Y0205480D02*
X0063644Y0205480D01*
X0063644Y0203881D02*
X0072731Y0203881D01*
X0072731Y0202283D02*
X0063644Y0202283D01*
X0064252Y0200684D02*
X0072731Y0200684D01*
X0072731Y0199086D02*
X0065850Y0199086D01*
X0067449Y0197487D02*
X0072731Y0197487D01*
X0072731Y0195889D02*
X0069047Y0195889D01*
X0070646Y0194290D02*
X0072731Y0194290D01*
X0072731Y0192692D02*
X0072244Y0192692D01*
X0069502Y0189495D02*
X0017624Y0189495D01*
X0017624Y0191093D02*
X0067903Y0191093D01*
X0066305Y0192692D02*
X0017624Y0192692D01*
X0017624Y0194290D02*
X0064706Y0194290D01*
X0063108Y0195889D02*
X0017624Y0195889D01*
X0017624Y0197487D02*
X0061509Y0197487D01*
X0059911Y0199086D02*
X0017624Y0199086D01*
X0017624Y0200684D02*
X0059444Y0200684D01*
X0059444Y0202283D02*
X0017624Y0202283D01*
X0017624Y0203881D02*
X0059444Y0203881D01*
X0059444Y0205480D02*
X0017624Y0205480D01*
X0017624Y0207078D02*
X0059444Y0207078D01*
X0059444Y0208677D02*
X0017624Y0208677D01*
X0017624Y0210275D02*
X0059444Y0210275D01*
X0059444Y0211874D02*
X0017624Y0211874D01*
X0017624Y0213472D02*
X0059444Y0213472D01*
X0059444Y0215071D02*
X0017624Y0215071D01*
X0017624Y0216669D02*
X0059444Y0216669D01*
X0059444Y0218268D02*
X0017624Y0218268D01*
X0017624Y0219866D02*
X0059444Y0219866D01*
X0059444Y0221465D02*
X0017624Y0221465D01*
X0017624Y0223063D02*
X0059444Y0223063D01*
X0059444Y0224662D02*
X0017624Y0224662D01*
X0017624Y0226260D02*
X0059444Y0226260D01*
X0059444Y0227859D02*
X0017624Y0227859D01*
X0017624Y0229457D02*
X0059444Y0229457D01*
X0059444Y0231056D02*
X0017624Y0231056D01*
X0017624Y0232654D02*
X0059444Y0232654D01*
X0059444Y0234253D02*
X0017624Y0234253D01*
X0017624Y0235852D02*
X0059444Y0235852D01*
X0059444Y0237450D02*
X0017624Y0237450D01*
X0017624Y0239049D02*
X0059444Y0239049D01*
X0059444Y0240647D02*
X0017624Y0240647D01*
X0017624Y0242246D02*
X0059444Y0242246D01*
X0059444Y0243844D02*
X0017624Y0243844D01*
X0017624Y0245443D02*
X0059444Y0245443D01*
X0059444Y0247041D02*
X0017624Y0247041D01*
X0017624Y0248640D02*
X0059444Y0248640D01*
X0059444Y0250238D02*
X0017624Y0250238D01*
X0017624Y0251837D02*
X0059444Y0251837D01*
X0059444Y0253435D02*
X0017624Y0253435D01*
X0017624Y0255034D02*
X0059444Y0255034D01*
X0059444Y0256632D02*
X0017624Y0256632D01*
X0017624Y0258231D02*
X0059444Y0258231D01*
X0059444Y0259829D02*
X0017624Y0259829D01*
X0017624Y0261428D02*
X0059444Y0261428D01*
X0059444Y0263026D02*
X0017624Y0263026D01*
X0017624Y0264625D02*
X0059444Y0264625D01*
X0059444Y0266223D02*
X0017624Y0266223D01*
X0017624Y0267822D02*
X0059444Y0267822D01*
X0059444Y0269420D02*
X0017624Y0269420D01*
X0017624Y0271019D02*
X0059444Y0271019D01*
X0059444Y0272617D02*
X0017624Y0272617D01*
X0017624Y0274216D02*
X0059444Y0274216D01*
X0059444Y0275814D02*
X0017624Y0275814D01*
X0017624Y0277413D02*
X0059444Y0277413D01*
X0059444Y0279011D02*
X0017624Y0279011D01*
X0017624Y0280610D02*
X0059444Y0280610D01*
X0059444Y0282208D02*
X0017624Y0282208D01*
X0017624Y0283807D02*
X0059444Y0283807D01*
X0059444Y0285405D02*
X0017624Y0285405D01*
X0017624Y0287004D02*
X0059444Y0287004D01*
X0059444Y0288602D02*
X0017624Y0288602D01*
X0017624Y0290201D02*
X0059444Y0290201D01*
X0059444Y0291799D02*
X0017624Y0291799D01*
X0017624Y0293398D02*
X0059444Y0293398D01*
X0059444Y0294996D02*
X0017624Y0294996D01*
X0017624Y0296595D02*
X0059444Y0296595D01*
X0059444Y0298193D02*
X0017624Y0298193D01*
X0017624Y0299792D02*
X0059444Y0299792D01*
X0059444Y0301390D02*
X0017624Y0301390D01*
X0017624Y0302989D02*
X0059444Y0302989D01*
X0059444Y0304588D02*
X0017624Y0304588D01*
X0017624Y0306186D02*
X0059444Y0306186D01*
X0059444Y0307785D02*
X0017624Y0307785D01*
X0017624Y0309383D02*
X0059444Y0309383D01*
X0059444Y0310982D02*
X0017624Y0310982D01*
X0017624Y0312580D02*
X0059444Y0312580D01*
X0059444Y0314179D02*
X0017624Y0314179D01*
X0017624Y0315777D02*
X0059444Y0315777D01*
X0059444Y0317376D02*
X0017624Y0317376D01*
X0017624Y0318974D02*
X0059444Y0318974D01*
X0059444Y0320573D02*
X0017624Y0320573D01*
X0017624Y0322171D02*
X0059444Y0322171D01*
X0059444Y0323770D02*
X0017624Y0323770D01*
X0017624Y0325368D02*
X0059444Y0325368D01*
X0059444Y0326967D02*
X0017624Y0326967D01*
X0017624Y0328565D02*
X0059444Y0328565D01*
X0059444Y0330164D02*
X0017624Y0330164D01*
X0017624Y0331762D02*
X0059444Y0331762D01*
X0059444Y0333361D02*
X0017624Y0333361D01*
X0017624Y0334959D02*
X0059444Y0334959D01*
X0059444Y0336558D02*
X0017624Y0336558D01*
X0017624Y0338156D02*
X0059444Y0338156D01*
X0059444Y0339755D02*
X0017624Y0339755D01*
X0017624Y0341353D02*
X0059444Y0341353D01*
X0059444Y0342952D02*
X0017624Y0342952D01*
X0017624Y0344550D02*
X0059444Y0344550D01*
X0059444Y0346149D02*
X0017624Y0346149D01*
X0017624Y0347747D02*
X0059444Y0347747D01*
X0059444Y0349346D02*
X0017624Y0349346D01*
X0017624Y0350944D02*
X0059444Y0350944D01*
X0059444Y0352543D02*
X0017624Y0352543D01*
X0017624Y0354141D02*
X0059444Y0354141D01*
X0059444Y0355740D02*
X0017624Y0355740D01*
X0017624Y0357338D02*
X0059444Y0357338D01*
X0059444Y0358937D02*
X0017624Y0358937D01*
X0017624Y0360535D02*
X0059444Y0360535D01*
X0063644Y0360535D02*
X0307713Y0360535D01*
X0307549Y0362134D02*
X0077416Y0362134D01*
X0077416Y0363732D02*
X0332102Y0363732D01*
X0332102Y0362134D02*
X0333702Y0362134D01*
X0333702Y0363732D02*
X0437602Y0363732D01*
X0437602Y0362751D02*
X0438539Y0361814D01*
X0468604Y0361814D01*
X0469542Y0362751D01*
X0469542Y0392817D01*
X0468604Y0393754D01*
X0438539Y0393754D01*
X0437602Y0392817D01*
X0437602Y0380180D01*
X0359319Y0380180D01*
X0358367Y0381131D01*
X0357044Y0381680D01*
X0355611Y0381680D01*
X0354288Y0381131D01*
X0353276Y0380119D01*
X0353037Y0379542D01*
X0352882Y0379755D01*
X0351585Y0381275D01*
X0350172Y0382687D01*
X0348653Y0383984D01*
X0347037Y0385159D01*
X0345334Y0386202D01*
X0343554Y0387109D01*
X0341708Y0387874D01*
X0339808Y0388491D01*
X0337866Y0388958D01*
X0335893Y0389270D01*
X0333901Y0389427D01*
X0333702Y0389427D01*
X0333702Y0364805D01*
X0358324Y0364805D01*
X0358324Y0365004D01*
X0358168Y0366995D01*
X0357855Y0368968D01*
X0357389Y0370911D01*
X0356771Y0372811D01*
X0356080Y0374480D01*
X0357044Y0374480D01*
X0358367Y0375028D01*
X0359319Y0375980D01*
X0437602Y0375980D01*
X0437602Y0362751D01*
X0438219Y0362134D02*
X0358256Y0362134D01*
X0358092Y0360535D02*
X0637945Y0360535D01*
X0637945Y0358937D02*
X0357830Y0358937D01*
X0357446Y0357338D02*
X0637945Y0357338D01*
X0637945Y0355740D02*
X0356947Y0355740D01*
X0356333Y0354141D02*
X0637945Y0354141D01*
X0637945Y0352543D02*
X0355594Y0352543D01*
X0354715Y0350944D02*
X0637945Y0350944D01*
X0637945Y0349346D02*
X0353675Y0349346D01*
X0352449Y0347747D02*
X0637945Y0347747D01*
X0637945Y0346149D02*
X0350999Y0346149D01*
X0349268Y0344550D02*
X0637945Y0344550D01*
X0637945Y0342952D02*
X0347176Y0342952D01*
X0344443Y0341353D02*
X0513974Y0341353D01*
X0512375Y0339755D02*
X0340536Y0339755D01*
X0333702Y0339755D02*
X0332102Y0339755D01*
X0332102Y0341353D02*
X0333702Y0341353D01*
X0333702Y0342952D02*
X0332102Y0342952D01*
X0332102Y0344550D02*
X0333702Y0344550D01*
X0333702Y0346149D02*
X0332102Y0346149D01*
X0332102Y0347747D02*
X0333702Y0347747D01*
X0333702Y0349346D02*
X0332102Y0349346D01*
X0332102Y0350944D02*
X0333702Y0350944D01*
X0333702Y0352543D02*
X0332102Y0352543D01*
X0332102Y0354141D02*
X0333702Y0354141D01*
X0333702Y0355740D02*
X0332102Y0355740D01*
X0332102Y0357338D02*
X0333702Y0357338D01*
X0333702Y0358937D02*
X0332102Y0358937D01*
X0332102Y0360535D02*
X0333702Y0360535D01*
X0333702Y0365331D02*
X0332102Y0365331D01*
X0332102Y0366929D02*
X0333702Y0366929D01*
X0333702Y0368528D02*
X0332102Y0368528D01*
X0332102Y0370126D02*
X0333702Y0370126D01*
X0333702Y0371725D02*
X0332102Y0371725D01*
X0332102Y0373323D02*
X0333702Y0373323D01*
X0333702Y0374922D02*
X0332102Y0374922D01*
X0332102Y0376521D02*
X0333702Y0376521D01*
X0333702Y0378119D02*
X0332102Y0378119D01*
X0332102Y0379718D02*
X0333702Y0379718D01*
X0333702Y0381316D02*
X0332102Y0381316D01*
X0332102Y0382915D02*
X0333702Y0382915D01*
X0333702Y0384513D02*
X0332102Y0384513D01*
X0332102Y0386112D02*
X0333702Y0386112D01*
X0333702Y0387710D02*
X0332102Y0387710D01*
X0332102Y0389309D02*
X0333702Y0389309D01*
X0335403Y0389309D02*
X0339294Y0389309D01*
X0339257Y0389373D02*
X0339493Y0388962D01*
X0339829Y0388627D01*
X0340239Y0388390D01*
X0340697Y0388268D01*
X0342718Y0388268D01*
X0342718Y0393820D01*
X0339134Y0393820D01*
X0339134Y0389831D01*
X0339257Y0389373D01*
X0339134Y0390907D02*
X0331471Y0390907D01*
X0331471Y0392506D02*
X0339134Y0392506D01*
X0339134Y0395703D02*
X0331471Y0395703D01*
X0331471Y0397301D02*
X0339134Y0397301D01*
X0339408Y0398900D02*
X0331176Y0398900D01*
X0331471Y0394104D02*
X0342718Y0394104D01*
X0343087Y0394104D02*
X0621482Y0394104D01*
X0623924Y0392506D02*
X0469542Y0392506D01*
X0469542Y0390907D02*
X0625829Y0390907D01*
X0627734Y0389309D02*
X0469542Y0389309D01*
X0469542Y0387710D02*
X0629101Y0387710D01*
X0630442Y0386112D02*
X0469542Y0386112D01*
X0469542Y0384513D02*
X0631755Y0384513D01*
X0632678Y0382915D02*
X0469542Y0382915D01*
X0469542Y0381316D02*
X0633601Y0381316D01*
X0634524Y0379718D02*
X0469542Y0379718D01*
X0469542Y0378119D02*
X0635173Y0378119D01*
X0635755Y0376521D02*
X0469542Y0376521D01*
X0469542Y0374922D02*
X0636337Y0374922D01*
X0636840Y0373323D02*
X0469542Y0373323D01*
X0469542Y0371725D02*
X0637122Y0371725D01*
X0637404Y0370126D02*
X0469542Y0370126D01*
X0469542Y0368528D02*
X0637686Y0368528D01*
X0637852Y0366929D02*
X0469542Y0366929D01*
X0469542Y0365331D02*
X0637921Y0365331D01*
X0637945Y0363732D02*
X0469542Y0363732D01*
X0468924Y0362134D02*
X0637945Y0362134D01*
X0637945Y0341353D02*
X0581555Y0341353D01*
X0583154Y0339755D02*
X0583299Y0339755D01*
X0581215Y0335754D02*
X0581800Y0335169D01*
X0578116Y0335169D01*
X0578116Y0335754D01*
X0581215Y0335754D01*
X0582452Y0333361D02*
X0582946Y0333361D01*
X0582946Y0331762D02*
X0581305Y0331762D01*
X0578116Y0331762D02*
X0577531Y0331762D01*
X0577531Y0333361D02*
X0578116Y0333361D01*
X0578116Y0334959D02*
X0577531Y0334959D01*
X0574963Y0330164D02*
X0637945Y0330164D01*
X0637945Y0331762D02*
X0592701Y0331762D01*
X0592701Y0333361D02*
X0637945Y0333361D01*
X0637945Y0334959D02*
X0592701Y0334959D01*
X0592701Y0336558D02*
X0637945Y0336558D01*
X0637945Y0338156D02*
X0592701Y0338156D01*
X0592348Y0339755D02*
X0637945Y0339755D01*
X0637945Y0328565D02*
X0574963Y0328565D01*
X0574963Y0326967D02*
X0637945Y0326967D01*
X0637945Y0325368D02*
X0574963Y0325368D01*
X0574963Y0323770D02*
X0637945Y0323770D01*
X0637945Y0322171D02*
X0574963Y0322171D01*
X0574963Y0320573D02*
X0637945Y0320573D01*
X0637945Y0318974D02*
X0574963Y0318974D01*
X0574963Y0317376D02*
X0637945Y0317376D01*
X0637945Y0315777D02*
X0574963Y0315777D01*
X0575757Y0314179D02*
X0637945Y0314179D01*
X0637945Y0312580D02*
X0577356Y0312580D01*
X0578954Y0310982D02*
X0578994Y0310982D01*
X0576212Y0307785D02*
X0562168Y0307785D01*
X0562168Y0309383D02*
X0574613Y0309383D01*
X0573015Y0310982D02*
X0562168Y0310982D01*
X0562168Y0312580D02*
X0571416Y0312580D01*
X0570763Y0314179D02*
X0562168Y0314179D01*
X0562168Y0315777D02*
X0570763Y0315777D01*
X0570763Y0317376D02*
X0562168Y0317376D01*
X0562168Y0318974D02*
X0570763Y0318974D01*
X0570763Y0320573D02*
X0562168Y0320573D01*
X0562168Y0322171D02*
X0570763Y0322171D01*
X0570763Y0323770D02*
X0562168Y0323770D01*
X0561123Y0325368D02*
X0570763Y0325368D01*
X0570763Y0326967D02*
X0559524Y0326967D01*
X0557926Y0328565D02*
X0570763Y0328565D01*
X0570763Y0330164D02*
X0556327Y0330164D01*
X0561022Y0331762D02*
X0564625Y0331762D01*
X0563414Y0333361D02*
X0562233Y0333361D01*
X0562701Y0334959D02*
X0562946Y0334959D01*
X0562998Y0336558D02*
X0562649Y0336558D01*
X0564823Y0341353D02*
X0574013Y0341353D01*
X0572415Y0339755D02*
X0570204Y0339755D01*
X0591732Y0310982D02*
X0603792Y0310982D01*
X0603903Y0311173D02*
X0603666Y0310762D01*
X0603543Y0310305D01*
X0603543Y0302206D01*
X0609563Y0302206D01*
X0609563Y0300606D01*
X0611163Y0300606D01*
X0611163Y0290945D01*
X0615620Y0290945D01*
X0616077Y0291068D01*
X0616488Y0291305D01*
X0616823Y0291640D01*
X0617060Y0292050D01*
X0617183Y0292508D01*
X0617183Y0300606D01*
X0611163Y0300606D01*
X0611163Y0302206D01*
X0617183Y0302206D01*
X0617183Y0310305D01*
X0617060Y0310762D01*
X0616823Y0311173D01*
X0616488Y0311508D01*
X0616077Y0311745D01*
X0615620Y0311868D01*
X0611163Y0311868D01*
X0611163Y0302206D01*
X0609563Y0302206D01*
X0609563Y0311868D01*
X0605106Y0311868D01*
X0604649Y0311745D01*
X0604238Y0311508D01*
X0603903Y0311173D01*
X0603543Y0309383D02*
X0591983Y0309383D01*
X0591983Y0307785D02*
X0603543Y0307785D01*
X0603543Y0306186D02*
X0591983Y0306186D01*
X0591983Y0304588D02*
X0603543Y0304588D01*
X0603543Y0302989D02*
X0591983Y0302989D01*
X0591983Y0301390D02*
X0609563Y0301390D01*
X0609563Y0300606D02*
X0603543Y0300606D01*
X0603543Y0292508D01*
X0603666Y0292050D01*
X0603903Y0291640D01*
X0604238Y0291305D01*
X0604649Y0291068D01*
X0605106Y0290945D01*
X0609563Y0290945D01*
X0609563Y0300606D01*
X0609563Y0299792D02*
X0611163Y0299792D01*
X0611163Y0301390D02*
X0637945Y0301390D01*
X0637945Y0299792D02*
X0617183Y0299792D01*
X0617183Y0298193D02*
X0637945Y0298193D01*
X0637945Y0296595D02*
X0617183Y0296595D01*
X0617183Y0294996D02*
X0637945Y0294996D01*
X0637945Y0293398D02*
X0617183Y0293398D01*
X0616915Y0291799D02*
X0637945Y0291799D01*
X0637945Y0290201D02*
X0587758Y0290201D01*
X0587758Y0288602D02*
X0637945Y0288602D01*
X0637945Y0287004D02*
X0587758Y0287004D01*
X0587758Y0285405D02*
X0637945Y0285405D01*
X0637945Y0283807D02*
X0587758Y0283807D01*
X0587758Y0282208D02*
X0637945Y0282208D01*
X0637945Y0280610D02*
X0587758Y0280610D01*
X0583558Y0280610D02*
X0562168Y0280610D01*
X0562168Y0282208D02*
X0583558Y0282208D01*
X0583558Y0283807D02*
X0562168Y0283807D01*
X0562168Y0285405D02*
X0583558Y0285405D01*
X0583558Y0287004D02*
X0562168Y0287004D01*
X0562168Y0288602D02*
X0583558Y0288602D01*
X0583558Y0290201D02*
X0562168Y0290201D01*
X0562168Y0291799D02*
X0579026Y0291799D01*
X0578743Y0293398D02*
X0562168Y0293398D01*
X0562168Y0294996D02*
X0578743Y0294996D01*
X0578743Y0296595D02*
X0562168Y0296595D01*
X0562168Y0298193D02*
X0578743Y0298193D01*
X0578743Y0299792D02*
X0562168Y0299792D01*
X0562168Y0301390D02*
X0578743Y0301390D01*
X0578743Y0302989D02*
X0562168Y0302989D01*
X0562168Y0304588D02*
X0578743Y0304588D01*
X0577810Y0306186D02*
X0562168Y0306186D01*
X0591983Y0299792D02*
X0603543Y0299792D01*
X0603543Y0298193D02*
X0591983Y0298193D01*
X0591983Y0296595D02*
X0603543Y0296595D01*
X0603543Y0294996D02*
X0591983Y0294996D01*
X0591983Y0293398D02*
X0603543Y0293398D01*
X0603811Y0291799D02*
X0591700Y0291799D01*
X0604238Y0280012D02*
X0604649Y0280249D01*
X0605106Y0280372D01*
X0609563Y0280372D01*
X0609563Y0270710D01*
X0609563Y0269110D01*
X0611163Y0269110D01*
X0611163Y0259449D01*
X0615620Y0259449D01*
X0616077Y0259571D01*
X0616488Y0259808D01*
X0616823Y0260144D01*
X0617060Y0260554D01*
X0617183Y0261012D01*
X0617183Y0269110D01*
X0611163Y0269110D01*
X0611163Y0270710D01*
X0617183Y0270710D01*
X0617183Y0278809D01*
X0617060Y0279266D01*
X0616823Y0279677D01*
X0616488Y0280012D01*
X0616077Y0280249D01*
X0615620Y0280372D01*
X0611163Y0280372D01*
X0611163Y0270710D01*
X0609563Y0270710D01*
X0603543Y0270710D01*
X0603543Y0278809D01*
X0603666Y0279266D01*
X0603903Y0279677D01*
X0604238Y0280012D01*
X0603598Y0279011D02*
X0591983Y0279011D01*
X0591983Y0277413D02*
X0603543Y0277413D01*
X0603543Y0275814D02*
X0591983Y0275814D01*
X0591983Y0274216D02*
X0603543Y0274216D01*
X0603543Y0272617D02*
X0591983Y0272617D01*
X0591983Y0271019D02*
X0603543Y0271019D01*
X0603543Y0269110D02*
X0603543Y0261012D01*
X0603666Y0260554D01*
X0603903Y0260144D01*
X0604238Y0259808D01*
X0604649Y0259571D01*
X0605106Y0259449D01*
X0609563Y0259449D01*
X0609563Y0269110D01*
X0603543Y0269110D01*
X0603543Y0267822D02*
X0591983Y0267822D01*
X0591983Y0269420D02*
X0609563Y0269420D01*
X0609563Y0267822D02*
X0611163Y0267822D01*
X0611163Y0269420D02*
X0637945Y0269420D01*
X0637945Y0267822D02*
X0617183Y0267822D01*
X0617183Y0266223D02*
X0637945Y0266223D01*
X0637945Y0264625D02*
X0617183Y0264625D01*
X0617183Y0263026D02*
X0637945Y0263026D01*
X0637945Y0261428D02*
X0617183Y0261428D01*
X0616509Y0259829D02*
X0637945Y0259829D01*
X0637945Y0258231D02*
X0544543Y0258231D01*
X0544967Y0259829D02*
X0579500Y0259829D01*
X0578743Y0261428D02*
X0559163Y0261428D01*
X0560093Y0263026D02*
X0578743Y0263026D01*
X0578743Y0264625D02*
X0560093Y0264625D01*
X0560093Y0266223D02*
X0578743Y0266223D01*
X0578743Y0267822D02*
X0560093Y0267822D01*
X0560093Y0269420D02*
X0578743Y0269420D01*
X0578743Y0271019D02*
X0560093Y0271019D01*
X0559427Y0272617D02*
X0578743Y0272617D01*
X0578743Y0274216D02*
X0559568Y0274216D01*
X0561166Y0275814D02*
X0578743Y0275814D01*
X0578743Y0277413D02*
X0562168Y0277413D01*
X0562168Y0279011D02*
X0578743Y0279011D01*
X0591983Y0266223D02*
X0603543Y0266223D01*
X0603543Y0264625D02*
X0591983Y0264625D01*
X0591983Y0263026D02*
X0603543Y0263026D01*
X0603543Y0261428D02*
X0591983Y0261428D01*
X0591226Y0259829D02*
X0604217Y0259829D01*
X0609563Y0259829D02*
X0611163Y0259829D01*
X0611163Y0261428D02*
X0609563Y0261428D01*
X0609563Y0263026D02*
X0611163Y0263026D01*
X0611163Y0264625D02*
X0609563Y0264625D01*
X0609563Y0266223D02*
X0611163Y0266223D01*
X0611163Y0271019D02*
X0609563Y0271019D01*
X0609563Y0272617D02*
X0611163Y0272617D01*
X0611163Y0274216D02*
X0609563Y0274216D01*
X0609563Y0275814D02*
X0611163Y0275814D01*
X0611163Y0277413D02*
X0609563Y0277413D01*
X0609563Y0279011D02*
X0611163Y0279011D01*
X0617128Y0279011D02*
X0637945Y0279011D01*
X0637945Y0277413D02*
X0617183Y0277413D01*
X0617183Y0275814D02*
X0637945Y0275814D01*
X0637945Y0274216D02*
X0617183Y0274216D01*
X0617183Y0272617D02*
X0637945Y0272617D01*
X0637945Y0271019D02*
X0617183Y0271019D01*
X0637945Y0256632D02*
X0542718Y0256632D01*
X0540016Y0256632D02*
X0524267Y0256632D01*
X0522669Y0255034D02*
X0637945Y0255034D01*
X0637945Y0253435D02*
X0521070Y0253435D01*
X0519472Y0251837D02*
X0637945Y0251837D01*
X0637945Y0250238D02*
X0591865Y0250238D01*
X0591764Y0250339D02*
X0583883Y0250339D01*
X0582946Y0249402D01*
X0582946Y0241521D01*
X0583883Y0240584D01*
X0591764Y0240584D01*
X0592701Y0241521D01*
X0592701Y0249402D01*
X0591764Y0250339D01*
X0592701Y0248640D02*
X0637945Y0248640D01*
X0637945Y0247041D02*
X0592701Y0247041D01*
X0592701Y0245443D02*
X0637945Y0245443D01*
X0637945Y0243844D02*
X0592701Y0243844D01*
X0592701Y0242246D02*
X0637945Y0242246D01*
X0637945Y0240647D02*
X0591827Y0240647D01*
X0583820Y0240647D02*
X0578946Y0240647D01*
X0578794Y0240584D02*
X0580587Y0241326D01*
X0581959Y0242698D01*
X0582701Y0244491D01*
X0582701Y0246432D01*
X0581959Y0248224D01*
X0580587Y0249596D01*
X0578794Y0250339D01*
X0576853Y0250339D01*
X0575061Y0249596D01*
X0573689Y0248224D01*
X0572946Y0246432D01*
X0572946Y0244491D01*
X0573689Y0242698D01*
X0575061Y0241326D01*
X0576853Y0240584D01*
X0578794Y0240584D01*
X0576701Y0240647D02*
X0568946Y0240647D01*
X0568794Y0240584D02*
X0570587Y0241326D01*
X0571959Y0242698D01*
X0572701Y0244491D01*
X0572701Y0246432D01*
X0571959Y0248224D01*
X0570587Y0249596D01*
X0568794Y0250339D01*
X0566853Y0250339D01*
X0565061Y0249596D01*
X0563689Y0248224D01*
X0562946Y0246432D01*
X0562946Y0244491D01*
X0563689Y0242698D01*
X0565061Y0241326D01*
X0566853Y0240584D01*
X0568794Y0240584D01*
X0566701Y0240647D02*
X0559438Y0240647D01*
X0559773Y0240756D02*
X0560485Y0241119D01*
X0561131Y0241588D01*
X0561697Y0242154D01*
X0562166Y0242800D01*
X0562529Y0243512D01*
X0562776Y0244272D01*
X0562901Y0245062D01*
X0562901Y0245169D01*
X0558116Y0245169D01*
X0558116Y0240384D01*
X0558223Y0240384D01*
X0559013Y0240509D01*
X0559773Y0240756D01*
X0558116Y0240647D02*
X0557531Y0240647D01*
X0557531Y0240384D02*
X0557531Y0245169D01*
X0552746Y0245169D01*
X0552746Y0245062D01*
X0552871Y0244272D01*
X0553118Y0243512D01*
X0553481Y0242800D01*
X0553951Y0242154D01*
X0554516Y0241588D01*
X0555162Y0241119D01*
X0555875Y0240756D01*
X0556635Y0240509D01*
X0557424Y0240384D01*
X0557531Y0240384D01*
X0556209Y0240647D02*
X0548946Y0240647D01*
X0548794Y0240584D02*
X0550587Y0241326D01*
X0551959Y0242698D01*
X0552701Y0244491D01*
X0552701Y0246432D01*
X0551959Y0248224D01*
X0550587Y0249596D01*
X0548794Y0250339D01*
X0546853Y0250339D01*
X0545061Y0249596D01*
X0543689Y0248224D01*
X0542946Y0246432D01*
X0542946Y0244491D01*
X0543689Y0242698D01*
X0545061Y0241326D01*
X0546853Y0240584D01*
X0548794Y0240584D01*
X0546701Y0240647D02*
X0538946Y0240647D01*
X0538794Y0240584D02*
X0540587Y0241326D01*
X0541959Y0242698D01*
X0542701Y0244491D01*
X0542701Y0246432D01*
X0541959Y0248224D01*
X0540587Y0249596D01*
X0538794Y0250339D01*
X0536853Y0250339D01*
X0535061Y0249596D01*
X0533689Y0248224D01*
X0532946Y0246432D01*
X0532946Y0244491D01*
X0533689Y0242698D01*
X0535061Y0241326D01*
X0536853Y0240584D01*
X0538794Y0240584D01*
X0536701Y0240647D02*
X0535608Y0240647D01*
X0534142Y0242246D02*
X0534009Y0242246D01*
X0533214Y0243844D02*
X0532433Y0243844D01*
X0532427Y0243828D02*
X0532701Y0244491D01*
X0532701Y0246432D01*
X0531959Y0248224D01*
X0530587Y0249596D01*
X0528794Y0250339D01*
X0526853Y0250339D01*
X0525061Y0249596D01*
X0523689Y0248224D01*
X0522946Y0246432D01*
X0522946Y0244491D01*
X0523689Y0242698D01*
X0525061Y0241326D01*
X0526853Y0240584D01*
X0528794Y0240584D01*
X0529457Y0240858D01*
X0537298Y0233017D01*
X0537298Y0202971D01*
X0536871Y0202794D01*
X0535577Y0201500D01*
X0534877Y0199809D01*
X0534877Y0191979D01*
X0535577Y0190289D01*
X0536871Y0188995D01*
X0538562Y0188294D01*
X0540392Y0188294D01*
X0542083Y0188995D01*
X0543377Y0190289D01*
X0544077Y0191979D01*
X0544077Y0199809D01*
X0543377Y0201500D01*
X0542083Y0202794D01*
X0541498Y0203036D01*
X0541498Y0234756D01*
X0532427Y0243828D01*
X0532701Y0245443D02*
X0532946Y0245443D01*
X0533199Y0247041D02*
X0532449Y0247041D01*
X0531543Y0248640D02*
X0534104Y0248640D01*
X0536610Y0250238D02*
X0529037Y0250238D01*
X0526610Y0250238D02*
X0519554Y0250238D01*
X0521791Y0248640D02*
X0524104Y0248640D01*
X0523199Y0247041D02*
X0522649Y0247041D01*
X0522946Y0245443D02*
X0518116Y0245443D01*
X0518116Y0243844D02*
X0517531Y0243844D01*
X0517531Y0242246D02*
X0518116Y0242246D01*
X0518116Y0240647D02*
X0517531Y0240647D01*
X0516209Y0240647D02*
X0514924Y0240647D01*
X0514924Y0239049D02*
X0531267Y0239049D01*
X0529668Y0240647D02*
X0528946Y0240647D01*
X0526701Y0240647D02*
X0519438Y0240647D01*
X0521763Y0242246D02*
X0524142Y0242246D01*
X0523214Y0243844D02*
X0522637Y0243844D01*
X0514924Y0237450D02*
X0532865Y0237450D01*
X0534464Y0235852D02*
X0514924Y0235852D01*
X0514924Y0234253D02*
X0536062Y0234253D01*
X0537298Y0232654D02*
X0514924Y0232654D01*
X0514924Y0231056D02*
X0537298Y0231056D01*
X0537298Y0229457D02*
X0514924Y0229457D01*
X0514924Y0227859D02*
X0537298Y0227859D01*
X0537298Y0226260D02*
X0514924Y0226260D01*
X0514924Y0224662D02*
X0537298Y0224662D01*
X0537298Y0223063D02*
X0514924Y0223063D01*
X0514924Y0221465D02*
X0537298Y0221465D01*
X0537298Y0219866D02*
X0514924Y0219866D01*
X0514924Y0218268D02*
X0537298Y0218268D01*
X0537298Y0216669D02*
X0514924Y0216669D01*
X0514924Y0215071D02*
X0537298Y0215071D01*
X0537298Y0213472D02*
X0514924Y0213472D01*
X0514924Y0211874D02*
X0537298Y0211874D01*
X0537298Y0210275D02*
X0514924Y0210275D01*
X0514924Y0208677D02*
X0537298Y0208677D01*
X0537298Y0207078D02*
X0514924Y0207078D01*
X0514924Y0205480D02*
X0537298Y0205480D01*
X0537298Y0203881D02*
X0514924Y0203881D01*
X0514924Y0202283D02*
X0516077Y0202283D01*
X0515012Y0200684D02*
X0514924Y0200684D01*
X0510724Y0200684D02*
X0449471Y0200684D01*
X0449471Y0199086D02*
X0510724Y0199086D01*
X0510724Y0197487D02*
X0449471Y0197487D01*
X0449471Y0195889D02*
X0510724Y0195889D01*
X0510724Y0194290D02*
X0449471Y0194290D01*
X0449471Y0192692D02*
X0510724Y0192692D01*
X0510724Y0191093D02*
X0449471Y0191093D01*
X0449471Y0189495D02*
X0510724Y0189495D01*
X0510724Y0187896D02*
X0449471Y0187896D01*
X0449471Y0186298D02*
X0510724Y0186298D01*
X0510724Y0184699D02*
X0449471Y0184699D01*
X0449471Y0183101D02*
X0510724Y0183101D01*
X0510724Y0181502D02*
X0449471Y0181502D01*
X0449471Y0179904D02*
X0510724Y0179904D01*
X0510724Y0178305D02*
X0449471Y0178305D01*
X0449471Y0176707D02*
X0510724Y0176707D01*
X0510724Y0175108D02*
X0449471Y0175108D01*
X0449471Y0173510D02*
X0510724Y0173510D01*
X0510724Y0171911D02*
X0449471Y0171911D01*
X0449471Y0170313D02*
X0510724Y0170313D01*
X0510724Y0168714D02*
X0449471Y0168714D01*
X0449471Y0167116D02*
X0510724Y0167116D01*
X0510724Y0165517D02*
X0449471Y0165517D01*
X0449471Y0163919D02*
X0510724Y0163919D01*
X0510724Y0162320D02*
X0449471Y0162320D01*
X0449471Y0160721D02*
X0510724Y0160721D01*
X0510724Y0159123D02*
X0449471Y0159123D01*
X0449471Y0157524D02*
X0510724Y0157524D01*
X0510724Y0155926D02*
X0449471Y0155926D01*
X0449471Y0154327D02*
X0510724Y0154327D01*
X0510724Y0152729D02*
X0449471Y0152729D01*
X0449471Y0151130D02*
X0510724Y0151130D01*
X0510724Y0149532D02*
X0449471Y0149532D01*
X0449471Y0147933D02*
X0510724Y0147933D01*
X0510724Y0146335D02*
X0449471Y0146335D01*
X0449471Y0144736D02*
X0510724Y0144736D01*
X0510724Y0143138D02*
X0449471Y0143138D01*
X0449471Y0141539D02*
X0510724Y0141539D01*
X0510724Y0139941D02*
X0449471Y0139941D01*
X0449471Y0138342D02*
X0510724Y0138342D01*
X0510724Y0136744D02*
X0448670Y0136744D01*
X0447072Y0135145D02*
X0511154Y0135145D01*
X0511954Y0134346D02*
X0511954Y0134346D01*
X0512753Y0133547D02*
X0445473Y0133547D01*
X0443875Y0131948D02*
X0514351Y0131948D01*
X0515950Y0130350D02*
X0442276Y0130350D01*
X0440678Y0128751D02*
X0517548Y0128751D01*
X0519147Y0127153D02*
X0439079Y0127153D01*
X0437481Y0125554D02*
X0520745Y0125554D01*
X0520878Y0123956D02*
X0435882Y0123956D01*
X0434284Y0122357D02*
X0520215Y0122357D01*
X0520184Y0120759D02*
X0432685Y0120759D01*
X0431087Y0119160D02*
X0520719Y0119160D01*
X0522084Y0117562D02*
X0429488Y0117562D01*
X0427890Y0115963D02*
X0523860Y0115963D01*
X0523869Y0115967D02*
X0522179Y0115267D01*
X0520885Y0113973D01*
X0520184Y0112282D01*
X0520184Y0110452D01*
X0520885Y0108761D01*
X0522179Y0107467D01*
X0523869Y0106767D01*
X0531699Y0106767D01*
X0533390Y0107467D01*
X0534684Y0108761D01*
X0535384Y0110452D01*
X0535384Y0112282D01*
X0534684Y0113973D01*
X0533390Y0115267D01*
X0531699Y0115967D01*
X0523869Y0115967D01*
X0521277Y0114365D02*
X0426291Y0114365D01*
X0424693Y0112766D02*
X0520385Y0112766D01*
X0520184Y0111168D02*
X0423094Y0111168D01*
X0421496Y0109569D02*
X0520550Y0109569D01*
X0521675Y0107971D02*
X0419897Y0107971D01*
X0418299Y0106372D02*
X0637945Y0106372D01*
X0637945Y0104774D02*
X0534166Y0104774D01*
X0533911Y0105028D02*
X0533300Y0105472D01*
X0532627Y0105815D01*
X0531908Y0106049D01*
X0531162Y0106167D01*
X0527984Y0106167D01*
X0527984Y0101567D01*
X0527584Y0101567D01*
X0527584Y0101167D01*
X0519984Y0101167D01*
X0519984Y0100989D01*
X0520102Y0100243D01*
X0520336Y0099524D01*
X0520679Y0098851D01*
X0521123Y0098240D01*
X0521657Y0097706D01*
X0522269Y0097262D01*
X0522942Y0096919D01*
X0523660Y0096685D01*
X0524406Y0096567D01*
X0527584Y0096567D01*
X0527584Y0101167D01*
X0527984Y0101167D01*
X0527984Y0096567D01*
X0531162Y0096567D01*
X0531908Y0096685D01*
X0532627Y0096919D01*
X0533300Y0097262D01*
X0533911Y0097706D01*
X0534445Y0098240D01*
X0534890Y0098851D01*
X0535233Y0099524D01*
X0535466Y0100243D01*
X0535584Y0100989D01*
X0535584Y0101167D01*
X0527984Y0101167D01*
X0527984Y0101567D01*
X0535584Y0101567D01*
X0535584Y0101745D01*
X0535466Y0102491D01*
X0535233Y0103209D01*
X0534890Y0103883D01*
X0534445Y0104494D01*
X0533911Y0105028D01*
X0535244Y0103175D02*
X0637945Y0103175D01*
X0637945Y0101577D02*
X0535584Y0101577D01*
X0535380Y0099978D02*
X0637945Y0099978D01*
X0637945Y0098380D02*
X0534547Y0098380D01*
X0532203Y0096781D02*
X0637945Y0096781D01*
X0637945Y0095183D02*
X0533474Y0095183D01*
X0533390Y0095267D02*
X0531699Y0095967D01*
X0523869Y0095967D01*
X0522179Y0095267D01*
X0520885Y0093973D01*
X0520184Y0092282D01*
X0520184Y0090452D01*
X0520885Y0088761D01*
X0522179Y0087467D01*
X0523869Y0086767D01*
X0531699Y0086767D01*
X0533390Y0087467D01*
X0534684Y0088761D01*
X0535384Y0090452D01*
X0535384Y0092282D01*
X0534684Y0093973D01*
X0533390Y0095267D01*
X0534845Y0093584D02*
X0637945Y0093584D01*
X0637945Y0091985D02*
X0535384Y0091985D01*
X0535357Y0090387D02*
X0637945Y0090387D01*
X0637945Y0088788D02*
X0534695Y0088788D01*
X0532721Y0087190D02*
X0637945Y0087190D01*
X0637945Y0085591D02*
X0397518Y0085591D01*
X0395919Y0083993D02*
X0637945Y0083993D01*
X0637945Y0082394D02*
X0394321Y0082394D01*
X0392722Y0080796D02*
X0637945Y0080796D01*
X0637945Y0079197D02*
X0391124Y0079197D01*
X0389525Y0077599D02*
X0637945Y0077599D01*
X0637945Y0076000D02*
X0387927Y0076000D01*
X0386328Y0074402D02*
X0637945Y0074402D01*
X0637945Y0072803D02*
X0384730Y0072803D01*
X0383131Y0071205D02*
X0637945Y0071205D01*
X0637945Y0069606D02*
X0381533Y0069606D01*
X0379934Y0068008D02*
X0598598Y0068008D01*
X0598707Y0068117D02*
X0595837Y0065247D01*
X0595837Y0061188D01*
X0598707Y0058317D01*
X0602767Y0058317D01*
X0605637Y0061188D01*
X0605637Y0065247D01*
X0602767Y0068117D01*
X0598707Y0068117D01*
X0596999Y0066409D02*
X0378336Y0066409D01*
X0376737Y0064811D02*
X0595837Y0064811D01*
X0595837Y0063212D02*
X0375139Y0063212D01*
X0373540Y0061614D02*
X0595837Y0061614D01*
X0597009Y0060015D02*
X0469542Y0060015D01*
X0469542Y0058417D02*
X0598608Y0058417D01*
X0602866Y0058417D02*
X0608325Y0058417D01*
X0608625Y0058117D02*
X0605637Y0061105D01*
X0605637Y0063217D01*
X0610737Y0063217D01*
X0610737Y0058117D01*
X0612849Y0058117D01*
X0615837Y0061105D01*
X0615837Y0063217D01*
X0610737Y0063217D01*
X0610737Y0063217D01*
X0610737Y0058117D01*
X0608625Y0058117D01*
X0610737Y0058417D02*
X0610737Y0058417D01*
X0610737Y0060015D02*
X0610737Y0060015D01*
X0610737Y0061614D02*
X0610737Y0061614D01*
X0610737Y0063212D02*
X0610737Y0063212D01*
X0610737Y0063217D02*
X0610737Y0063217D01*
X0610737Y0063217D01*
X0615837Y0063217D01*
X0615837Y0065330D01*
X0612849Y0068317D01*
X0610737Y0068317D01*
X0608625Y0068317D01*
X0605637Y0065330D01*
X0605637Y0063217D01*
X0610737Y0063217D01*
X0610737Y0068317D01*
X0610737Y0063217D01*
X0610737Y0063217D01*
X0610737Y0064811D02*
X0610737Y0064811D01*
X0610737Y0066409D02*
X0610737Y0066409D01*
X0610737Y0068008D02*
X0610737Y0068008D01*
X0608315Y0068008D02*
X0602876Y0068008D01*
X0604475Y0066409D02*
X0606717Y0066409D01*
X0605637Y0064811D02*
X0605637Y0064811D01*
X0605637Y0063212D02*
X0605637Y0063212D01*
X0605637Y0061614D02*
X0605637Y0061614D01*
X0606727Y0060015D02*
X0604465Y0060015D01*
X0613149Y0058417D02*
X0637873Y0058417D01*
X0637813Y0057055D02*
X0637813Y0057055D01*
X0637772Y0056818D02*
X0469542Y0056818D01*
X0469542Y0055220D02*
X0637490Y0055220D01*
X0637208Y0053621D02*
X0469542Y0053621D01*
X0469542Y0052023D02*
X0636926Y0052023D01*
X0636514Y0050424D02*
X0469542Y0050424D01*
X0469542Y0048826D02*
X0635932Y0048826D01*
X0635350Y0047227D02*
X0469542Y0047227D01*
X0469542Y0045629D02*
X0634768Y0045629D01*
X0633882Y0044030D02*
X0469542Y0044030D01*
X0469542Y0042432D02*
X0520266Y0042432D01*
X0520361Y0042527D02*
X0517491Y0039656D01*
X0517491Y0035597D01*
X0520361Y0032727D01*
X0524420Y0032727D01*
X0527291Y0035597D01*
X0527291Y0039656D01*
X0524420Y0042527D01*
X0520361Y0042527D01*
X0518667Y0040833D02*
X0469542Y0040833D01*
X0469542Y0039235D02*
X0517491Y0039235D01*
X0517491Y0037636D02*
X0469542Y0037636D01*
X0469542Y0036038D02*
X0517491Y0036038D01*
X0518649Y0034439D02*
X0469542Y0034439D01*
X0469542Y0032841D02*
X0520247Y0032841D01*
X0524534Y0032841D02*
X0529964Y0032841D01*
X0530278Y0032527D02*
X0532390Y0032527D01*
X0532390Y0037627D01*
X0532390Y0037627D01*
X0527291Y0037627D01*
X0527291Y0039739D01*
X0530278Y0042727D01*
X0532390Y0042727D01*
X0532390Y0037627D01*
X0532391Y0037627D01*
X0537491Y0037627D01*
X0537491Y0039739D01*
X0534503Y0042727D01*
X0532391Y0042727D01*
X0532391Y0037627D01*
X0532391Y0037627D01*
X0537491Y0037627D01*
X0537491Y0035514D01*
X0534503Y0032527D01*
X0532391Y0032527D01*
X0532391Y0037627D01*
X0532390Y0037627D01*
X0527291Y0037627D01*
X0527291Y0035514D01*
X0530278Y0032527D01*
X0532390Y0032841D02*
X0532391Y0032841D01*
X0532390Y0034439D02*
X0532391Y0034439D01*
X0532390Y0036038D02*
X0532391Y0036038D01*
X0532390Y0037636D02*
X0532391Y0037636D01*
X0532390Y0039235D02*
X0532391Y0039235D01*
X0532390Y0040833D02*
X0532391Y0040833D01*
X0532390Y0042432D02*
X0532391Y0042432D01*
X0534798Y0042432D02*
X0632959Y0042432D01*
X0632036Y0040833D02*
X0536397Y0040833D01*
X0537491Y0039235D02*
X0630850Y0039235D01*
X0629509Y0037636D02*
X0537491Y0037636D01*
X0537491Y0036038D02*
X0628167Y0036038D01*
X0626409Y0034439D02*
X0536415Y0034439D01*
X0534817Y0032841D02*
X0624504Y0032841D01*
X0622324Y0031242D02*
X0469542Y0031242D01*
X0468717Y0029644D02*
X0619556Y0029644D01*
X0616085Y0028045D02*
X0440144Y0028045D01*
X0439412Y0026447D02*
X0611023Y0026447D01*
X0614747Y0060015D02*
X0637943Y0060015D01*
X0637945Y0061614D02*
X0615837Y0061614D01*
X0615837Y0063212D02*
X0637945Y0063212D01*
X0637945Y0064811D02*
X0615837Y0064811D01*
X0614757Y0066409D02*
X0637945Y0066409D01*
X0637945Y0068008D02*
X0613159Y0068008D01*
X0637945Y0107971D02*
X0533893Y0107971D01*
X0535019Y0109569D02*
X0637945Y0109569D01*
X0637945Y0111168D02*
X0535384Y0111168D01*
X0535184Y0112766D02*
X0637945Y0112766D01*
X0637945Y0114365D02*
X0534292Y0114365D01*
X0531708Y0115963D02*
X0637945Y0115963D01*
X0637945Y0117562D02*
X0533484Y0117562D01*
X0534849Y0119160D02*
X0637945Y0119160D01*
X0637945Y0120759D02*
X0535384Y0120759D01*
X0535353Y0122357D02*
X0637945Y0122357D01*
X0637945Y0123956D02*
X0534691Y0123956D01*
X0532696Y0125554D02*
X0637945Y0125554D01*
X0637945Y0127153D02*
X0532631Y0127153D01*
X0534674Y0128751D02*
X0637945Y0128751D01*
X0637945Y0130350D02*
X0535342Y0130350D01*
X0535384Y0131948D02*
X0637945Y0131948D01*
X0637945Y0133547D02*
X0534860Y0133547D01*
X0533511Y0135145D02*
X0637945Y0135145D01*
X0637945Y0136744D02*
X0515495Y0136744D01*
X0514924Y0138342D02*
X0521303Y0138342D01*
X0520885Y0138761D02*
X0522179Y0137467D01*
X0523869Y0136767D01*
X0531699Y0136767D01*
X0533390Y0137467D01*
X0534684Y0138761D01*
X0535384Y0140452D01*
X0535384Y0142282D01*
X0534684Y0143973D01*
X0533390Y0145267D01*
X0531699Y0145967D01*
X0523869Y0145967D01*
X0522179Y0145267D01*
X0520885Y0143973D01*
X0520184Y0142282D01*
X0520184Y0140452D01*
X0520885Y0138761D01*
X0520396Y0139941D02*
X0514924Y0139941D01*
X0514924Y0141539D02*
X0520184Y0141539D01*
X0520539Y0143138D02*
X0514924Y0143138D01*
X0514924Y0144736D02*
X0521648Y0144736D01*
X0514924Y0146335D02*
X0603697Y0146335D01*
X0605007Y0147645D02*
X0602136Y0144775D01*
X0602136Y0140715D01*
X0605007Y0137845D01*
X0609066Y0137845D01*
X0611936Y0140715D01*
X0611936Y0144775D01*
X0609066Y0147645D01*
X0605007Y0147645D01*
X0602136Y0144736D02*
X0533920Y0144736D01*
X0535030Y0143138D02*
X0602136Y0143138D01*
X0602136Y0141539D02*
X0535384Y0141539D01*
X0535173Y0139941D02*
X0602911Y0139941D01*
X0604509Y0138342D02*
X0534265Y0138342D01*
X0522057Y0135145D02*
X0517094Y0135145D01*
X0518692Y0133547D02*
X0520708Y0133547D01*
X0514924Y0147933D02*
X0637945Y0147933D01*
X0637945Y0146335D02*
X0620659Y0146335D01*
X0622136Y0144857D02*
X0619149Y0147845D01*
X0617036Y0147845D01*
X0614924Y0147845D01*
X0611936Y0144857D01*
X0611936Y0142745D01*
X0617036Y0142745D01*
X0617036Y0142745D01*
X0617036Y0147845D01*
X0617036Y0142745D01*
X0617036Y0142745D01*
X0611936Y0142745D01*
X0611936Y0140632D01*
X0614924Y0137645D01*
X0617036Y0137645D01*
X0617036Y0142745D01*
X0617036Y0142745D01*
X0622136Y0142745D01*
X0622136Y0144857D01*
X0622136Y0144736D02*
X0637945Y0144736D01*
X0637945Y0143138D02*
X0622136Y0143138D01*
X0622136Y0142745D02*
X0617036Y0142745D01*
X0617036Y0142745D01*
X0617036Y0137645D01*
X0619149Y0137645D01*
X0622136Y0140632D01*
X0622136Y0142745D01*
X0622136Y0141539D02*
X0637945Y0141539D01*
X0637945Y0139941D02*
X0621445Y0139941D01*
X0619846Y0138342D02*
X0637945Y0138342D01*
X0637945Y0149532D02*
X0514924Y0149532D01*
X0514924Y0151130D02*
X0637945Y0151130D01*
X0637945Y0152729D02*
X0514924Y0152729D01*
X0514924Y0154327D02*
X0637945Y0154327D01*
X0637945Y0155926D02*
X0514924Y0155926D01*
X0514924Y0157524D02*
X0637945Y0157524D01*
X0637945Y0159123D02*
X0514924Y0159123D01*
X0514924Y0160721D02*
X0637945Y0160721D01*
X0637945Y0162320D02*
X0514924Y0162320D01*
X0514924Y0163919D02*
X0637945Y0163919D01*
X0637945Y0165517D02*
X0514924Y0165517D01*
X0514924Y0167116D02*
X0637945Y0167116D01*
X0637945Y0168714D02*
X0514924Y0168714D01*
X0514924Y0170313D02*
X0637945Y0170313D01*
X0637945Y0171911D02*
X0514924Y0171911D01*
X0514924Y0173510D02*
X0637945Y0173510D01*
X0637945Y0175108D02*
X0514924Y0175108D01*
X0514924Y0176707D02*
X0637945Y0176707D01*
X0637945Y0178305D02*
X0514924Y0178305D01*
X0514924Y0179904D02*
X0637945Y0179904D01*
X0637945Y0181502D02*
X0514924Y0181502D01*
X0514924Y0183101D02*
X0637945Y0183101D01*
X0637945Y0184699D02*
X0514924Y0184699D01*
X0514924Y0186298D02*
X0637945Y0186298D01*
X0637945Y0187896D02*
X0514924Y0187896D01*
X0514924Y0189495D02*
X0516089Y0189495D01*
X0515015Y0191093D02*
X0514924Y0191093D01*
X0519277Y0191093D02*
X0519677Y0191093D01*
X0519677Y0189495D02*
X0519277Y0189495D01*
X0519277Y0192692D02*
X0519677Y0192692D01*
X0519677Y0194290D02*
X0519277Y0194290D01*
X0519677Y0195889D02*
X0524877Y0195889D01*
X0524877Y0197487D02*
X0524277Y0197487D01*
X0524277Y0199086D02*
X0524877Y0199086D01*
X0524877Y0199809D02*
X0524877Y0191979D01*
X0525577Y0190289D01*
X0526871Y0188995D01*
X0528562Y0188294D01*
X0530392Y0188294D01*
X0532083Y0188995D01*
X0533377Y0190289D01*
X0534077Y0191979D01*
X0534077Y0199809D01*
X0533377Y0201500D01*
X0532083Y0202794D01*
X0530392Y0203494D01*
X0528562Y0203494D01*
X0526871Y0202794D01*
X0525577Y0201500D01*
X0524877Y0199809D01*
X0525240Y0200684D02*
X0523943Y0200684D01*
X0522877Y0202283D02*
X0526360Y0202283D01*
X0532594Y0202283D02*
X0536360Y0202283D01*
X0535240Y0200684D02*
X0533715Y0200684D01*
X0534077Y0199086D02*
X0534877Y0199086D01*
X0534877Y0197487D02*
X0534077Y0197487D01*
X0534077Y0195889D02*
X0534877Y0195889D01*
X0534877Y0194290D02*
X0534077Y0194290D01*
X0534077Y0192692D02*
X0534877Y0192692D01*
X0535244Y0191093D02*
X0533710Y0191093D01*
X0532583Y0189495D02*
X0536372Y0189495D01*
X0542583Y0189495D02*
X0546372Y0189495D01*
X0546871Y0188995D02*
X0548562Y0188294D01*
X0550392Y0188294D01*
X0552083Y0188995D01*
X0553377Y0190289D01*
X0554077Y0191979D01*
X0554077Y0199809D01*
X0553377Y0201500D01*
X0552083Y0202794D01*
X0550392Y0203494D01*
X0548562Y0203494D01*
X0546871Y0202794D01*
X0545577Y0201500D01*
X0544877Y0199809D01*
X0544877Y0191979D01*
X0545577Y0190289D01*
X0546871Y0188995D01*
X0545244Y0191093D02*
X0543710Y0191093D01*
X0544077Y0192692D02*
X0544877Y0192692D01*
X0544877Y0194290D02*
X0544077Y0194290D01*
X0544077Y0195889D02*
X0544877Y0195889D01*
X0544877Y0197487D02*
X0544077Y0197487D01*
X0544077Y0199086D02*
X0544877Y0199086D01*
X0545240Y0200684D02*
X0543715Y0200684D01*
X0542594Y0202283D02*
X0546360Y0202283D01*
X0541498Y0203881D02*
X0564766Y0203881D01*
X0564783Y0203888D02*
X0563092Y0203188D01*
X0561798Y0201894D01*
X0561098Y0200203D01*
X0561098Y0192373D01*
X0561798Y0190682D01*
X0563092Y0189388D01*
X0564783Y0188688D01*
X0566613Y0188688D01*
X0568303Y0189388D01*
X0569597Y0190682D01*
X0570298Y0192373D01*
X0570298Y0200203D01*
X0569597Y0201894D01*
X0568303Y0203188D01*
X0566613Y0203888D01*
X0564783Y0203888D01*
X0566629Y0203881D02*
X0574301Y0203881D01*
X0574574Y0203970D02*
X0573855Y0203737D01*
X0573182Y0203394D01*
X0572571Y0202949D01*
X0572036Y0202415D01*
X0571592Y0201804D01*
X0571249Y0201131D01*
X0571016Y0200412D01*
X0570898Y0199666D01*
X0570898Y0196488D01*
X0575498Y0196488D01*
X0575498Y0204088D01*
X0575320Y0204088D01*
X0574574Y0203970D01*
X0575498Y0203881D02*
X0575898Y0203881D01*
X0575898Y0204088D02*
X0575898Y0196488D01*
X0580498Y0196488D01*
X0580498Y0199666D01*
X0580379Y0200412D01*
X0580146Y0201131D01*
X0579803Y0201804D01*
X0579359Y0202415D01*
X0578825Y0202949D01*
X0578213Y0203394D01*
X0577540Y0203737D01*
X0576822Y0203970D01*
X0576075Y0204088D01*
X0575898Y0204088D01*
X0577095Y0203881D02*
X0637945Y0203881D01*
X0637945Y0202283D02*
X0579455Y0202283D01*
X0580291Y0200684D02*
X0637945Y0200684D01*
X0637945Y0199086D02*
X0580498Y0199086D01*
X0580498Y0197487D02*
X0637945Y0197487D01*
X0637945Y0195889D02*
X0580498Y0195889D01*
X0580498Y0196088D02*
X0575898Y0196088D01*
X0575898Y0196488D01*
X0575498Y0196488D01*
X0575498Y0196088D01*
X0575898Y0196088D01*
X0575898Y0188488D01*
X0576075Y0188488D01*
X0576822Y0188606D01*
X0577540Y0188840D01*
X0578213Y0189183D01*
X0578825Y0189627D01*
X0579359Y0190161D01*
X0579803Y0190772D01*
X0580146Y0191446D01*
X0580379Y0192164D01*
X0580498Y0192910D01*
X0580498Y0196088D01*
X0580498Y0194290D02*
X0637945Y0194290D01*
X0637945Y0192692D02*
X0580463Y0192692D01*
X0579966Y0191093D02*
X0637945Y0191093D01*
X0637945Y0189495D02*
X0578643Y0189495D01*
X0575898Y0189495D02*
X0575498Y0189495D01*
X0575498Y0188488D02*
X0575498Y0196088D01*
X0570898Y0196088D01*
X0570898Y0192910D01*
X0571016Y0192164D01*
X0571249Y0191446D01*
X0571592Y0190772D01*
X0572036Y0190161D01*
X0572571Y0189627D01*
X0573182Y0189183D01*
X0573855Y0188840D01*
X0574574Y0188606D01*
X0575320Y0188488D01*
X0575498Y0188488D01*
X0575498Y0191093D02*
X0575898Y0191093D01*
X0575898Y0192692D02*
X0575498Y0192692D01*
X0575498Y0194290D02*
X0575898Y0194290D01*
X0575898Y0195889D02*
X0575498Y0195889D01*
X0575498Y0197487D02*
X0575898Y0197487D01*
X0575898Y0199086D02*
X0575498Y0199086D01*
X0575498Y0200684D02*
X0575898Y0200684D01*
X0575898Y0202283D02*
X0575498Y0202283D01*
X0571940Y0202283D02*
X0569208Y0202283D01*
X0570098Y0200684D02*
X0571104Y0200684D01*
X0570898Y0199086D02*
X0570298Y0199086D01*
X0570298Y0197487D02*
X0570898Y0197487D01*
X0570898Y0195889D02*
X0570298Y0195889D01*
X0570298Y0194290D02*
X0570898Y0194290D01*
X0570932Y0192692D02*
X0570298Y0192692D01*
X0569767Y0191093D02*
X0571429Y0191093D01*
X0572753Y0189495D02*
X0568410Y0189495D01*
X0562986Y0189495D02*
X0552583Y0189495D01*
X0553710Y0191093D02*
X0561628Y0191093D01*
X0561098Y0192692D02*
X0554077Y0192692D01*
X0554077Y0194290D02*
X0561098Y0194290D01*
X0561098Y0195889D02*
X0554077Y0195889D01*
X0554077Y0197487D02*
X0561098Y0197487D01*
X0561098Y0199086D02*
X0554077Y0199086D01*
X0553715Y0200684D02*
X0561297Y0200684D01*
X0562187Y0202283D02*
X0552594Y0202283D01*
X0541498Y0205480D02*
X0637945Y0205480D01*
X0637945Y0207078D02*
X0541498Y0207078D01*
X0541498Y0208677D02*
X0637945Y0208677D01*
X0637945Y0210275D02*
X0541498Y0210275D01*
X0541498Y0211874D02*
X0637945Y0211874D01*
X0637945Y0213472D02*
X0541498Y0213472D01*
X0541498Y0215071D02*
X0637945Y0215071D01*
X0637945Y0216669D02*
X0541498Y0216669D01*
X0541498Y0218268D02*
X0637945Y0218268D01*
X0637945Y0219866D02*
X0541498Y0219866D01*
X0541498Y0221465D02*
X0637945Y0221465D01*
X0637945Y0223063D02*
X0541498Y0223063D01*
X0541498Y0224662D02*
X0637945Y0224662D01*
X0637945Y0226260D02*
X0541498Y0226260D01*
X0541498Y0227859D02*
X0637945Y0227859D01*
X0637945Y0229457D02*
X0541498Y0229457D01*
X0541498Y0231056D02*
X0637945Y0231056D01*
X0637945Y0232654D02*
X0541498Y0232654D01*
X0541498Y0234253D02*
X0637945Y0234253D01*
X0637945Y0235852D02*
X0540403Y0235852D01*
X0538805Y0237450D02*
X0637945Y0237450D01*
X0637945Y0239049D02*
X0537206Y0239049D01*
X0541506Y0242246D02*
X0544142Y0242246D01*
X0543214Y0243844D02*
X0542433Y0243844D01*
X0542701Y0245443D02*
X0542946Y0245443D01*
X0543199Y0247041D02*
X0542449Y0247041D01*
X0541543Y0248640D02*
X0544104Y0248640D01*
X0546610Y0250238D02*
X0539037Y0250238D01*
X0538190Y0258231D02*
X0525866Y0258231D01*
X0527464Y0259829D02*
X0537767Y0259829D01*
X0537351Y0261428D02*
X0529063Y0261428D01*
X0530661Y0263026D02*
X0536420Y0263026D01*
X0536420Y0264625D02*
X0532260Y0264625D01*
X0533858Y0266223D02*
X0536420Y0266223D01*
X0536420Y0267822D02*
X0535457Y0267822D01*
X0532714Y0271019D02*
X0454500Y0271019D01*
X0454346Y0269420D02*
X0531116Y0269420D01*
X0529517Y0267822D02*
X0453425Y0267822D01*
X0449471Y0266223D02*
X0527919Y0266223D01*
X0526320Y0264625D02*
X0449471Y0264625D01*
X0449471Y0263026D02*
X0524722Y0263026D01*
X0523123Y0261428D02*
X0449471Y0261428D01*
X0449471Y0259829D02*
X0521525Y0259829D01*
X0519926Y0258231D02*
X0449471Y0258231D01*
X0449471Y0256632D02*
X0518328Y0256632D01*
X0516729Y0255034D02*
X0449471Y0255034D01*
X0449471Y0253435D02*
X0515131Y0253435D01*
X0513532Y0251837D02*
X0449471Y0251837D01*
X0449471Y0250238D02*
X0511934Y0250238D01*
X0510724Y0248640D02*
X0449471Y0248640D01*
X0449471Y0247041D02*
X0510724Y0247041D01*
X0510724Y0245443D02*
X0449471Y0245443D01*
X0449471Y0243844D02*
X0510724Y0243844D01*
X0510724Y0242246D02*
X0449471Y0242246D01*
X0449471Y0240647D02*
X0510724Y0240647D01*
X0510724Y0239049D02*
X0449471Y0239049D01*
X0449471Y0237450D02*
X0510724Y0237450D01*
X0510724Y0235852D02*
X0449471Y0235852D01*
X0449471Y0234253D02*
X0510724Y0234253D01*
X0510724Y0232654D02*
X0449471Y0232654D01*
X0449471Y0231056D02*
X0510724Y0231056D01*
X0510724Y0229457D02*
X0449471Y0229457D01*
X0449471Y0227859D02*
X0510724Y0227859D01*
X0510724Y0226260D02*
X0449471Y0226260D01*
X0449471Y0224662D02*
X0510724Y0224662D01*
X0510724Y0223063D02*
X0449471Y0223063D01*
X0449471Y0221465D02*
X0510724Y0221465D01*
X0510724Y0219866D02*
X0449471Y0219866D01*
X0449471Y0218268D02*
X0510724Y0218268D01*
X0510724Y0216669D02*
X0449471Y0216669D01*
X0449471Y0215071D02*
X0510724Y0215071D01*
X0510724Y0213472D02*
X0449471Y0213472D01*
X0449471Y0211874D02*
X0510724Y0211874D01*
X0510724Y0210275D02*
X0449471Y0210275D01*
X0449471Y0208677D02*
X0510724Y0208677D01*
X0510724Y0207078D02*
X0449471Y0207078D01*
X0449471Y0205480D02*
X0510724Y0205480D01*
X0510724Y0203881D02*
X0449471Y0203881D01*
X0449471Y0202283D02*
X0510724Y0202283D01*
X0519277Y0202283D02*
X0519677Y0202283D01*
X0519677Y0200684D02*
X0519277Y0200684D01*
X0519277Y0199086D02*
X0519677Y0199086D01*
X0519677Y0197487D02*
X0519277Y0197487D01*
X0524277Y0194290D02*
X0524877Y0194290D01*
X0524877Y0192692D02*
X0524277Y0192692D01*
X0523939Y0191093D02*
X0525244Y0191093D01*
X0526372Y0189495D02*
X0522866Y0189495D01*
X0445271Y0189495D02*
X0311170Y0189495D01*
X0312768Y0187896D02*
X0445271Y0187896D01*
X0445271Y0186298D02*
X0314367Y0186298D01*
X0315965Y0184699D02*
X0445271Y0184699D01*
X0445271Y0183101D02*
X0317564Y0183101D01*
X0319162Y0181502D02*
X0445271Y0181502D01*
X0445271Y0179904D02*
X0320761Y0179904D01*
X0322359Y0178305D02*
X0445271Y0178305D01*
X0445271Y0176707D02*
X0323958Y0176707D01*
X0325556Y0175108D02*
X0445271Y0175108D01*
X0445271Y0173510D02*
X0327155Y0173510D01*
X0328753Y0171911D02*
X0445271Y0171911D01*
X0445271Y0170313D02*
X0330352Y0170313D01*
X0331950Y0168714D02*
X0445271Y0168714D01*
X0445271Y0167116D02*
X0333549Y0167116D01*
X0335147Y0165517D02*
X0445271Y0165517D01*
X0445271Y0163919D02*
X0336746Y0163919D01*
X0338344Y0162320D02*
X0445271Y0162320D01*
X0445271Y0160721D02*
X0339943Y0160721D01*
X0341541Y0159123D02*
X0445271Y0159123D01*
X0445271Y0157524D02*
X0343140Y0157524D01*
X0344738Y0155926D02*
X0445271Y0155926D01*
X0445271Y0154327D02*
X0346337Y0154327D01*
X0347935Y0152729D02*
X0445271Y0152729D01*
X0445271Y0151130D02*
X0349534Y0151130D01*
X0351132Y0149532D02*
X0445271Y0149532D01*
X0445271Y0147933D02*
X0352731Y0147933D01*
X0354329Y0146335D02*
X0445271Y0146335D01*
X0445271Y0144736D02*
X0355928Y0144736D01*
X0357526Y0143138D02*
X0445271Y0143138D01*
X0445271Y0141539D02*
X0359125Y0141539D01*
X0360723Y0139941D02*
X0445271Y0139941D01*
X0444329Y0138342D02*
X0368492Y0138342D01*
X0368030Y0138534D02*
X0366200Y0138534D01*
X0364509Y0137834D01*
X0363670Y0136994D01*
X0264431Y0236233D01*
X0263521Y0237143D01*
X0264705Y0237143D01*
X0265643Y0238081D01*
X0265643Y0244070D01*
X0266543Y0244970D01*
X0266543Y0243543D01*
X0270342Y0243543D01*
X0270342Y0242743D01*
X0266543Y0242743D01*
X0266543Y0238506D01*
X0266665Y0238049D01*
X0266902Y0237638D01*
X0267237Y0237303D01*
X0267648Y0237066D01*
X0268106Y0236943D01*
X0270342Y0236943D01*
X0270342Y0242743D01*
X0271143Y0242743D01*
X0271143Y0243543D01*
X0274943Y0243543D01*
X0274943Y0247780D01*
X0274820Y0248238D01*
X0274658Y0248519D01*
X0277365Y0248519D01*
X0277365Y0247988D01*
X0277742Y0247611D01*
X0277525Y0247393D01*
X0277288Y0246983D01*
X0277165Y0246525D01*
X0277165Y0244307D01*
X0280750Y0244307D01*
X0280750Y0243939D01*
X0280750Y0243938D02*
X0281118Y0243938D01*
X0281118Y0240157D01*
X0283139Y0240157D01*
X0283597Y0240280D01*
X0284008Y0240517D01*
X0284343Y0240852D01*
X0284580Y0241263D01*
X0284702Y0241720D01*
X0284702Y0243939D01*
X0281118Y0243939D01*
X0281118Y0244307D01*
X0284702Y0244307D01*
X0284702Y0246525D01*
X0284580Y0246983D01*
X0284343Y0247393D01*
X0284125Y0247611D01*
X0284502Y0247988D01*
X0284502Y0249011D01*
X0286331Y0249011D01*
X0287561Y0250241D01*
X0298611Y0261291D01*
X0299957Y0261291D01*
X0301280Y0261839D01*
X0302293Y0262851D01*
X0302841Y0264174D01*
X0302841Y0265607D01*
X0302293Y0266930D01*
X0301280Y0267942D01*
X0299957Y0268491D01*
X0298525Y0268491D01*
X0297202Y0267942D01*
X0296189Y0266930D01*
X0295641Y0265607D01*
X0295641Y0264260D01*
X0289280Y0257900D01*
X0289005Y0258564D01*
X0287993Y0259576D01*
X0286670Y0260124D01*
X0285323Y0260124D01*
X0204392Y0341056D01*
X0203162Y0342286D01*
X0151718Y0342286D01*
X0149485Y0340053D01*
X0148794Y0340339D01*
X0146853Y0340339D01*
X0145061Y0339596D01*
X0143689Y0338224D01*
X0142946Y0336432D01*
X0142946Y0334491D01*
X0143689Y0332698D01*
X0145061Y0331326D01*
X0146853Y0330584D01*
X0148794Y0330584D01*
X0150587Y0331326D01*
X0151959Y0332698D01*
X0152701Y0334491D01*
X0152701Y0336432D01*
X0152438Y0337067D01*
X0153457Y0338086D01*
X0153631Y0338086D01*
X0152946Y0336432D01*
X0152946Y0334491D01*
X0153689Y0332698D01*
X0155061Y0331326D01*
X0156853Y0330584D01*
X0158794Y0330584D01*
X0159443Y0330853D01*
X0170665Y0319631D01*
X0170665Y0316458D01*
X0170036Y0316719D01*
X0168604Y0316719D01*
X0167280Y0316171D01*
X0166392Y0315282D01*
X0166392Y0318211D01*
X0165455Y0319148D01*
X0154090Y0319148D01*
X0153153Y0318211D01*
X0153153Y0312231D01*
X0153150Y0312234D01*
X0151827Y0312782D01*
X0150395Y0312782D01*
X0149072Y0312234D01*
X0148059Y0311221D01*
X0147511Y0309898D01*
X0147511Y0308466D01*
X0148059Y0307143D01*
X0149072Y0306130D01*
X0150395Y0305582D01*
X0151827Y0305582D01*
X0153150Y0306130D01*
X0153153Y0306132D01*
X0153153Y0299562D01*
X0154090Y0298625D01*
X0157869Y0298625D01*
X0157869Y0283321D01*
X0154090Y0283321D01*
X0153153Y0282384D01*
X0153153Y0276833D01*
X0121130Y0276833D01*
X0120178Y0277785D01*
X0118855Y0278333D01*
X0117422Y0278333D01*
X0116099Y0277785D01*
X0115087Y0276772D01*
X0114539Y0275449D01*
X0114539Y0274017D01*
X0115087Y0272694D01*
X0116099Y0271681D01*
X0117422Y0271133D01*
X0118855Y0271133D01*
X0120178Y0271681D01*
X0121130Y0272633D01*
X0153153Y0272633D01*
X0153153Y0263736D01*
X0154090Y0262798D01*
X0162289Y0262798D01*
X0161584Y0262093D01*
X0160237Y0262093D01*
X0158914Y0261545D01*
X0157902Y0260532D01*
X0157354Y0259209D01*
X0157354Y0257777D01*
X0157902Y0256454D01*
X0158914Y0255441D01*
X0160237Y0254893D01*
X0161670Y0254893D01*
X0162993Y0255441D01*
X0164005Y0256454D01*
X0164554Y0257777D01*
X0164554Y0259123D01*
X0170190Y0264759D01*
X0170665Y0265234D01*
X0170665Y0249518D01*
X0170587Y0249596D01*
X0168794Y0250339D01*
X0166853Y0250339D01*
X0165061Y0249596D01*
X0163689Y0248224D01*
X0162946Y0246432D01*
X0162946Y0244491D01*
X0163689Y0242698D01*
X0165061Y0241326D01*
X0166853Y0240584D01*
X0168794Y0240584D01*
X0170587Y0241326D01*
X0171392Y0242132D01*
X0171895Y0241629D01*
X0292466Y0121058D01*
X0339481Y0121058D01*
X0340711Y0122288D01*
X0343483Y0125060D01*
X0344509Y0124034D01*
X0346200Y0123334D01*
X0348030Y0123334D01*
X0349721Y0124034D01*
X0351015Y0125328D01*
X0351715Y0127019D01*
X0351715Y0134849D01*
X0351015Y0136540D01*
X0349721Y0137834D01*
X0348030Y0138534D01*
X0346200Y0138534D01*
X0344509Y0137834D01*
X0343215Y0136540D01*
X0342515Y0134849D01*
X0342515Y0130032D01*
X0341715Y0129232D01*
X0341715Y0134849D01*
X0341015Y0136540D01*
X0339721Y0137834D01*
X0338030Y0138534D01*
X0336200Y0138534D01*
X0334509Y0137834D01*
X0333215Y0136540D01*
X0332515Y0134849D01*
X0332515Y0127019D01*
X0333215Y0125328D01*
X0333285Y0125258D01*
X0330945Y0125258D01*
X0331015Y0125328D01*
X0331715Y0127019D01*
X0331715Y0134849D01*
X0331015Y0136540D01*
X0329721Y0137834D01*
X0328030Y0138534D01*
X0326200Y0138534D01*
X0324509Y0137834D01*
X0323215Y0136540D01*
X0322515Y0134849D01*
X0322515Y0127019D01*
X0323215Y0125328D01*
X0323285Y0125258D01*
X0320945Y0125258D01*
X0321015Y0125328D01*
X0321715Y0127019D01*
X0321715Y0134849D01*
X0321015Y0136540D01*
X0319721Y0137834D01*
X0318030Y0138534D01*
X0316200Y0138534D01*
X0314509Y0137834D01*
X0313215Y0136540D01*
X0312515Y0134849D01*
X0312515Y0127019D01*
X0313215Y0125328D01*
X0313285Y0125258D01*
X0310945Y0125258D01*
X0311015Y0125328D01*
X0311715Y0127019D01*
X0311715Y0134849D01*
X0311015Y0136540D01*
X0309721Y0137834D01*
X0308030Y0138534D01*
X0306200Y0138534D01*
X0304509Y0137834D01*
X0303215Y0136540D01*
X0302515Y0134849D01*
X0302515Y0127019D01*
X0303215Y0125328D01*
X0303285Y0125258D01*
X0300945Y0125258D01*
X0301015Y0125328D01*
X0301715Y0127019D01*
X0301715Y0134849D01*
X0301015Y0136540D01*
X0299721Y0137834D01*
X0298030Y0138534D01*
X0296200Y0138534D01*
X0294509Y0137834D01*
X0293215Y0136540D01*
X0292515Y0134849D01*
X0292515Y0133838D01*
X0185769Y0240584D01*
X0189672Y0240584D01*
X0196993Y0233263D01*
X0261462Y0233263D01*
X0356093Y0138632D01*
X0355991Y0138616D01*
X0355272Y0138382D01*
X0354599Y0138039D01*
X0353988Y0137595D01*
X0353454Y0137061D01*
X0353010Y0136450D01*
X0352667Y0135776D01*
X0352433Y0135058D01*
X0352315Y0134312D01*
X0352315Y0131134D01*
X0356915Y0131134D01*
X0356915Y0130734D01*
X0352315Y0130734D01*
X0352315Y0127556D01*
X0352433Y0126810D01*
X0352667Y0126091D01*
X0353010Y0125418D01*
X0353454Y0124807D01*
X0353988Y0124273D01*
X0354599Y0123829D01*
X0355272Y0123486D01*
X0355991Y0123252D01*
X0356737Y0123134D01*
X0356915Y0123134D01*
X0356915Y0130734D01*
X0357315Y0130734D01*
X0357315Y0131134D01*
X0361915Y0131134D01*
X0361915Y0132810D01*
X0362515Y0132210D01*
X0362515Y0127019D01*
X0363215Y0125328D01*
X0364509Y0124034D01*
X0366200Y0123334D01*
X0368030Y0123334D01*
X0369721Y0124034D01*
X0371015Y0125328D01*
X0371715Y0127019D01*
X0371715Y0134849D01*
X0371015Y0136540D01*
X0369721Y0137834D01*
X0368030Y0138534D01*
X0365738Y0138342D02*
X0362322Y0138342D01*
X0362515Y0131948D02*
X0361915Y0131948D01*
X0361915Y0130734D02*
X0357315Y0130734D01*
X0357315Y0123134D01*
X0357493Y0123134D01*
X0358239Y0123252D01*
X0358958Y0123486D01*
X0359631Y0123829D01*
X0360242Y0124273D01*
X0360776Y0124807D01*
X0361220Y0125418D01*
X0361563Y0126091D01*
X0361797Y0126810D01*
X0361915Y0127556D01*
X0361915Y0130734D01*
X0361915Y0130350D02*
X0362515Y0130350D01*
X0362515Y0128751D02*
X0361915Y0128751D01*
X0361851Y0127153D02*
X0362515Y0127153D01*
X0363122Y0125554D02*
X0361290Y0125554D01*
X0359806Y0123956D02*
X0364699Y0123956D01*
X0369531Y0123956D02*
X0429943Y0123956D01*
X0431541Y0125554D02*
X0371108Y0125554D01*
X0371715Y0127153D02*
X0433140Y0127153D01*
X0434738Y0128751D02*
X0371715Y0128751D01*
X0371715Y0130350D02*
X0436337Y0130350D01*
X0437935Y0131948D02*
X0371715Y0131948D01*
X0371715Y0133547D02*
X0439534Y0133547D01*
X0441132Y0135145D02*
X0371592Y0135145D01*
X0370810Y0136744D02*
X0442731Y0136744D01*
X0428344Y0122357D02*
X0340780Y0122357D01*
X0342378Y0123956D02*
X0344699Y0123956D01*
X0349531Y0123956D02*
X0354424Y0123956D01*
X0352940Y0125554D02*
X0351108Y0125554D01*
X0351715Y0127153D02*
X0352379Y0127153D01*
X0352315Y0128751D02*
X0351715Y0128751D01*
X0351715Y0130350D02*
X0352315Y0130350D01*
X0352315Y0131948D02*
X0351715Y0131948D01*
X0351715Y0133547D02*
X0352315Y0133547D01*
X0352462Y0135145D02*
X0351592Y0135145D01*
X0350810Y0136744D02*
X0353223Y0136744D01*
X0355194Y0138342D02*
X0348492Y0138342D01*
X0345738Y0138342D02*
X0338492Y0138342D01*
X0335738Y0138342D02*
X0328492Y0138342D01*
X0325738Y0138342D02*
X0318492Y0138342D01*
X0315738Y0138342D02*
X0308492Y0138342D01*
X0305738Y0138342D02*
X0298492Y0138342D01*
X0295738Y0138342D02*
X0288011Y0138342D01*
X0289609Y0136744D02*
X0293420Y0136744D01*
X0292638Y0135145D02*
X0291208Y0135145D01*
X0286412Y0139941D02*
X0354784Y0139941D01*
X0353185Y0141539D02*
X0284814Y0141539D01*
X0283215Y0143138D02*
X0351587Y0143138D01*
X0349988Y0144736D02*
X0281617Y0144736D01*
X0280018Y0146335D02*
X0348390Y0146335D01*
X0346791Y0147933D02*
X0278420Y0147933D01*
X0276821Y0149532D02*
X0345193Y0149532D01*
X0343594Y0151130D02*
X0275223Y0151130D01*
X0273624Y0152729D02*
X0341996Y0152729D01*
X0340397Y0154327D02*
X0272026Y0154327D01*
X0270427Y0155926D02*
X0338799Y0155926D01*
X0337200Y0157524D02*
X0268829Y0157524D01*
X0267230Y0159123D02*
X0335602Y0159123D01*
X0334003Y0160721D02*
X0265632Y0160721D01*
X0264033Y0162320D02*
X0332405Y0162320D01*
X0330806Y0163919D02*
X0262435Y0163919D01*
X0260836Y0165517D02*
X0329208Y0165517D01*
X0327609Y0167116D02*
X0259238Y0167116D01*
X0257639Y0168714D02*
X0326011Y0168714D01*
X0324412Y0170313D02*
X0256041Y0170313D01*
X0254442Y0171911D02*
X0322814Y0171911D01*
X0321215Y0173510D02*
X0252844Y0173510D01*
X0251245Y0175108D02*
X0319617Y0175108D01*
X0318018Y0176707D02*
X0249647Y0176707D01*
X0248048Y0178305D02*
X0316420Y0178305D01*
X0314821Y0179904D02*
X0246450Y0179904D01*
X0244851Y0181502D02*
X0313223Y0181502D01*
X0311624Y0183101D02*
X0243253Y0183101D01*
X0241654Y0184699D02*
X0310025Y0184699D01*
X0308427Y0186298D02*
X0240056Y0186298D01*
X0238457Y0187896D02*
X0306828Y0187896D01*
X0305230Y0189495D02*
X0236859Y0189495D01*
X0235260Y0191093D02*
X0303631Y0191093D01*
X0302033Y0192692D02*
X0233662Y0192692D01*
X0232063Y0194290D02*
X0300434Y0194290D01*
X0298836Y0195889D02*
X0230465Y0195889D01*
X0228866Y0197487D02*
X0297237Y0197487D01*
X0295639Y0199086D02*
X0227268Y0199086D01*
X0225669Y0200684D02*
X0294040Y0200684D01*
X0292442Y0202283D02*
X0224071Y0202283D01*
X0222472Y0203881D02*
X0290843Y0203881D01*
X0289245Y0205480D02*
X0220873Y0205480D01*
X0219275Y0207078D02*
X0287646Y0207078D01*
X0286048Y0208677D02*
X0217676Y0208677D01*
X0216078Y0210275D02*
X0284449Y0210275D01*
X0282851Y0211874D02*
X0214479Y0211874D01*
X0212881Y0213472D02*
X0281252Y0213472D01*
X0279654Y0215071D02*
X0211282Y0215071D01*
X0209684Y0216669D02*
X0278055Y0216669D01*
X0276457Y0218268D02*
X0208085Y0218268D01*
X0206487Y0219866D02*
X0274858Y0219866D01*
X0273260Y0221465D02*
X0204888Y0221465D01*
X0203290Y0223063D02*
X0271661Y0223063D01*
X0270063Y0224662D02*
X0201691Y0224662D01*
X0200093Y0226260D02*
X0268464Y0226260D01*
X0266866Y0227859D02*
X0198494Y0227859D01*
X0196896Y0229457D02*
X0265267Y0229457D01*
X0263669Y0231056D02*
X0195297Y0231056D01*
X0193699Y0232654D02*
X0262070Y0232654D01*
X0264813Y0235852D02*
X0302953Y0235852D01*
X0302953Y0235955D02*
X0302953Y0235671D01*
X0332496Y0235671D01*
X0332496Y0265214D01*
X0332212Y0265214D01*
X0330050Y0265060D01*
X0327905Y0264751D01*
X0325787Y0264290D01*
X0323708Y0263680D01*
X0321677Y0262922D01*
X0319705Y0262022D01*
X0317803Y0260983D01*
X0315980Y0259811D01*
X0314244Y0258512D01*
X0312606Y0257093D01*
X0311074Y0255561D01*
X0309654Y0253922D01*
X0308356Y0252187D01*
X0307184Y0250364D01*
X0306145Y0248462D01*
X0305245Y0246490D01*
X0304487Y0244459D01*
X0303877Y0242380D01*
X0303416Y0240262D01*
X0303107Y0238116D01*
X0302953Y0235955D01*
X0303060Y0237450D02*
X0274395Y0237450D01*
X0274248Y0237303D02*
X0274583Y0237638D01*
X0274820Y0238049D01*
X0274943Y0238506D01*
X0274943Y0242743D01*
X0271143Y0242743D01*
X0271143Y0236943D01*
X0273379Y0236943D01*
X0273837Y0237066D01*
X0274248Y0237303D01*
X0274943Y0239049D02*
X0303241Y0239049D01*
X0303500Y0240647D02*
X0284138Y0240647D01*
X0284702Y0242246D02*
X0303847Y0242246D01*
X0304307Y0243844D02*
X0284702Y0243844D01*
X0284702Y0245443D02*
X0304854Y0245443D01*
X0305496Y0247041D02*
X0284546Y0247041D01*
X0284502Y0248640D02*
X0306242Y0248640D01*
X0307115Y0250238D02*
X0287558Y0250238D01*
X0289157Y0251837D02*
X0308130Y0251837D01*
X0309290Y0253435D02*
X0290755Y0253435D01*
X0292354Y0255034D02*
X0310617Y0255034D01*
X0312145Y0256632D02*
X0293952Y0256632D01*
X0295551Y0258231D02*
X0313919Y0258231D01*
X0316007Y0259829D02*
X0297149Y0259829D01*
X0300288Y0261428D02*
X0318617Y0261428D01*
X0321955Y0263026D02*
X0302365Y0263026D01*
X0302841Y0264625D02*
X0327324Y0264625D01*
X0332496Y0264625D02*
X0334096Y0264625D01*
X0334096Y0265214D02*
X0334096Y0235671D01*
X0332496Y0235671D01*
X0332496Y0234071D01*
X0302953Y0234071D01*
X0302953Y0233787D01*
X0303107Y0231625D01*
X0303416Y0229480D01*
X0303877Y0227362D01*
X0304487Y0225282D01*
X0305245Y0223252D01*
X0306145Y0221280D01*
X0307184Y0219378D01*
X0308356Y0217554D01*
X0309654Y0215819D01*
X0311074Y0214181D01*
X0312606Y0212649D01*
X0314244Y0211229D01*
X0315980Y0209930D01*
X0317803Y0208759D01*
X0319705Y0207720D01*
X0321677Y0206819D01*
X0323708Y0206062D01*
X0325787Y0205451D01*
X0327905Y0204991D01*
X0330050Y0204682D01*
X0332212Y0204528D01*
X0332496Y0204528D01*
X0332496Y0234071D01*
X0334096Y0234071D01*
X0334096Y0235671D01*
X0363639Y0235671D01*
X0363639Y0235955D01*
X0363608Y0236391D01*
X0363696Y0236302D01*
X0372896Y0236302D01*
X0373833Y0237240D01*
X0373833Y0242502D01*
X0372896Y0243439D01*
X0369922Y0243439D01*
X0369008Y0244353D01*
X0341203Y0272158D01*
X0339973Y0273388D01*
X0304647Y0273388D01*
X0305682Y0273986D01*
X0307078Y0274963D01*
X0308384Y0276059D01*
X0309589Y0277264D01*
X0310684Y0278569D01*
X0311662Y0279965D01*
X0312514Y0281441D01*
X0313234Y0282986D01*
X0313817Y0284587D01*
X0314258Y0286233D01*
X0314554Y0287912D01*
X0314702Y0289609D01*
X0314702Y0289661D01*
X0295986Y0289661D01*
X0295986Y0291261D01*
X0314702Y0291261D01*
X0314702Y0291314D01*
X0314554Y0293011D01*
X0314258Y0294690D01*
X0313817Y0296336D01*
X0313234Y0297937D01*
X0312514Y0299482D01*
X0311662Y0300958D01*
X0310684Y0302354D01*
X0309589Y0303659D01*
X0308384Y0304864D01*
X0307078Y0305960D01*
X0305682Y0306937D01*
X0304206Y0307789D01*
X0302662Y0308510D01*
X0301060Y0309092D01*
X0299414Y0309533D01*
X0297736Y0309829D01*
X0296038Y0309978D01*
X0295986Y0309978D01*
X0295986Y0291261D01*
X0294386Y0291261D01*
X0294386Y0309978D01*
X0294334Y0309978D01*
X0292636Y0309829D01*
X0290958Y0309533D01*
X0289311Y0309092D01*
X0287710Y0308510D01*
X0286166Y0307789D01*
X0285617Y0307472D01*
X0285617Y0307844D01*
X0287697Y0309924D01*
X0292817Y0309924D01*
X0293754Y0310862D01*
X0293754Y0320061D01*
X0292817Y0320998D01*
X0287555Y0320998D01*
X0286617Y0320061D01*
X0286617Y0314784D01*
X0282647Y0310813D01*
X0281300Y0310813D01*
X0279977Y0310265D01*
X0278965Y0309253D01*
X0278417Y0307929D01*
X0278417Y0306497D01*
X0278536Y0306210D01*
X0274011Y0301686D01*
X0274011Y0281737D01*
X0275241Y0280507D01*
X0286560Y0269188D01*
X0338233Y0269188D01*
X0344252Y0263170D01*
X0342885Y0263680D01*
X0340805Y0264290D01*
X0338687Y0264751D01*
X0336542Y0265060D01*
X0334380Y0265214D01*
X0334096Y0265214D01*
X0334096Y0263026D02*
X0332496Y0263026D01*
X0332496Y0261428D02*
X0334096Y0261428D01*
X0334096Y0259829D02*
X0332496Y0259829D01*
X0332496Y0258231D02*
X0334096Y0258231D01*
X0334096Y0256632D02*
X0332496Y0256632D01*
X0332496Y0255034D02*
X0334096Y0255034D01*
X0334096Y0253435D02*
X0332496Y0253435D01*
X0332496Y0251837D02*
X0334096Y0251837D01*
X0334096Y0250238D02*
X0332496Y0250238D01*
X0332496Y0248640D02*
X0334096Y0248640D01*
X0334096Y0247041D02*
X0332496Y0247041D01*
X0332496Y0245443D02*
X0334096Y0245443D01*
X0334096Y0243844D02*
X0332496Y0243844D01*
X0332496Y0242246D02*
X0334096Y0242246D01*
X0334096Y0240647D02*
X0332496Y0240647D01*
X0332496Y0239049D02*
X0334096Y0239049D01*
X0334096Y0237450D02*
X0332496Y0237450D01*
X0332496Y0235852D02*
X0334096Y0235852D01*
X0334096Y0234253D02*
X0445271Y0234253D01*
X0445271Y0235852D02*
X0363639Y0235852D01*
X0363639Y0234071D02*
X0334096Y0234071D01*
X0334096Y0204528D01*
X0334380Y0204528D01*
X0336542Y0204682D01*
X0338687Y0204991D01*
X0340805Y0205451D01*
X0342885Y0206062D01*
X0344915Y0206819D01*
X0346887Y0207720D01*
X0348789Y0208759D01*
X0350613Y0209930D01*
X0352348Y0211229D01*
X0353986Y0212649D01*
X0355518Y0214181D01*
X0356938Y0215819D01*
X0358237Y0217554D01*
X0359408Y0219378D01*
X0360447Y0221280D01*
X0361347Y0223252D01*
X0362105Y0225282D01*
X0362559Y0226829D01*
X0362559Y0225055D01*
X0368112Y0225055D01*
X0368112Y0228639D01*
X0364122Y0228639D01*
X0363664Y0228517D01*
X0363254Y0228280D01*
X0362919Y0227945D01*
X0362796Y0227732D01*
X0363176Y0229480D01*
X0363485Y0231625D01*
X0363639Y0233787D01*
X0363639Y0234071D01*
X0363558Y0232654D02*
X0445271Y0232654D01*
X0445271Y0231056D02*
X0363403Y0231056D01*
X0363171Y0229457D02*
X0445271Y0229457D01*
X0445271Y0227859D02*
X0373723Y0227859D01*
X0373673Y0227945D02*
X0373338Y0228280D01*
X0372928Y0228517D01*
X0372470Y0228639D01*
X0368480Y0228639D01*
X0368480Y0225055D01*
X0368112Y0225055D01*
X0368112Y0224687D01*
X0362559Y0224687D01*
X0362559Y0222665D01*
X0362682Y0222208D01*
X0362919Y0221797D01*
X0363254Y0221462D01*
X0363664Y0221225D01*
X0364122Y0221102D01*
X0368112Y0221102D01*
X0368112Y0224687D01*
X0368480Y0224687D01*
X0368480Y0225055D01*
X0374033Y0225055D01*
X0374033Y0227076D01*
X0373910Y0227534D01*
X0373673Y0227945D01*
X0374033Y0226260D02*
X0445271Y0226260D01*
X0445271Y0224662D02*
X0374033Y0224662D01*
X0374033Y0224687D02*
X0368480Y0224687D01*
X0368480Y0221102D01*
X0372470Y0221102D01*
X0372928Y0221225D01*
X0373338Y0221462D01*
X0373673Y0221797D01*
X0373910Y0222208D01*
X0374033Y0222665D01*
X0374033Y0224687D01*
X0374033Y0223063D02*
X0445271Y0223063D01*
X0445271Y0221465D02*
X0373341Y0221465D01*
X0368480Y0221465D02*
X0368112Y0221465D01*
X0368112Y0223063D02*
X0368480Y0223063D01*
X0368480Y0224662D02*
X0368112Y0224662D01*
X0368112Y0226260D02*
X0368480Y0226260D01*
X0368480Y0227859D02*
X0368112Y0227859D01*
X0362869Y0227859D02*
X0362824Y0227859D01*
X0362559Y0226260D02*
X0362392Y0226260D01*
X0362559Y0224662D02*
X0361874Y0224662D01*
X0361262Y0223063D02*
X0362559Y0223063D01*
X0363251Y0221465D02*
X0360532Y0221465D01*
X0359675Y0219866D02*
X0445271Y0219866D01*
X0445271Y0218268D02*
X0358695Y0218268D01*
X0357574Y0216669D02*
X0445271Y0216669D01*
X0445271Y0215071D02*
X0356289Y0215071D01*
X0354809Y0213472D02*
X0445271Y0213472D01*
X0445271Y0211874D02*
X0353092Y0211874D01*
X0351073Y0210275D02*
X0445271Y0210275D01*
X0445271Y0208677D02*
X0348640Y0208677D01*
X0345482Y0207078D02*
X0445271Y0207078D01*
X0445271Y0205480D02*
X0340902Y0205480D01*
X0334096Y0205480D02*
X0332496Y0205480D01*
X0332496Y0207078D02*
X0334096Y0207078D01*
X0334096Y0208677D02*
X0332496Y0208677D01*
X0332496Y0210275D02*
X0334096Y0210275D01*
X0334096Y0211874D02*
X0332496Y0211874D01*
X0332496Y0213472D02*
X0334096Y0213472D01*
X0334096Y0215071D02*
X0332496Y0215071D01*
X0332496Y0216669D02*
X0334096Y0216669D01*
X0334096Y0218268D02*
X0332496Y0218268D01*
X0332496Y0219866D02*
X0334096Y0219866D01*
X0334096Y0221465D02*
X0332496Y0221465D01*
X0332496Y0223063D02*
X0334096Y0223063D01*
X0334096Y0224662D02*
X0332496Y0224662D01*
X0332496Y0226260D02*
X0334096Y0226260D01*
X0334096Y0227859D02*
X0332496Y0227859D01*
X0332496Y0229457D02*
X0334096Y0229457D01*
X0334096Y0231056D02*
X0332496Y0231056D01*
X0332496Y0232654D02*
X0334096Y0232654D01*
X0332496Y0234253D02*
X0266411Y0234253D01*
X0268010Y0232654D02*
X0303034Y0232654D01*
X0303189Y0231056D02*
X0269608Y0231056D01*
X0271207Y0229457D02*
X0303421Y0229457D01*
X0303768Y0227859D02*
X0272805Y0227859D01*
X0274404Y0226260D02*
X0304200Y0226260D01*
X0304719Y0224662D02*
X0276002Y0224662D01*
X0277601Y0223063D02*
X0305331Y0223063D01*
X0306061Y0221465D02*
X0279199Y0221465D01*
X0280798Y0219866D02*
X0306917Y0219866D01*
X0307897Y0218268D02*
X0282396Y0218268D01*
X0283995Y0216669D02*
X0309018Y0216669D01*
X0310303Y0215071D02*
X0285593Y0215071D01*
X0287192Y0213472D02*
X0311783Y0213472D01*
X0313501Y0211874D02*
X0288790Y0211874D01*
X0290389Y0210275D02*
X0315519Y0210275D01*
X0317953Y0208677D02*
X0291988Y0208677D01*
X0293586Y0207078D02*
X0321110Y0207078D01*
X0325690Y0205480D02*
X0295185Y0205480D01*
X0296783Y0203881D02*
X0445271Y0203881D01*
X0445271Y0202283D02*
X0298382Y0202283D01*
X0299980Y0200684D02*
X0445271Y0200684D01*
X0445271Y0199086D02*
X0301579Y0199086D01*
X0303177Y0197487D02*
X0445271Y0197487D01*
X0445271Y0195889D02*
X0304776Y0195889D01*
X0306374Y0194290D02*
X0445271Y0194290D01*
X0445271Y0192692D02*
X0307973Y0192692D01*
X0309571Y0191093D02*
X0445271Y0191093D01*
X0445271Y0237450D02*
X0373833Y0237450D01*
X0373833Y0239049D02*
X0445271Y0239049D01*
X0445271Y0240647D02*
X0373833Y0240647D01*
X0373833Y0242246D02*
X0445271Y0242246D01*
X0445271Y0243844D02*
X0369517Y0243844D01*
X0369008Y0244353D02*
X0369008Y0244353D01*
X0367919Y0245443D02*
X0445271Y0245443D01*
X0445271Y0247041D02*
X0366320Y0247041D01*
X0364722Y0248640D02*
X0445271Y0248640D01*
X0445271Y0250238D02*
X0363123Y0250238D01*
X0361525Y0251837D02*
X0445271Y0251837D01*
X0445271Y0253435D02*
X0359926Y0253435D01*
X0358328Y0255034D02*
X0445271Y0255034D01*
X0445271Y0256632D02*
X0356729Y0256632D01*
X0355130Y0258231D02*
X0445271Y0258231D01*
X0445271Y0259829D02*
X0353532Y0259829D01*
X0351933Y0261428D02*
X0445271Y0261428D01*
X0445271Y0263026D02*
X0350335Y0263026D01*
X0348736Y0264625D02*
X0361345Y0264625D01*
X0361150Y0264820D02*
X0362162Y0263807D01*
X0363485Y0263259D01*
X0364918Y0263259D01*
X0366241Y0263807D01*
X0367253Y0264820D01*
X0367802Y0266143D01*
X0367802Y0267575D01*
X0367253Y0268898D01*
X0366241Y0269911D01*
X0364918Y0270459D01*
X0363571Y0270459D01*
X0362292Y0271739D01*
X0363595Y0271389D01*
X0365274Y0271093D01*
X0366972Y0270945D01*
X0367024Y0270945D01*
X0367024Y0289661D01*
X0368624Y0289661D01*
X0368624Y0291261D01*
X0387340Y0291261D01*
X0387340Y0291314D01*
X0387192Y0293011D01*
X0386896Y0294690D01*
X0386455Y0296336D01*
X0385872Y0297937D01*
X0385151Y0299482D01*
X0384299Y0300958D01*
X0383322Y0302354D01*
X0382226Y0303659D01*
X0381021Y0304864D01*
X0379716Y0305960D01*
X0378320Y0306937D01*
X0376844Y0307789D01*
X0375299Y0308510D01*
X0373698Y0309092D01*
X0372052Y0309533D01*
X0370373Y0309829D01*
X0368676Y0309978D01*
X0368624Y0309978D01*
X0368624Y0291261D01*
X0367024Y0291261D01*
X0367024Y0309978D01*
X0366972Y0309978D01*
X0365274Y0309829D01*
X0363595Y0309533D01*
X0361949Y0309092D01*
X0360348Y0308510D01*
X0358803Y0307789D01*
X0357842Y0307234D01*
X0360532Y0309924D01*
X0365455Y0309924D01*
X0366392Y0310862D01*
X0366392Y0320061D01*
X0365455Y0320998D01*
X0360192Y0320998D01*
X0359255Y0320061D01*
X0359255Y0314587D01*
X0354605Y0309937D01*
X0348609Y0315934D01*
X0348609Y0317280D01*
X0348061Y0318603D01*
X0347048Y0319616D01*
X0345725Y0320164D01*
X0344293Y0320164D01*
X0342969Y0319616D01*
X0341957Y0318603D01*
X0341409Y0317280D01*
X0341409Y0315848D01*
X0341957Y0314525D01*
X0342969Y0313512D01*
X0344293Y0312964D01*
X0345639Y0312964D01*
X0351635Y0306967D01*
X0346354Y0301686D01*
X0346354Y0281737D01*
X0347584Y0280507D01*
X0360602Y0267489D01*
X0360602Y0266143D01*
X0361150Y0264820D01*
X0360602Y0266223D02*
X0347138Y0266223D01*
X0345539Y0267822D02*
X0360269Y0267822D01*
X0358671Y0269420D02*
X0343941Y0269420D01*
X0342342Y0271019D02*
X0357072Y0271019D01*
X0355473Y0272617D02*
X0340744Y0272617D01*
X0341203Y0272158D02*
X0341203Y0272158D01*
X0339600Y0267822D02*
X0301401Y0267822D01*
X0302586Y0266223D02*
X0341198Y0266223D01*
X0342797Y0264625D02*
X0339268Y0264625D01*
X0352276Y0275814D02*
X0308092Y0275814D01*
X0309714Y0277413D02*
X0350678Y0277413D01*
X0349079Y0279011D02*
X0310994Y0279011D01*
X0312034Y0280610D02*
X0347481Y0280610D01*
X0346354Y0282208D02*
X0312871Y0282208D01*
X0313533Y0283807D02*
X0346354Y0283807D01*
X0346354Y0285405D02*
X0314036Y0285405D01*
X0314394Y0287004D02*
X0346354Y0287004D01*
X0346354Y0288602D02*
X0314614Y0288602D01*
X0314660Y0291799D02*
X0346354Y0291799D01*
X0346354Y0290201D02*
X0295986Y0290201D01*
X0295986Y0291799D02*
X0294386Y0291799D01*
X0294386Y0293398D02*
X0295986Y0293398D01*
X0295986Y0294996D02*
X0294386Y0294996D01*
X0294386Y0296595D02*
X0295986Y0296595D01*
X0295986Y0298193D02*
X0294386Y0298193D01*
X0294386Y0299792D02*
X0295986Y0299792D01*
X0295986Y0301390D02*
X0294386Y0301390D01*
X0294386Y0302989D02*
X0295986Y0302989D01*
X0295986Y0304588D02*
X0294386Y0304588D01*
X0294386Y0306186D02*
X0295986Y0306186D01*
X0295986Y0307785D02*
X0294386Y0307785D01*
X0294386Y0309383D02*
X0295986Y0309383D01*
X0293754Y0310982D02*
X0301499Y0310982D01*
X0301540Y0310830D02*
X0301777Y0310419D01*
X0302112Y0310084D01*
X0302523Y0309847D01*
X0302980Y0309724D01*
X0305002Y0309724D01*
X0305002Y0315277D01*
X0305370Y0315277D01*
X0305370Y0309724D01*
X0307391Y0309724D01*
X0307849Y0309847D01*
X0308260Y0310084D01*
X0308595Y0310419D01*
X0308832Y0310830D01*
X0308954Y0311287D01*
X0308954Y0315277D01*
X0305370Y0315277D01*
X0305370Y0315646D01*
X0305002Y0315646D01*
X0305002Y0321198D01*
X0302980Y0321198D01*
X0302523Y0321076D01*
X0302112Y0320839D01*
X0301777Y0320504D01*
X0301540Y0320093D01*
X0301417Y0319635D01*
X0301417Y0315646D01*
X0305001Y0315646D01*
X0305001Y0315277D01*
X0301417Y0315277D01*
X0301417Y0311287D01*
X0301540Y0310830D01*
X0301417Y0312580D02*
X0293754Y0312580D01*
X0293754Y0314179D02*
X0301417Y0314179D01*
X0301417Y0315777D02*
X0293754Y0315777D01*
X0293754Y0317376D02*
X0301417Y0317376D01*
X0301417Y0318974D02*
X0293754Y0318974D01*
X0293243Y0320573D02*
X0301846Y0320573D01*
X0305002Y0320573D02*
X0305370Y0320573D01*
X0305370Y0321198D02*
X0305370Y0315646D01*
X0308954Y0315646D01*
X0308954Y0319635D01*
X0308832Y0320093D01*
X0308595Y0320504D01*
X0308260Y0320839D01*
X0307849Y0321076D01*
X0307391Y0321198D01*
X0305370Y0321198D01*
X0305370Y0318974D02*
X0305002Y0318974D01*
X0305002Y0317376D02*
X0305370Y0317376D01*
X0305370Y0315777D02*
X0305002Y0315777D01*
X0305002Y0314179D02*
X0305370Y0314179D01*
X0305370Y0312580D02*
X0305002Y0312580D01*
X0305002Y0310982D02*
X0305370Y0310982D01*
X0304214Y0307785D02*
X0350818Y0307785D01*
X0350854Y0306186D02*
X0306755Y0306186D01*
X0308660Y0304588D02*
X0349255Y0304588D01*
X0347657Y0302989D02*
X0310151Y0302989D01*
X0311359Y0301390D02*
X0346354Y0301390D01*
X0346354Y0299792D02*
X0312335Y0299792D01*
X0313114Y0298193D02*
X0346354Y0298193D01*
X0346354Y0296595D02*
X0313722Y0296595D01*
X0314176Y0294996D02*
X0346354Y0294996D01*
X0346354Y0293398D02*
X0314486Y0293398D01*
X0299975Y0309383D02*
X0349220Y0309383D01*
X0347621Y0310982D02*
X0308872Y0310982D01*
X0308954Y0312580D02*
X0346023Y0312580D01*
X0342303Y0314179D02*
X0308954Y0314179D01*
X0308954Y0315777D02*
X0341438Y0315777D01*
X0341448Y0317376D02*
X0308954Y0317376D01*
X0308954Y0318974D02*
X0342328Y0318974D01*
X0347689Y0318974D02*
X0359255Y0318974D01*
X0359255Y0317376D02*
X0348569Y0317376D01*
X0348765Y0315777D02*
X0359255Y0315777D01*
X0358847Y0314179D02*
X0350364Y0314179D01*
X0351962Y0312580D02*
X0357248Y0312580D01*
X0355650Y0310982D02*
X0353561Y0310982D01*
X0358392Y0307785D02*
X0358795Y0307785D01*
X0359991Y0309383D02*
X0363034Y0309383D01*
X0366392Y0310982D02*
X0374137Y0310982D01*
X0374178Y0310830D02*
X0374415Y0310419D01*
X0374750Y0310084D01*
X0375160Y0309847D01*
X0375618Y0309724D01*
X0377639Y0309724D01*
X0377639Y0315277D01*
X0374055Y0315277D01*
X0374055Y0311287D01*
X0374178Y0310830D01*
X0374055Y0312580D02*
X0366392Y0312580D01*
X0366392Y0314179D02*
X0374055Y0314179D01*
X0374055Y0315646D02*
X0377639Y0315646D01*
X0377639Y0315277D01*
X0378008Y0315277D01*
X0378008Y0309724D01*
X0380029Y0309724D01*
X0380487Y0309847D01*
X0380897Y0310084D01*
X0381232Y0310419D01*
X0381469Y0310830D01*
X0381592Y0311287D01*
X0381592Y0315277D01*
X0378008Y0315277D01*
X0378008Y0315646D01*
X0377639Y0315646D01*
X0377639Y0321198D01*
X0375618Y0321198D01*
X0375160Y0321076D01*
X0374750Y0320839D01*
X0374415Y0320504D01*
X0374178Y0320093D01*
X0374055Y0319635D01*
X0374055Y0315646D01*
X0374055Y0315777D02*
X0366392Y0315777D01*
X0366392Y0317376D02*
X0374055Y0317376D01*
X0374055Y0318974D02*
X0366392Y0318974D01*
X0365881Y0320573D02*
X0374484Y0320573D01*
X0377639Y0320573D02*
X0378008Y0320573D01*
X0378008Y0321198D02*
X0378008Y0315646D01*
X0381592Y0315646D01*
X0381592Y0319635D01*
X0381469Y0320093D01*
X0381232Y0320504D01*
X0380897Y0320839D01*
X0380487Y0321076D01*
X0380029Y0321198D01*
X0378008Y0321198D01*
X0378008Y0318974D02*
X0377639Y0318974D01*
X0377639Y0317376D02*
X0378008Y0317376D01*
X0378008Y0315777D02*
X0377639Y0315777D01*
X0377639Y0314179D02*
X0378008Y0314179D01*
X0378008Y0312580D02*
X0377639Y0312580D01*
X0377639Y0310982D02*
X0378008Y0310982D01*
X0376852Y0307785D02*
X0480405Y0307785D01*
X0482004Y0309383D02*
X0372613Y0309383D01*
X0368624Y0309383D02*
X0367024Y0309383D01*
X0367024Y0307785D02*
X0368624Y0307785D01*
X0368624Y0306186D02*
X0367024Y0306186D01*
X0367024Y0304588D02*
X0368624Y0304588D01*
X0368624Y0302989D02*
X0367024Y0302989D01*
X0367024Y0301390D02*
X0368624Y0301390D01*
X0368624Y0299792D02*
X0367024Y0299792D01*
X0367024Y0298193D02*
X0368624Y0298193D01*
X0368624Y0296595D02*
X0367024Y0296595D01*
X0367024Y0294996D02*
X0368624Y0294996D01*
X0368624Y0293398D02*
X0367024Y0293398D01*
X0367024Y0291799D02*
X0368624Y0291799D01*
X0368624Y0290201D02*
X0462822Y0290201D01*
X0464420Y0291799D02*
X0387298Y0291799D01*
X0387123Y0293398D02*
X0466019Y0293398D01*
X0467617Y0294996D02*
X0386813Y0294996D01*
X0386360Y0296595D02*
X0469216Y0296595D01*
X0470814Y0298193D02*
X0385752Y0298193D01*
X0384972Y0299792D02*
X0472413Y0299792D01*
X0474011Y0301390D02*
X0383996Y0301390D01*
X0382789Y0302989D02*
X0475610Y0302989D01*
X0477208Y0304588D02*
X0381298Y0304588D01*
X0379393Y0306186D02*
X0478807Y0306186D01*
X0483602Y0310982D02*
X0381510Y0310982D01*
X0381592Y0312580D02*
X0485201Y0312580D01*
X0486799Y0314179D02*
X0381592Y0314179D01*
X0381592Y0315777D02*
X0488398Y0315777D01*
X0489996Y0317376D02*
X0381592Y0317376D01*
X0381592Y0318974D02*
X0491595Y0318974D01*
X0493193Y0320573D02*
X0381164Y0320573D01*
X0359767Y0320573D02*
X0308526Y0320573D01*
X0290396Y0309383D02*
X0287156Y0309383D01*
X0286157Y0307785D02*
X0285617Y0307785D01*
X0282815Y0310982D02*
X0234466Y0310982D01*
X0232868Y0312580D02*
X0284413Y0312580D01*
X0286012Y0314179D02*
X0231269Y0314179D01*
X0229671Y0315777D02*
X0286617Y0315777D01*
X0286617Y0317376D02*
X0228072Y0317376D01*
X0226474Y0318974D02*
X0286617Y0318974D01*
X0287129Y0320573D02*
X0224875Y0320573D01*
X0223277Y0322171D02*
X0494792Y0322171D01*
X0496390Y0323770D02*
X0221678Y0323770D01*
X0220080Y0325368D02*
X0497989Y0325368D01*
X0499587Y0326967D02*
X0218481Y0326967D01*
X0216883Y0328565D02*
X0501186Y0328565D01*
X0502784Y0330164D02*
X0215284Y0330164D01*
X0213686Y0331762D02*
X0504383Y0331762D01*
X0505981Y0333361D02*
X0212087Y0333361D01*
X0210489Y0334959D02*
X0507580Y0334959D01*
X0509178Y0336558D02*
X0208890Y0336558D01*
X0207292Y0338156D02*
X0510777Y0338156D01*
X0437602Y0365331D02*
X0358299Y0365331D01*
X0358173Y0366929D02*
X0437602Y0366929D01*
X0437602Y0368528D02*
X0357925Y0368528D01*
X0357577Y0370126D02*
X0437602Y0370126D01*
X0437602Y0371725D02*
X0357124Y0371725D01*
X0356559Y0373323D02*
X0437602Y0373323D01*
X0437602Y0374922D02*
X0358112Y0374922D01*
X0357921Y0381316D02*
X0437602Y0381316D01*
X0437602Y0382915D02*
X0349906Y0382915D01*
X0351543Y0381316D02*
X0354734Y0381316D01*
X0353109Y0379718D02*
X0352910Y0379718D01*
X0347926Y0384513D02*
X0437602Y0384513D01*
X0437602Y0386112D02*
X0345482Y0386112D01*
X0345108Y0388268D02*
X0345566Y0388390D01*
X0345976Y0388627D01*
X0346311Y0388962D01*
X0346548Y0389373D01*
X0346671Y0389831D01*
X0346671Y0393820D01*
X0343087Y0393820D01*
X0343087Y0388268D01*
X0345108Y0388268D01*
X0346511Y0389309D02*
X0437602Y0389309D01*
X0437602Y0390907D02*
X0346671Y0390907D01*
X0346671Y0392506D02*
X0437602Y0392506D01*
X0437602Y0387710D02*
X0342104Y0387710D01*
X0342718Y0389309D02*
X0343087Y0389309D01*
X0343087Y0390907D02*
X0342718Y0390907D01*
X0342718Y0392506D02*
X0343087Y0392506D01*
X0346671Y0395703D02*
X0618713Y0395703D01*
X0614748Y0397301D02*
X0346671Y0397301D01*
X0346396Y0398900D02*
X0608265Y0398900D01*
X0609563Y0310982D02*
X0611163Y0310982D01*
X0611163Y0309383D02*
X0609563Y0309383D01*
X0609563Y0307785D02*
X0611163Y0307785D01*
X0611163Y0306186D02*
X0609563Y0306186D01*
X0609563Y0304588D02*
X0611163Y0304588D01*
X0611163Y0302989D02*
X0609563Y0302989D01*
X0609563Y0298193D02*
X0611163Y0298193D01*
X0611163Y0296595D02*
X0609563Y0296595D01*
X0609563Y0294996D02*
X0611163Y0294996D01*
X0611163Y0293398D02*
X0609563Y0293398D01*
X0609563Y0291799D02*
X0611163Y0291799D01*
X0617183Y0302989D02*
X0637945Y0302989D01*
X0637945Y0304588D02*
X0617183Y0304588D01*
X0617183Y0306186D02*
X0637945Y0306186D01*
X0637945Y0307785D02*
X0617183Y0307785D01*
X0617183Y0309383D02*
X0637945Y0309383D01*
X0637945Y0310982D02*
X0616934Y0310982D01*
X0536420Y0279011D02*
X0462493Y0279011D01*
X0460894Y0277413D02*
X0536420Y0277413D01*
X0537510Y0275814D02*
X0459296Y0275814D01*
X0457697Y0274216D02*
X0535911Y0274216D01*
X0534313Y0272617D02*
X0456099Y0272617D01*
X0450034Y0277413D02*
X0382352Y0277413D01*
X0382226Y0277264D02*
X0383322Y0278569D01*
X0384299Y0279965D01*
X0385151Y0281441D01*
X0385872Y0282986D01*
X0386455Y0284587D01*
X0386896Y0286233D01*
X0387192Y0287912D01*
X0387340Y0289609D01*
X0387340Y0289661D01*
X0368624Y0289661D01*
X0368624Y0270945D01*
X0368676Y0270945D01*
X0370373Y0271093D01*
X0372052Y0271389D01*
X0373698Y0271830D01*
X0375299Y0272413D01*
X0376844Y0273134D01*
X0378320Y0273986D01*
X0379716Y0274963D01*
X0381021Y0276059D01*
X0382226Y0277264D01*
X0380730Y0275814D02*
X0448435Y0275814D01*
X0446836Y0274216D02*
X0378648Y0274216D01*
X0375737Y0272617D02*
X0445271Y0272617D01*
X0445271Y0271019D02*
X0369520Y0271019D01*
X0368624Y0271019D02*
X0367024Y0271019D01*
X0366127Y0271019D02*
X0363012Y0271019D01*
X0366732Y0269420D02*
X0445271Y0269420D01*
X0445271Y0267822D02*
X0367699Y0267822D01*
X0367802Y0266223D02*
X0445271Y0266223D01*
X0445271Y0264625D02*
X0367058Y0264625D01*
X0367024Y0272617D02*
X0368624Y0272617D01*
X0368624Y0274216D02*
X0367024Y0274216D01*
X0367024Y0275814D02*
X0368624Y0275814D01*
X0368624Y0277413D02*
X0367024Y0277413D01*
X0367024Y0279011D02*
X0368624Y0279011D01*
X0368624Y0280610D02*
X0367024Y0280610D01*
X0367024Y0282208D02*
X0368624Y0282208D01*
X0368624Y0283807D02*
X0367024Y0283807D01*
X0367024Y0285405D02*
X0368624Y0285405D01*
X0368624Y0287004D02*
X0367024Y0287004D01*
X0367024Y0288602D02*
X0368624Y0288602D01*
X0383631Y0279011D02*
X0451632Y0279011D01*
X0453231Y0280610D02*
X0384672Y0280610D01*
X0385509Y0282208D02*
X0454829Y0282208D01*
X0456428Y0283807D02*
X0386171Y0283807D01*
X0386674Y0285405D02*
X0458026Y0285405D01*
X0459625Y0287004D02*
X0387032Y0287004D01*
X0387252Y0288602D02*
X0461223Y0288602D01*
X0549037Y0250238D02*
X0556093Y0250238D01*
X0555875Y0250167D02*
X0555162Y0249804D01*
X0554516Y0249334D01*
X0553951Y0248769D01*
X0553481Y0248123D01*
X0553118Y0247411D01*
X0552871Y0246650D01*
X0552746Y0245861D01*
X0552746Y0245754D01*
X0557531Y0245754D01*
X0557531Y0245169D01*
X0558116Y0245169D01*
X0558116Y0245754D01*
X0557531Y0245754D01*
X0557531Y0250539D01*
X0557424Y0250539D01*
X0556635Y0250414D01*
X0555875Y0250167D01*
X0557531Y0250238D02*
X0558116Y0250238D01*
X0558116Y0250539D02*
X0558116Y0245754D01*
X0562901Y0245754D01*
X0562901Y0245861D01*
X0562776Y0246650D01*
X0562529Y0247411D01*
X0562166Y0248123D01*
X0561697Y0248769D01*
X0561131Y0249334D01*
X0560485Y0249804D01*
X0559773Y0250167D01*
X0559013Y0250414D01*
X0558223Y0250539D01*
X0558116Y0250539D01*
X0559554Y0250238D02*
X0566610Y0250238D01*
X0569037Y0250238D02*
X0576610Y0250238D01*
X0579037Y0250238D02*
X0583782Y0250238D01*
X0582946Y0248640D02*
X0581543Y0248640D01*
X0582449Y0247041D02*
X0582946Y0247041D01*
X0582946Y0245443D02*
X0582701Y0245443D01*
X0582946Y0243844D02*
X0582433Y0243844D01*
X0582946Y0242246D02*
X0581506Y0242246D01*
X0574142Y0242246D02*
X0571506Y0242246D01*
X0572433Y0243844D02*
X0573214Y0243844D01*
X0572946Y0245443D02*
X0572701Y0245443D01*
X0572449Y0247041D02*
X0573199Y0247041D01*
X0574104Y0248640D02*
X0571543Y0248640D01*
X0564104Y0248640D02*
X0561791Y0248640D01*
X0562649Y0247041D02*
X0563199Y0247041D01*
X0562946Y0245443D02*
X0558116Y0245443D01*
X0557531Y0245443D02*
X0552701Y0245443D01*
X0552449Y0247041D02*
X0552998Y0247041D01*
X0553857Y0248640D02*
X0551543Y0248640D01*
X0552433Y0243844D02*
X0553010Y0243844D01*
X0553884Y0242246D02*
X0551506Y0242246D01*
X0557531Y0242246D02*
X0558116Y0242246D01*
X0558116Y0243844D02*
X0557531Y0243844D01*
X0557531Y0247041D02*
X0558116Y0247041D01*
X0558116Y0248640D02*
X0557531Y0248640D01*
X0562637Y0243844D02*
X0563214Y0243844D01*
X0564142Y0242246D02*
X0561763Y0242246D01*
X0610376Y0146335D02*
X0613414Y0146335D01*
X0611936Y0144736D02*
X0611936Y0144736D01*
X0611936Y0143138D02*
X0611936Y0143138D01*
X0611936Y0141539D02*
X0611936Y0141539D01*
X0612628Y0139941D02*
X0611162Y0139941D01*
X0609563Y0138342D02*
X0614226Y0138342D01*
X0617036Y0138342D02*
X0617036Y0138342D01*
X0617036Y0139941D02*
X0617036Y0139941D01*
X0617036Y0141539D02*
X0617036Y0141539D01*
X0617036Y0143138D02*
X0617036Y0143138D01*
X0617036Y0144736D02*
X0617036Y0144736D01*
X0617036Y0146335D02*
X0617036Y0146335D01*
X0527584Y0106167D02*
X0527584Y0101567D01*
X0519984Y0101567D01*
X0519984Y0101745D01*
X0520102Y0102491D01*
X0520336Y0103209D01*
X0520679Y0103883D01*
X0521123Y0104494D01*
X0521657Y0105028D01*
X0522269Y0105472D01*
X0522942Y0105815D01*
X0523660Y0106049D01*
X0524406Y0106167D01*
X0527584Y0106167D01*
X0527584Y0104774D02*
X0527984Y0104774D01*
X0527984Y0103175D02*
X0527584Y0103175D01*
X0527584Y0101577D02*
X0527984Y0101577D01*
X0527984Y0099978D02*
X0527584Y0099978D01*
X0527584Y0098380D02*
X0527984Y0098380D01*
X0527984Y0096781D02*
X0527584Y0096781D01*
X0523365Y0096781D02*
X0408708Y0096781D01*
X0410306Y0098380D02*
X0521022Y0098380D01*
X0520188Y0099978D02*
X0411905Y0099978D01*
X0413503Y0101577D02*
X0519984Y0101577D01*
X0520325Y0103175D02*
X0415102Y0103175D01*
X0416700Y0104774D02*
X0521403Y0104774D01*
X0522094Y0095183D02*
X0407109Y0095183D01*
X0405511Y0093584D02*
X0520724Y0093584D01*
X0520184Y0091985D02*
X0403912Y0091985D01*
X0402314Y0090387D02*
X0520211Y0090387D01*
X0520873Y0088788D02*
X0400715Y0088788D01*
X0399116Y0087190D02*
X0522848Y0087190D01*
X0524515Y0042432D02*
X0529983Y0042432D01*
X0528384Y0040833D02*
X0526114Y0040833D01*
X0527291Y0039235D02*
X0527291Y0039235D01*
X0527291Y0037636D02*
X0527291Y0037636D01*
X0527291Y0036038D02*
X0527291Y0036038D01*
X0528366Y0034439D02*
X0526133Y0034439D01*
X0437602Y0034439D02*
X0364030Y0034439D01*
X0364030Y0032841D02*
X0437602Y0032841D01*
X0437602Y0036038D02*
X0399646Y0036038D01*
X0398659Y0035050D02*
X0404573Y0040965D01*
X0404573Y0049328D01*
X0398659Y0055243D01*
X0390295Y0055243D01*
X0384381Y0049328D01*
X0384381Y0040965D01*
X0390295Y0035050D01*
X0398659Y0035050D01*
X0401245Y0037636D02*
X0437602Y0037636D01*
X0437602Y0039235D02*
X0402843Y0039235D01*
X0404442Y0040833D02*
X0437602Y0040833D01*
X0437602Y0042432D02*
X0404573Y0042432D01*
X0404573Y0044030D02*
X0437602Y0044030D01*
X0437602Y0045629D02*
X0404573Y0045629D01*
X0404573Y0047227D02*
X0437602Y0047227D01*
X0437602Y0048826D02*
X0404573Y0048826D01*
X0403477Y0050424D02*
X0437602Y0050424D01*
X0437602Y0052023D02*
X0401879Y0052023D01*
X0400280Y0053621D02*
X0437602Y0053621D01*
X0437602Y0055220D02*
X0398682Y0055220D01*
X0390272Y0055220D02*
X0367146Y0055220D01*
X0368745Y0056818D02*
X0437602Y0056818D01*
X0437602Y0058417D02*
X0370343Y0058417D01*
X0371942Y0060015D02*
X0437602Y0060015D01*
X0394775Y0088788D02*
X0307545Y0088788D01*
X0309144Y0087190D02*
X0393177Y0087190D01*
X0391578Y0085591D02*
X0310742Y0085591D01*
X0312341Y0083993D02*
X0389980Y0083993D01*
X0388381Y0082394D02*
X0313939Y0082394D01*
X0315538Y0080796D02*
X0386783Y0080796D01*
X0385184Y0079197D02*
X0317136Y0079197D01*
X0318735Y0077599D02*
X0383586Y0077599D01*
X0381987Y0076000D02*
X0320333Y0076000D01*
X0321932Y0074402D02*
X0380389Y0074402D01*
X0378790Y0072803D02*
X0323530Y0072803D01*
X0325129Y0071205D02*
X0377192Y0071205D01*
X0375593Y0069606D02*
X0326727Y0069606D01*
X0328326Y0068008D02*
X0373995Y0068008D01*
X0372396Y0066409D02*
X0329924Y0066409D01*
X0331523Y0064811D02*
X0370798Y0064811D01*
X0369199Y0063212D02*
X0333121Y0063212D01*
X0334720Y0061614D02*
X0367601Y0061614D01*
X0366002Y0060015D02*
X0336318Y0060015D01*
X0337917Y0058417D02*
X0364404Y0058417D01*
X0362805Y0056818D02*
X0339515Y0056818D01*
X0341114Y0055220D02*
X0361207Y0055220D01*
X0359608Y0053621D02*
X0341695Y0053621D01*
X0341695Y0052023D02*
X0358010Y0052023D01*
X0356411Y0050424D02*
X0341695Y0050424D01*
X0349438Y0048826D02*
X0349438Y0048826D01*
X0349438Y0047227D02*
X0349438Y0047227D01*
X0349438Y0045698D02*
X0349438Y0043451D01*
X0349438Y0043451D01*
X0349438Y0045698D01*
X0349438Y0045698D01*
X0349438Y0045629D02*
X0349438Y0045629D01*
X0349438Y0044030D02*
X0349438Y0044030D01*
X0351828Y0047227D02*
X0353214Y0047227D01*
X0351739Y0048826D02*
X0354813Y0048826D01*
X0357555Y0045629D02*
X0384381Y0045629D01*
X0384381Y0047227D02*
X0359154Y0047227D01*
X0360752Y0048826D02*
X0384381Y0048826D01*
X0385477Y0050424D02*
X0362351Y0050424D01*
X0363949Y0052023D02*
X0387075Y0052023D01*
X0388674Y0053621D02*
X0365548Y0053621D01*
X0355957Y0044030D02*
X0384381Y0044030D01*
X0384381Y0042432D02*
X0354358Y0042432D01*
X0352760Y0040833D02*
X0384512Y0040833D01*
X0386111Y0039235D02*
X0351161Y0039235D01*
X0349563Y0037636D02*
X0353743Y0037636D01*
X0353743Y0037896D02*
X0353743Y0027909D01*
X0354681Y0026972D01*
X0363093Y0026972D01*
X0364030Y0027909D01*
X0364030Y0037896D01*
X0363093Y0038833D01*
X0354681Y0038833D01*
X0353743Y0037896D01*
X0353743Y0036038D02*
X0347964Y0036038D01*
X0346366Y0034439D02*
X0353743Y0034439D01*
X0353743Y0032841D02*
X0344767Y0032841D01*
X0343169Y0031242D02*
X0353743Y0031242D01*
X0353743Y0029644D02*
X0341570Y0029644D01*
X0339972Y0028045D02*
X0353743Y0028045D01*
X0364030Y0028045D02*
X0432944Y0028045D01*
X0433051Y0029644D02*
X0364030Y0029644D01*
X0364030Y0031242D02*
X0434025Y0031242D01*
X0433676Y0026447D02*
X0338373Y0026447D01*
X0335630Y0029644D02*
X0317573Y0029644D01*
X0317573Y0031242D02*
X0337229Y0031242D01*
X0338827Y0032841D02*
X0317573Y0032841D01*
X0317573Y0034439D02*
X0340426Y0034439D01*
X0342024Y0036038D02*
X0317573Y0036038D01*
X0317573Y0037636D02*
X0343623Y0037636D01*
X0345221Y0039235D02*
X0303349Y0039235D01*
X0302220Y0040365D02*
X0300107Y0040365D01*
X0297995Y0040365D01*
X0295007Y0037377D01*
X0295007Y0035265D01*
X0300107Y0035265D01*
X0300107Y0040365D01*
X0300107Y0035265D01*
X0300107Y0035265D01*
X0300107Y0035264D01*
X0300107Y0035264D01*
X0300107Y0030165D01*
X0297995Y0030165D01*
X0295007Y0033152D01*
X0295007Y0035264D01*
X0300107Y0035264D01*
X0300107Y0030165D01*
X0302220Y0030165D01*
X0305207Y0033152D01*
X0305207Y0035264D01*
X0300107Y0035264D01*
X0300107Y0035265D01*
X0305207Y0035265D01*
X0305207Y0037377D01*
X0302220Y0040365D01*
X0300107Y0039235D02*
X0300107Y0039235D01*
X0300107Y0037636D02*
X0300107Y0037636D01*
X0300107Y0036038D02*
X0300107Y0036038D01*
X0300107Y0034439D02*
X0300107Y0034439D01*
X0300107Y0032841D02*
X0300107Y0032841D01*
X0300107Y0031242D02*
X0300107Y0031242D01*
X0296917Y0031242D02*
X0293014Y0031242D01*
X0291887Y0029644D02*
X0307287Y0029644D01*
X0307287Y0031242D02*
X0303297Y0031242D01*
X0304896Y0032841D02*
X0307287Y0032841D01*
X0307287Y0034439D02*
X0305207Y0034439D01*
X0305207Y0036038D02*
X0307287Y0036038D01*
X0307287Y0037636D02*
X0304948Y0037636D01*
X0296865Y0039235D02*
X0293067Y0039235D01*
X0294665Y0037636D02*
X0295266Y0037636D01*
X0295007Y0036038D02*
X0295007Y0036038D01*
X0295007Y0034439D02*
X0295007Y0034439D01*
X0295319Y0032841D02*
X0294613Y0032841D01*
X0289144Y0026447D02*
X0189255Y0026447D01*
X0189671Y0028045D02*
X0287546Y0028045D01*
X0285947Y0029644D02*
X0189518Y0029644D01*
X0188749Y0031242D02*
X0284349Y0031242D01*
X0282750Y0032841D02*
X0186756Y0032841D01*
X0185786Y0033814D02*
X0187477Y0034514D01*
X0188771Y0035808D01*
X0189471Y0037499D01*
X0189471Y0039329D01*
X0188771Y0041020D01*
X0187477Y0042314D01*
X0185786Y0043014D01*
X0183956Y0043014D01*
X0182265Y0042314D01*
X0180971Y0041020D01*
X0180271Y0039329D01*
X0180271Y0037499D01*
X0180971Y0035808D01*
X0182265Y0034514D01*
X0183956Y0033814D01*
X0185786Y0033814D01*
X0185071Y0032841D02*
X0184671Y0032841D01*
X0184671Y0033214D02*
X0184493Y0033214D01*
X0183747Y0033096D01*
X0183028Y0032863D01*
X0182355Y0032519D01*
X0181744Y0032075D01*
X0181210Y0031541D01*
X0180766Y0030930D01*
X0180423Y0030257D01*
X0180189Y0029538D01*
X0180071Y0028792D01*
X0180071Y0028614D01*
X0184671Y0028614D01*
X0184671Y0033214D01*
X0182985Y0032841D02*
X0159534Y0032841D01*
X0159434Y0032913D02*
X0158761Y0033256D01*
X0158042Y0033490D01*
X0157296Y0033608D01*
X0157118Y0033608D01*
X0157118Y0029008D01*
X0161718Y0029008D01*
X0161718Y0029186D01*
X0161600Y0029932D01*
X0161366Y0030650D01*
X0161023Y0031324D01*
X0160579Y0031935D01*
X0160045Y0032469D01*
X0159434Y0032913D01*
X0158391Y0034439D02*
X0182447Y0034439D01*
X0180876Y0036038D02*
X0160653Y0036038D01*
X0160818Y0036202D02*
X0161518Y0037893D01*
X0161518Y0039723D01*
X0160818Y0041414D01*
X0159524Y0042708D01*
X0157833Y0043408D01*
X0156003Y0043408D01*
X0154312Y0042708D01*
X0153018Y0041414D01*
X0152318Y0039723D01*
X0152318Y0037893D01*
X0153018Y0036202D01*
X0154312Y0034908D01*
X0156003Y0034208D01*
X0157833Y0034208D01*
X0159524Y0034908D01*
X0160818Y0036202D01*
X0161412Y0037636D02*
X0180271Y0037636D01*
X0180271Y0039235D02*
X0161518Y0039235D01*
X0161058Y0040833D02*
X0180894Y0040833D01*
X0182550Y0042432D02*
X0159800Y0042432D01*
X0160244Y0045629D02*
X0181151Y0045629D01*
X0180971Y0045808D02*
X0182265Y0044514D01*
X0183956Y0043814D01*
X0185786Y0043814D01*
X0187477Y0044514D01*
X0188771Y0045808D01*
X0189471Y0047499D01*
X0189471Y0049329D01*
X0188771Y0051020D01*
X0187477Y0052314D01*
X0185786Y0053014D01*
X0183956Y0053014D01*
X0182265Y0052314D01*
X0180971Y0051020D01*
X0180271Y0049329D01*
X0180271Y0047499D01*
X0180971Y0045808D01*
X0180384Y0047227D02*
X0161242Y0047227D01*
X0161518Y0048826D02*
X0180271Y0048826D01*
X0180724Y0050424D02*
X0161228Y0050424D01*
X0160209Y0052023D02*
X0181974Y0052023D01*
X0187768Y0052023D02*
X0240855Y0052023D01*
X0242453Y0053621D02*
X0158624Y0053621D01*
X0158624Y0055220D02*
X0244052Y0055220D01*
X0244232Y0055400D02*
X0238318Y0049486D01*
X0238318Y0041122D01*
X0244232Y0035208D01*
X0252596Y0035208D01*
X0258510Y0041122D01*
X0258510Y0049486D01*
X0252596Y0055400D01*
X0244232Y0055400D01*
X0252776Y0055220D02*
X0260371Y0055220D01*
X0258773Y0056818D02*
X0158624Y0056818D01*
X0158624Y0058417D02*
X0257174Y0058417D01*
X0255576Y0060015D02*
X0158624Y0060015D01*
X0158624Y0061614D02*
X0253977Y0061614D01*
X0252378Y0063212D02*
X0158624Y0063212D01*
X0158624Y0064811D02*
X0250780Y0064811D01*
X0249181Y0066409D02*
X0158624Y0066409D01*
X0158624Y0068008D02*
X0247583Y0068008D01*
X0245984Y0069606D02*
X0158624Y0069606D01*
X0158624Y0071205D02*
X0244386Y0071205D01*
X0242787Y0072803D02*
X0158624Y0072803D01*
X0158624Y0074402D02*
X0241189Y0074402D01*
X0239590Y0076000D02*
X0158624Y0076000D01*
X0158624Y0077599D02*
X0237992Y0077599D01*
X0236393Y0079197D02*
X0158624Y0079197D01*
X0158624Y0080796D02*
X0182528Y0080796D01*
X0183353Y0079971D02*
X0187412Y0079971D01*
X0190283Y0082841D01*
X0190283Y0086901D01*
X0187412Y0089771D01*
X0183353Y0089771D01*
X0180483Y0086901D01*
X0180483Y0082841D01*
X0183353Y0079971D01*
X0180929Y0082394D02*
X0158624Y0082394D01*
X0158624Y0083993D02*
X0180483Y0083993D01*
X0180483Y0085591D02*
X0158624Y0085591D01*
X0158624Y0087190D02*
X0180772Y0087190D01*
X0182371Y0088788D02*
X0158624Y0088788D01*
X0158624Y0090387D02*
X0225204Y0090387D01*
X0226802Y0088788D02*
X0198678Y0088788D01*
X0197495Y0089971D02*
X0200483Y0086983D01*
X0200483Y0084871D01*
X0195383Y0084871D01*
X0195383Y0084871D01*
X0195383Y0084871D01*
X0195383Y0089971D01*
X0197495Y0089971D01*
X0195383Y0089971D02*
X0193270Y0089971D01*
X0190283Y0086983D01*
X0190283Y0084871D01*
X0195383Y0084871D01*
X0200483Y0084871D01*
X0200483Y0082758D01*
X0197495Y0079771D01*
X0195383Y0079771D01*
X0195383Y0084871D01*
X0195383Y0084871D01*
X0195383Y0089971D01*
X0195383Y0088788D02*
X0195383Y0088788D01*
X0195383Y0087190D02*
X0195383Y0087190D01*
X0195383Y0085591D02*
X0195383Y0085591D01*
X0195383Y0084871D02*
X0195383Y0084871D01*
X0195383Y0079771D01*
X0193270Y0079771D01*
X0190283Y0082758D01*
X0190283Y0084871D01*
X0195383Y0084871D01*
X0195383Y0083993D02*
X0195383Y0083993D01*
X0195383Y0082394D02*
X0195383Y0082394D01*
X0195383Y0080796D02*
X0195383Y0080796D01*
X0198520Y0080796D02*
X0234795Y0080796D01*
X0233196Y0082394D02*
X0200119Y0082394D01*
X0200483Y0083993D02*
X0231598Y0083993D01*
X0229999Y0085591D02*
X0200483Y0085591D01*
X0200276Y0087190D02*
X0228401Y0087190D01*
X0231143Y0090387D02*
X0279338Y0090387D01*
X0280936Y0088788D02*
X0232742Y0088788D01*
X0234341Y0087190D02*
X0282535Y0087190D01*
X0284133Y0085591D02*
X0235939Y0085591D01*
X0237538Y0083993D02*
X0285732Y0083993D01*
X0287330Y0082394D02*
X0239136Y0082394D01*
X0240735Y0080796D02*
X0288929Y0080796D01*
X0290527Y0079197D02*
X0242333Y0079197D01*
X0243932Y0077599D02*
X0292126Y0077599D01*
X0293724Y0076000D02*
X0245530Y0076000D01*
X0247129Y0074402D02*
X0295323Y0074402D01*
X0296921Y0072803D02*
X0248727Y0072803D01*
X0250326Y0071205D02*
X0298520Y0071205D01*
X0300118Y0069606D02*
X0251924Y0069606D01*
X0253523Y0068008D02*
X0301717Y0068008D01*
X0303315Y0066409D02*
X0255121Y0066409D01*
X0256720Y0064811D02*
X0304914Y0064811D01*
X0306512Y0063212D02*
X0258318Y0063212D01*
X0259917Y0061614D02*
X0308111Y0061614D01*
X0309709Y0060015D02*
X0261515Y0060015D01*
X0263114Y0058417D02*
X0311308Y0058417D01*
X0312906Y0056818D02*
X0264712Y0056818D01*
X0266311Y0055220D02*
X0314505Y0055220D01*
X0316103Y0053621D02*
X0267909Y0053621D01*
X0269508Y0052023D02*
X0317702Y0052023D01*
X0319300Y0050424D02*
X0271106Y0050424D01*
X0272705Y0048826D02*
X0319688Y0048826D01*
X0319688Y0047227D02*
X0274303Y0047227D01*
X0275902Y0045629D02*
X0319688Y0045629D01*
X0319688Y0044030D02*
X0277500Y0044030D01*
X0279099Y0042432D02*
X0319732Y0042432D01*
X0330368Y0040833D02*
X0280697Y0040833D01*
X0282296Y0039235D02*
X0287148Y0039235D01*
X0285549Y0037636D02*
X0283894Y0037636D01*
X0281152Y0034439D02*
X0187295Y0034439D01*
X0188865Y0036038D02*
X0243403Y0036038D01*
X0241804Y0037636D02*
X0189471Y0037636D01*
X0189471Y0039235D02*
X0240205Y0039235D01*
X0238607Y0040833D02*
X0188848Y0040833D01*
X0187192Y0042432D02*
X0238318Y0042432D01*
X0238318Y0044030D02*
X0186307Y0044030D01*
X0188591Y0045629D02*
X0238318Y0045629D01*
X0238318Y0047227D02*
X0189358Y0047227D01*
X0189471Y0048826D02*
X0238318Y0048826D01*
X0239256Y0050424D02*
X0189017Y0050424D01*
X0183434Y0044030D02*
X0077416Y0044030D01*
X0077416Y0042432D02*
X0154037Y0042432D01*
X0152778Y0040833D02*
X0077416Y0040833D01*
X0077416Y0039235D02*
X0152318Y0039235D01*
X0152424Y0037636D02*
X0077416Y0037636D01*
X0077416Y0036038D02*
X0153183Y0036038D01*
X0155445Y0034439D02*
X0077416Y0034439D01*
X0077416Y0032841D02*
X0154302Y0032841D01*
X0152771Y0031242D02*
X0077416Y0031242D01*
X0077416Y0029644D02*
X0152191Y0029644D01*
X0152179Y0028045D02*
X0039484Y0028045D01*
X0044545Y0026447D02*
X0152734Y0026447D01*
X0156718Y0029644D02*
X0157118Y0029644D01*
X0157118Y0031242D02*
X0156718Y0031242D01*
X0156718Y0032841D02*
X0157118Y0032841D01*
X0161065Y0031242D02*
X0180992Y0031242D01*
X0180223Y0029644D02*
X0161646Y0029644D01*
X0161657Y0028045D02*
X0180071Y0028045D01*
X0180486Y0026447D02*
X0161102Y0026447D01*
X0184671Y0029644D02*
X0185071Y0029644D01*
X0185071Y0031242D02*
X0184671Y0031242D01*
X0153592Y0045629D02*
X0077416Y0045629D01*
X0077416Y0047227D02*
X0152594Y0047227D01*
X0152318Y0048826D02*
X0077416Y0048826D01*
X0077416Y0050424D02*
X0152609Y0050424D01*
X0153628Y0052023D02*
X0077416Y0052023D01*
X0077416Y0053621D02*
X0154424Y0053621D01*
X0154424Y0055220D02*
X0077416Y0055220D01*
X0077416Y0056818D02*
X0154424Y0056818D01*
X0154424Y0058417D02*
X0077416Y0058417D01*
X0076714Y0060015D02*
X0154424Y0060015D01*
X0154424Y0061614D02*
X0063152Y0061614D01*
X0063152Y0063212D02*
X0154424Y0063212D01*
X0154424Y0064811D02*
X0063152Y0064811D01*
X0063152Y0066409D02*
X0154424Y0066409D01*
X0154424Y0068008D02*
X0130730Y0068008D01*
X0132334Y0069606D02*
X0154424Y0069606D01*
X0154424Y0071205D02*
X0133117Y0071205D01*
X0133515Y0072803D02*
X0154424Y0072803D01*
X0154424Y0074402D02*
X0133515Y0074402D01*
X0132981Y0076000D02*
X0154424Y0076000D01*
X0154424Y0077599D02*
X0132005Y0077599D01*
X0129934Y0079197D02*
X0154424Y0079197D01*
X0154424Y0080796D02*
X0131524Y0080796D01*
X0132782Y0082394D02*
X0154424Y0082394D01*
X0154424Y0083993D02*
X0133444Y0083993D01*
X0133515Y0085591D02*
X0154424Y0085591D01*
X0154424Y0087190D02*
X0133316Y0087190D01*
X0132654Y0088788D02*
X0154424Y0088788D01*
X0158624Y0091985D02*
X0223605Y0091985D01*
X0222007Y0093584D02*
X0158624Y0093584D01*
X0158624Y0095183D02*
X0220408Y0095183D01*
X0218810Y0096781D02*
X0158624Y0096781D01*
X0158624Y0098380D02*
X0217211Y0098380D01*
X0215613Y0099978D02*
X0158624Y0099978D01*
X0158624Y0101577D02*
X0214014Y0101577D01*
X0212416Y0103175D02*
X0158624Y0103175D01*
X0158624Y0104774D02*
X0210817Y0104774D01*
X0209219Y0106372D02*
X0158624Y0106372D01*
X0158624Y0107971D02*
X0207620Y0107971D01*
X0206022Y0109569D02*
X0189365Y0109569D01*
X0189110Y0114365D02*
X0223864Y0114365D01*
X0222265Y0115963D02*
X0153894Y0115963D01*
X0155493Y0114365D02*
X0183978Y0114365D01*
X0183031Y0112766D02*
X0157091Y0112766D01*
X0158624Y0111168D02*
X0182944Y0111168D01*
X0183723Y0109569D02*
X0158624Y0109569D01*
X0152296Y0117562D02*
X0218546Y0117562D01*
X0218954Y0117154D02*
X0220277Y0116606D01*
X0221623Y0116606D01*
X0235109Y0103119D01*
X0235109Y0101773D01*
X0235658Y0100450D01*
X0236670Y0099437D01*
X0237993Y0098889D01*
X0239426Y0098889D01*
X0240749Y0099437D01*
X0241761Y0100450D01*
X0242309Y0101773D01*
X0242309Y0103205D01*
X0241761Y0104528D01*
X0240749Y0105541D01*
X0239426Y0106089D01*
X0238079Y0106089D01*
X0224593Y0119575D01*
X0224593Y0120922D01*
X0224045Y0122245D01*
X0223032Y0123257D01*
X0221709Y0123805D01*
X0220277Y0123805D01*
X0218954Y0123257D01*
X0217941Y0122245D01*
X0217393Y0120922D01*
X0217393Y0119489D01*
X0217941Y0118166D01*
X0218954Y0117154D01*
X0217529Y0119160D02*
X0150697Y0119160D01*
X0149099Y0120759D02*
X0217393Y0120759D01*
X0218053Y0122357D02*
X0147500Y0122357D01*
X0145902Y0123956D02*
X0228545Y0123956D01*
X0230143Y0122357D02*
X0223932Y0122357D01*
X0224593Y0120759D02*
X0231742Y0120759D01*
X0233340Y0119160D02*
X0225008Y0119160D01*
X0226607Y0117562D02*
X0234939Y0117562D01*
X0236537Y0115963D02*
X0228205Y0115963D01*
X0229804Y0114365D02*
X0238136Y0114365D01*
X0239734Y0112766D02*
X0231402Y0112766D01*
X0233001Y0111168D02*
X0258557Y0111168D01*
X0260156Y0109569D02*
X0234599Y0109569D01*
X0236198Y0107971D02*
X0261754Y0107971D01*
X0263353Y0106372D02*
X0237796Y0106372D01*
X0241516Y0104774D02*
X0264951Y0104774D01*
X0266550Y0103175D02*
X0242309Y0103175D01*
X0242228Y0101577D02*
X0268148Y0101577D01*
X0269747Y0099978D02*
X0241290Y0099978D01*
X0236129Y0099978D02*
X0221552Y0099978D01*
X0219954Y0101577D02*
X0235191Y0101577D01*
X0235053Y0103175D02*
X0218355Y0103175D01*
X0216757Y0104774D02*
X0233455Y0104774D01*
X0231856Y0106372D02*
X0215158Y0106372D01*
X0213560Y0107971D02*
X0230258Y0107971D01*
X0228659Y0109569D02*
X0211961Y0109569D01*
X0210363Y0111168D02*
X0227061Y0111168D01*
X0225462Y0112766D02*
X0208764Y0112766D01*
X0223151Y0098380D02*
X0271345Y0098380D01*
X0272944Y0096781D02*
X0224749Y0096781D01*
X0226348Y0095183D02*
X0274542Y0095183D01*
X0276141Y0093584D02*
X0227946Y0093584D01*
X0229545Y0091985D02*
X0277739Y0091985D01*
X0291560Y0104774D02*
X0410760Y0104774D01*
X0409162Y0103175D02*
X0293159Y0103175D01*
X0294757Y0101577D02*
X0407563Y0101577D01*
X0405965Y0099978D02*
X0296356Y0099978D01*
X0297954Y0098380D02*
X0404366Y0098380D01*
X0402768Y0096781D02*
X0299553Y0096781D01*
X0301151Y0095183D02*
X0401169Y0095183D01*
X0399571Y0093584D02*
X0302750Y0093584D01*
X0304348Y0091985D02*
X0397972Y0091985D01*
X0396374Y0090387D02*
X0305947Y0090387D01*
X0289962Y0106372D02*
X0412359Y0106372D01*
X0413957Y0107971D02*
X0288363Y0107971D01*
X0286764Y0109569D02*
X0415556Y0109569D01*
X0417154Y0111168D02*
X0285166Y0111168D01*
X0283567Y0112766D02*
X0418753Y0112766D01*
X0420352Y0114365D02*
X0281969Y0114365D01*
X0280370Y0115963D02*
X0421950Y0115963D01*
X0423549Y0117562D02*
X0278772Y0117562D01*
X0277173Y0119160D02*
X0425147Y0119160D01*
X0426746Y0120759D02*
X0275575Y0120759D01*
X0273976Y0122357D02*
X0291167Y0122357D01*
X0289568Y0123956D02*
X0272378Y0123956D01*
X0270779Y0125554D02*
X0287970Y0125554D01*
X0286371Y0127153D02*
X0269181Y0127153D01*
X0267582Y0128751D02*
X0284773Y0128751D01*
X0283174Y0130350D02*
X0265984Y0130350D01*
X0264385Y0131948D02*
X0281576Y0131948D01*
X0279977Y0133547D02*
X0262787Y0133547D01*
X0261188Y0135145D02*
X0278379Y0135145D01*
X0276780Y0136744D02*
X0259590Y0136744D01*
X0257991Y0138342D02*
X0275182Y0138342D01*
X0273583Y0139941D02*
X0256393Y0139941D01*
X0254794Y0141539D02*
X0271984Y0141539D01*
X0270386Y0143138D02*
X0253196Y0143138D01*
X0251597Y0144736D02*
X0268787Y0144736D01*
X0267189Y0146335D02*
X0249999Y0146335D01*
X0248400Y0147933D02*
X0265590Y0147933D01*
X0263992Y0149532D02*
X0246802Y0149532D01*
X0245203Y0151130D02*
X0262393Y0151130D01*
X0260795Y0152729D02*
X0243605Y0152729D01*
X0242006Y0154327D02*
X0259196Y0154327D01*
X0257598Y0155926D02*
X0240408Y0155926D01*
X0238809Y0157524D02*
X0255999Y0157524D01*
X0254401Y0159123D02*
X0237211Y0159123D01*
X0235612Y0160721D02*
X0252802Y0160721D01*
X0251204Y0162320D02*
X0234014Y0162320D01*
X0232415Y0163919D02*
X0249605Y0163919D01*
X0248007Y0165517D02*
X0222817Y0165517D01*
X0222335Y0167116D02*
X0246408Y0167116D01*
X0244810Y0168714D02*
X0221045Y0168714D01*
X0215390Y0168714D02*
X0214824Y0168714D01*
X0213226Y0170313D02*
X0243211Y0170313D01*
X0241613Y0171911D02*
X0196371Y0171911D01*
X0194773Y0173510D02*
X0240014Y0173510D01*
X0238416Y0175108D02*
X0193174Y0175108D01*
X0191576Y0176707D02*
X0236817Y0176707D01*
X0235219Y0178305D02*
X0189977Y0178305D01*
X0188379Y0179904D02*
X0233620Y0179904D01*
X0232022Y0181502D02*
X0186780Y0181502D01*
X0185182Y0183101D02*
X0230423Y0183101D01*
X0228825Y0184699D02*
X0183583Y0184699D01*
X0181985Y0186298D02*
X0227226Y0186298D01*
X0225628Y0187896D02*
X0180386Y0187896D01*
X0178788Y0189495D02*
X0224029Y0189495D01*
X0222431Y0191093D02*
X0177189Y0191093D01*
X0175591Y0192692D02*
X0220832Y0192692D01*
X0219234Y0194290D02*
X0173992Y0194290D01*
X0172394Y0195889D02*
X0217635Y0195889D01*
X0216037Y0197487D02*
X0183013Y0197487D01*
X0183421Y0197656D02*
X0184715Y0198950D01*
X0185416Y0200641D01*
X0185416Y0208471D01*
X0184715Y0210162D01*
X0183742Y0211135D01*
X0183943Y0211280D01*
X0184477Y0211815D01*
X0184921Y0212426D01*
X0185264Y0213099D01*
X0185498Y0213818D01*
X0185616Y0214564D01*
X0185616Y0217742D01*
X0181016Y0217742D01*
X0181016Y0218142D01*
X0180616Y0218142D01*
X0180616Y0225742D01*
X0180438Y0225742D01*
X0179692Y0225624D01*
X0178973Y0225390D01*
X0178300Y0225047D01*
X0177689Y0224603D01*
X0177155Y0224069D01*
X0176710Y0223457D01*
X0176367Y0222784D01*
X0176134Y0222066D01*
X0176016Y0221320D01*
X0176016Y0218142D01*
X0180616Y0218142D01*
X0180616Y0217742D01*
X0176016Y0217742D01*
X0176016Y0214564D01*
X0176134Y0213818D01*
X0176367Y0213099D01*
X0176710Y0212426D01*
X0177155Y0211815D01*
X0177689Y0211280D01*
X0177889Y0211135D01*
X0176916Y0210162D01*
X0176216Y0208471D01*
X0176216Y0200641D01*
X0176916Y0198950D01*
X0178210Y0197656D01*
X0179901Y0196956D01*
X0181731Y0196956D01*
X0183421Y0197656D01*
X0184772Y0199086D02*
X0214438Y0199086D01*
X0212840Y0200684D02*
X0185416Y0200684D01*
X0185416Y0202283D02*
X0211241Y0202283D01*
X0209643Y0203881D02*
X0185416Y0203881D01*
X0185416Y0205480D02*
X0208044Y0205480D01*
X0206446Y0207078D02*
X0185416Y0207078D01*
X0185330Y0208677D02*
X0204847Y0208677D01*
X0203249Y0210275D02*
X0184602Y0210275D01*
X0184520Y0211874D02*
X0201650Y0211874D01*
X0200051Y0213472D02*
X0185385Y0213472D01*
X0185616Y0215071D02*
X0198453Y0215071D01*
X0196854Y0216669D02*
X0185616Y0216669D01*
X0185616Y0218142D02*
X0185616Y0221320D01*
X0185498Y0222066D01*
X0185264Y0222784D01*
X0184921Y0223457D01*
X0184477Y0224069D01*
X0183943Y0224603D01*
X0183331Y0225047D01*
X0182658Y0225390D01*
X0181940Y0225624D01*
X0181194Y0225742D01*
X0181016Y0225742D01*
X0181016Y0218142D01*
X0185616Y0218142D01*
X0185616Y0218268D02*
X0195256Y0218268D01*
X0193657Y0219866D02*
X0185616Y0219866D01*
X0185593Y0221465D02*
X0192059Y0221465D01*
X0190460Y0223063D02*
X0185122Y0223063D01*
X0183862Y0224662D02*
X0188862Y0224662D01*
X0187263Y0226260D02*
X0153341Y0226260D01*
X0154939Y0224662D02*
X0168031Y0224662D01*
X0166716Y0223063D02*
X0156538Y0223063D01*
X0158136Y0221465D02*
X0166216Y0221465D01*
X0173601Y0224662D02*
X0177770Y0224662D01*
X0176510Y0223063D02*
X0174916Y0223063D01*
X0175416Y0221465D02*
X0176039Y0221465D01*
X0176016Y0219866D02*
X0175416Y0219866D01*
X0175416Y0218268D02*
X0176016Y0218268D01*
X0176016Y0216669D02*
X0175416Y0216669D01*
X0175416Y0215071D02*
X0176016Y0215071D01*
X0176246Y0213472D02*
X0175186Y0213472D01*
X0174253Y0211874D02*
X0177112Y0211874D01*
X0177030Y0210275D02*
X0174773Y0210275D01*
X0175498Y0208677D02*
X0176301Y0208677D01*
X0176216Y0207078D02*
X0175616Y0207078D01*
X0175616Y0205480D02*
X0176216Y0205480D01*
X0176216Y0203881D02*
X0175616Y0203881D01*
X0175616Y0202283D02*
X0176216Y0202283D01*
X0176216Y0200684D02*
X0175538Y0200684D01*
X0174944Y0199086D02*
X0176860Y0199086D01*
X0178618Y0197487D02*
X0173382Y0197487D01*
X0169651Y0192692D02*
X0139744Y0192692D01*
X0139828Y0192952D02*
X0139946Y0193698D01*
X0139946Y0196876D01*
X0135347Y0196876D01*
X0135347Y0197276D01*
X0139946Y0197276D01*
X0139946Y0200453D01*
X0139828Y0201200D01*
X0139595Y0201918D01*
X0139252Y0202591D01*
X0138808Y0203203D01*
X0138273Y0203737D01*
X0137662Y0204181D01*
X0136989Y0204524D01*
X0136270Y0204757D01*
X0135524Y0204876D01*
X0135346Y0204876D01*
X0135346Y0197276D01*
X0134946Y0197276D01*
X0134946Y0196876D01*
X0130346Y0196876D01*
X0130346Y0193698D01*
X0130465Y0192952D01*
X0130698Y0192233D01*
X0131041Y0191560D01*
X0131485Y0190949D01*
X0132019Y0190414D01*
X0132631Y0189970D01*
X0133304Y0189627D01*
X0134022Y0189394D01*
X0134769Y0189276D01*
X0134946Y0189276D01*
X0134946Y0196876D01*
X0135346Y0196876D01*
X0135346Y0189276D01*
X0135524Y0189276D01*
X0136270Y0189394D01*
X0136989Y0189627D01*
X0137662Y0189970D01*
X0138273Y0190414D01*
X0138808Y0190949D01*
X0139252Y0191560D01*
X0139595Y0192233D01*
X0139828Y0192952D01*
X0139946Y0194290D02*
X0168053Y0194290D01*
X0166454Y0195889D02*
X0139946Y0195889D01*
X0139946Y0197487D02*
X0164855Y0197487D01*
X0163257Y0199086D02*
X0139946Y0199086D01*
X0139910Y0200684D02*
X0161658Y0200684D01*
X0160060Y0202283D02*
X0139409Y0202283D01*
X0138075Y0203881D02*
X0158461Y0203881D01*
X0156863Y0205480D02*
X0100576Y0205480D01*
X0100235Y0204676D02*
X0101925Y0203975D01*
X0103219Y0202681D01*
X0103920Y0200991D01*
X0103920Y0195465D01*
X0104720Y0194665D01*
X0104720Y0200991D01*
X0105420Y0202681D01*
X0106714Y0203975D01*
X0108405Y0204676D01*
X0110235Y0204676D01*
X0111925Y0203975D01*
X0113219Y0202681D01*
X0113920Y0200991D01*
X0113920Y0193161D01*
X0113219Y0191470D01*
X0111925Y0190176D01*
X0110235Y0189476D01*
X0109909Y0189476D01*
X0148536Y0150849D01*
X0204011Y0150849D01*
X0204011Y0150991D01*
X0204711Y0152681D01*
X0206005Y0153975D01*
X0207210Y0154474D01*
X0205612Y0155137D01*
X0204318Y0156431D01*
X0203617Y0158121D01*
X0203617Y0165951D01*
X0204184Y0167318D01*
X0195025Y0167318D01*
X0193794Y0168548D01*
X0128719Y0233623D01*
X0099771Y0204676D01*
X0100235Y0204676D01*
X0102019Y0203881D02*
X0106620Y0203881D01*
X0105255Y0202283D02*
X0103384Y0202283D01*
X0103920Y0200684D02*
X0104720Y0200684D01*
X0104720Y0199086D02*
X0103920Y0199086D01*
X0103920Y0197487D02*
X0104720Y0197487D01*
X0104720Y0195889D02*
X0103920Y0195889D01*
X0094720Y0195889D02*
X0093920Y0195889D01*
X0093920Y0197487D02*
X0094720Y0197487D01*
X0094720Y0199086D02*
X0094182Y0199086D01*
X0093920Y0194290D02*
X0094720Y0194290D01*
X0094914Y0192692D02*
X0093725Y0192692D01*
X0092843Y0191093D02*
X0095797Y0191093D01*
X0110281Y0189495D02*
X0124185Y0189495D01*
X0124231Y0189476D02*
X0126061Y0189476D01*
X0127752Y0190176D01*
X0129046Y0191470D01*
X0129746Y0193161D01*
X0129746Y0200991D01*
X0129046Y0202681D01*
X0127752Y0203975D01*
X0126061Y0204676D01*
X0124231Y0204676D01*
X0122541Y0203975D01*
X0121247Y0202681D01*
X0120546Y0200991D01*
X0120546Y0193161D01*
X0121247Y0191470D01*
X0122541Y0190176D01*
X0124231Y0189476D01*
X0126108Y0189495D02*
X0133712Y0189495D01*
X0134946Y0189495D02*
X0135346Y0189495D01*
X0136581Y0189495D02*
X0172848Y0189495D01*
X0171250Y0191093D02*
X0138913Y0191093D01*
X0135346Y0191093D02*
X0134946Y0191093D01*
X0134946Y0192692D02*
X0135346Y0192692D01*
X0135346Y0194290D02*
X0134946Y0194290D01*
X0134946Y0195889D02*
X0135346Y0195889D01*
X0134946Y0197276D02*
X0130346Y0197276D01*
X0130346Y0200453D01*
X0130465Y0201200D01*
X0130698Y0201918D01*
X0131041Y0202591D01*
X0131485Y0203203D01*
X0132019Y0203737D01*
X0132631Y0204181D01*
X0133304Y0204524D01*
X0134022Y0204757D01*
X0134769Y0204876D01*
X0134946Y0204876D01*
X0134946Y0197276D01*
X0134946Y0197487D02*
X0135346Y0197487D01*
X0135346Y0199086D02*
X0134946Y0199086D01*
X0134946Y0200684D02*
X0135346Y0200684D01*
X0135346Y0202283D02*
X0134946Y0202283D01*
X0134946Y0203881D02*
X0135346Y0203881D01*
X0132218Y0203881D02*
X0127846Y0203881D01*
X0129211Y0202283D02*
X0130884Y0202283D01*
X0130383Y0200684D02*
X0129746Y0200684D01*
X0129746Y0199086D02*
X0130346Y0199086D01*
X0130346Y0197487D02*
X0129746Y0197487D01*
X0129746Y0195889D02*
X0130346Y0195889D01*
X0130346Y0194290D02*
X0129746Y0194290D01*
X0129552Y0192692D02*
X0130549Y0192692D01*
X0131380Y0191093D02*
X0128669Y0191093D01*
X0121623Y0191093D02*
X0112843Y0191093D01*
X0113725Y0192692D02*
X0120741Y0192692D01*
X0120546Y0194290D02*
X0113920Y0194290D01*
X0113920Y0195889D02*
X0120546Y0195889D01*
X0120546Y0197487D02*
X0113920Y0197487D01*
X0113920Y0199086D02*
X0120546Y0199086D01*
X0120546Y0200684D02*
X0113920Y0200684D01*
X0113384Y0202283D02*
X0121082Y0202283D01*
X0122447Y0203881D02*
X0112019Y0203881D01*
X0105371Y0210275D02*
X0152067Y0210275D01*
X0150469Y0211874D02*
X0106970Y0211874D01*
X0108568Y0213472D02*
X0148870Y0213472D01*
X0147272Y0215071D02*
X0110167Y0215071D01*
X0111765Y0216669D02*
X0145673Y0216669D01*
X0144075Y0218268D02*
X0113364Y0218268D01*
X0114962Y0219866D02*
X0142476Y0219866D01*
X0140878Y0221465D02*
X0116561Y0221465D01*
X0118159Y0223063D02*
X0139279Y0223063D01*
X0137681Y0224662D02*
X0119758Y0224662D01*
X0121356Y0226260D02*
X0136082Y0226260D01*
X0134484Y0227859D02*
X0122955Y0227859D01*
X0124553Y0229457D02*
X0132885Y0229457D01*
X0131287Y0231056D02*
X0126152Y0231056D01*
X0127750Y0232654D02*
X0129688Y0232654D01*
X0132431Y0235852D02*
X0137810Y0235852D01*
X0136212Y0237450D02*
X0134667Y0237450D01*
X0134970Y0237753D02*
X0133957Y0236740D01*
X0132634Y0236192D01*
X0132090Y0236192D01*
X0166016Y0202267D01*
X0166016Y0204356D01*
X0170616Y0204356D01*
X0170616Y0204756D01*
X0166016Y0204756D01*
X0166016Y0207934D01*
X0166134Y0208680D01*
X0166367Y0209398D01*
X0166710Y0210072D01*
X0167155Y0210683D01*
X0167689Y0211217D01*
X0167889Y0211363D01*
X0166916Y0212336D01*
X0166216Y0214027D01*
X0166216Y0216039D01*
X0157623Y0216039D01*
X0156393Y0217269D01*
X0135245Y0238417D01*
X0134970Y0237753D01*
X0134029Y0234253D02*
X0139409Y0234253D01*
X0141007Y0232654D02*
X0135628Y0232654D01*
X0137226Y0231056D02*
X0142606Y0231056D01*
X0144204Y0229457D02*
X0138825Y0229457D01*
X0140423Y0227859D02*
X0145803Y0227859D01*
X0147401Y0226260D02*
X0142022Y0226260D01*
X0143620Y0224662D02*
X0149000Y0224662D01*
X0150598Y0223063D02*
X0145219Y0223063D01*
X0146818Y0221465D02*
X0152197Y0221465D01*
X0153795Y0219866D02*
X0148416Y0219866D01*
X0150015Y0218268D02*
X0155394Y0218268D01*
X0156992Y0216669D02*
X0151613Y0216669D01*
X0153212Y0215071D02*
X0166216Y0215071D01*
X0166445Y0213472D02*
X0154810Y0213472D01*
X0156409Y0211874D02*
X0167378Y0211874D01*
X0166858Y0210275D02*
X0158007Y0210275D01*
X0159606Y0208677D02*
X0166133Y0208677D01*
X0166016Y0207078D02*
X0161204Y0207078D01*
X0162803Y0205480D02*
X0166016Y0205480D01*
X0166016Y0203881D02*
X0164401Y0203881D01*
X0166000Y0202283D02*
X0166016Y0202283D01*
X0155264Y0207078D02*
X0102174Y0207078D01*
X0103773Y0208677D02*
X0153666Y0208677D01*
X0151742Y0227859D02*
X0185665Y0227859D01*
X0184066Y0229457D02*
X0150144Y0229457D01*
X0148545Y0231056D02*
X0182468Y0231056D01*
X0180869Y0232654D02*
X0146947Y0232654D01*
X0145348Y0234253D02*
X0179271Y0234253D01*
X0177672Y0235852D02*
X0143750Y0235852D01*
X0142151Y0237450D02*
X0176074Y0237450D01*
X0174475Y0239049D02*
X0140553Y0239049D01*
X0138954Y0240647D02*
X0146701Y0240647D01*
X0146853Y0240584D02*
X0148794Y0240584D01*
X0150587Y0241326D01*
X0151959Y0242698D01*
X0152701Y0244491D01*
X0152701Y0246432D01*
X0151959Y0248224D01*
X0150587Y0249596D01*
X0148794Y0250339D01*
X0146853Y0250339D01*
X0145061Y0249596D01*
X0143689Y0248224D01*
X0142946Y0246432D01*
X0142946Y0244491D01*
X0143689Y0242698D01*
X0145061Y0241326D01*
X0146853Y0240584D01*
X0148946Y0240647D02*
X0156209Y0240647D01*
X0155875Y0240756D02*
X0156635Y0240509D01*
X0157424Y0240384D01*
X0157531Y0240384D01*
X0157531Y0245169D01*
X0152746Y0245169D01*
X0152746Y0245062D01*
X0152871Y0244272D01*
X0153118Y0243512D01*
X0153481Y0242800D01*
X0153951Y0242154D01*
X0154516Y0241588D01*
X0155162Y0241119D01*
X0155875Y0240756D01*
X0157531Y0240647D02*
X0158116Y0240647D01*
X0158116Y0240384D02*
X0158223Y0240384D01*
X0159013Y0240509D01*
X0159773Y0240756D01*
X0160485Y0241119D01*
X0161131Y0241588D01*
X0161697Y0242154D01*
X0162166Y0242800D01*
X0162529Y0243512D01*
X0162776Y0244272D01*
X0162901Y0245062D01*
X0162901Y0245169D01*
X0158116Y0245169D01*
X0158116Y0240384D01*
X0159438Y0240647D02*
X0166701Y0240647D01*
X0168946Y0240647D02*
X0172877Y0240647D01*
X0164142Y0242246D02*
X0161763Y0242246D01*
X0162637Y0243844D02*
X0163214Y0243844D01*
X0162946Y0245443D02*
X0158116Y0245443D01*
X0158116Y0245169D02*
X0158116Y0245754D01*
X0157531Y0245754D01*
X0157531Y0245169D01*
X0158116Y0245169D01*
X0158116Y0245754D02*
X0162901Y0245754D01*
X0162901Y0245861D01*
X0162776Y0246650D01*
X0162529Y0247411D01*
X0162166Y0248123D01*
X0161697Y0248769D01*
X0161131Y0249334D01*
X0160485Y0249804D01*
X0159773Y0250167D01*
X0159013Y0250414D01*
X0158223Y0250539D01*
X0158116Y0250539D01*
X0158116Y0245754D01*
X0157531Y0245754D02*
X0157531Y0250539D01*
X0157424Y0250539D01*
X0156635Y0250414D01*
X0155875Y0250167D01*
X0155162Y0249804D01*
X0154516Y0249334D01*
X0153951Y0248769D01*
X0153481Y0248123D01*
X0153118Y0247411D01*
X0152871Y0246650D01*
X0152746Y0245861D01*
X0152746Y0245754D01*
X0157531Y0245754D01*
X0157531Y0245443D02*
X0152701Y0245443D01*
X0152449Y0247041D02*
X0152998Y0247041D01*
X0153857Y0248640D02*
X0151543Y0248640D01*
X0149037Y0250238D02*
X0156093Y0250238D01*
X0157531Y0250238D02*
X0158116Y0250238D01*
X0159554Y0250238D02*
X0166610Y0250238D01*
X0169037Y0250238D02*
X0170665Y0250238D01*
X0170665Y0251837D02*
X0131210Y0251837D01*
X0132808Y0250238D02*
X0136610Y0250238D01*
X0139037Y0250238D02*
X0146610Y0250238D01*
X0144104Y0248640D02*
X0141543Y0248640D01*
X0142449Y0247041D02*
X0143199Y0247041D01*
X0142946Y0245443D02*
X0142701Y0245443D01*
X0142433Y0243844D02*
X0143214Y0243844D01*
X0144142Y0242246D02*
X0141506Y0242246D01*
X0151506Y0242246D02*
X0153884Y0242246D01*
X0153010Y0243844D02*
X0152433Y0243844D01*
X0157531Y0243844D02*
X0158116Y0243844D01*
X0158116Y0242246D02*
X0157531Y0242246D01*
X0157531Y0247041D02*
X0158116Y0247041D01*
X0158116Y0248640D02*
X0157531Y0248640D01*
X0161791Y0248640D02*
X0164104Y0248640D01*
X0163199Y0247041D02*
X0162649Y0247041D01*
X0170665Y0253435D02*
X0129611Y0253435D01*
X0128013Y0255034D02*
X0159898Y0255034D01*
X0162009Y0255034D02*
X0170665Y0255034D01*
X0170665Y0256632D02*
X0164079Y0256632D01*
X0164554Y0258231D02*
X0170665Y0258231D01*
X0170665Y0259829D02*
X0165260Y0259829D01*
X0166858Y0261428D02*
X0170665Y0261428D01*
X0170665Y0263026D02*
X0168457Y0263026D01*
X0170055Y0264625D02*
X0170665Y0264625D01*
X0174865Y0264625D02*
X0177953Y0264625D01*
X0177953Y0264161D02*
X0178075Y0263704D01*
X0178312Y0263293D01*
X0178648Y0262958D01*
X0179058Y0262721D01*
X0179516Y0262598D01*
X0183972Y0262598D01*
X0183972Y0272260D01*
X0185572Y0272260D01*
X0185572Y0262598D01*
X0190029Y0262598D01*
X0190487Y0262721D01*
X0190897Y0262958D01*
X0191232Y0263293D01*
X0191469Y0263704D01*
X0191592Y0264161D01*
X0191592Y0272260D01*
X0185572Y0272260D01*
X0185572Y0273860D01*
X0183972Y0273860D01*
X0183972Y0283521D01*
X0179516Y0283521D01*
X0179058Y0283399D01*
X0178648Y0283162D01*
X0178312Y0282826D01*
X0178309Y0282821D01*
X0178309Y0299125D01*
X0178312Y0299120D01*
X0178648Y0298785D01*
X0179058Y0298548D01*
X0179516Y0298425D01*
X0183972Y0298425D01*
X0183972Y0308087D01*
X0185572Y0308087D01*
X0185572Y0298425D01*
X0190029Y0298425D01*
X0190487Y0298548D01*
X0190897Y0298785D01*
X0191232Y0299120D01*
X0191469Y0299530D01*
X0191592Y0299988D01*
X0191592Y0308087D01*
X0185572Y0308087D01*
X0185572Y0309687D01*
X0183972Y0309687D01*
X0183972Y0319348D01*
X0179516Y0319348D01*
X0179058Y0319225D01*
X0178648Y0318988D01*
X0178312Y0318653D01*
X0178309Y0318648D01*
X0178309Y0327768D01*
X0172375Y0333703D01*
X0172701Y0334491D01*
X0172701Y0336432D01*
X0172016Y0338086D01*
X0173462Y0338086D01*
X0173118Y0337411D01*
X0172871Y0336650D01*
X0172746Y0335861D01*
X0172746Y0335754D01*
X0177531Y0335754D01*
X0177531Y0335169D01*
X0172746Y0335169D01*
X0172746Y0335062D01*
X0172871Y0334272D01*
X0173118Y0333512D01*
X0173481Y0332800D01*
X0173951Y0332154D01*
X0174516Y0331588D01*
X0175162Y0331119D01*
X0175875Y0330756D01*
X0176635Y0330509D01*
X0177424Y0330384D01*
X0177531Y0330384D01*
X0177531Y0335169D01*
X0178116Y0335169D01*
X0178116Y0330384D01*
X0178223Y0330384D01*
X0179013Y0330509D01*
X0179773Y0330756D01*
X0180485Y0331119D01*
X0181131Y0331588D01*
X0181697Y0332154D01*
X0182166Y0332800D01*
X0182529Y0333512D01*
X0182776Y0334272D01*
X0182901Y0335062D01*
X0182901Y0335169D01*
X0178116Y0335169D01*
X0178116Y0335754D01*
X0182901Y0335754D01*
X0182901Y0335861D01*
X0182776Y0336650D01*
X0182529Y0337411D01*
X0182185Y0338086D01*
X0182946Y0338086D01*
X0182946Y0331521D01*
X0183883Y0330584D01*
X0191764Y0330584D01*
X0192701Y0331521D01*
X0192701Y0338086D01*
X0201422Y0338086D01*
X0266033Y0273475D01*
X0253893Y0273475D01*
X0252956Y0272538D01*
X0252956Y0269943D01*
X0199870Y0269943D01*
X0198918Y0270895D01*
X0197595Y0271443D01*
X0196163Y0271443D01*
X0194839Y0270895D01*
X0193827Y0269883D01*
X0193279Y0268559D01*
X0193279Y0267127D01*
X0193827Y0265804D01*
X0194839Y0264791D01*
X0196163Y0264243D01*
X0197595Y0264243D01*
X0198918Y0264791D01*
X0199870Y0265743D01*
X0252956Y0265743D01*
X0252956Y0262551D01*
X0253893Y0261613D01*
X0259739Y0261613D01*
X0259739Y0249143D01*
X0258580Y0249143D01*
X0257643Y0248206D01*
X0257643Y0238081D01*
X0258260Y0237463D01*
X0255925Y0237463D01*
X0256543Y0238081D01*
X0256543Y0248206D01*
X0255605Y0249143D01*
X0249553Y0249143D01*
X0247699Y0250997D01*
X0246469Y0252227D01*
X0246313Y0252227D01*
X0246313Y0253250D01*
X0245376Y0254187D01*
X0240114Y0254187D01*
X0239176Y0253250D01*
X0239176Y0252719D01*
X0205775Y0252719D01*
X0204823Y0253671D01*
X0203500Y0254219D01*
X0202068Y0254219D01*
X0200745Y0253671D01*
X0199732Y0252658D01*
X0199184Y0251335D01*
X0199184Y0249903D01*
X0199732Y0248580D01*
X0200745Y0247567D01*
X0202068Y0247019D01*
X0203500Y0247019D01*
X0204823Y0247567D01*
X0205775Y0248519D01*
X0239176Y0248519D01*
X0239176Y0247594D01*
X0239553Y0247217D01*
X0239336Y0247000D01*
X0239099Y0246589D01*
X0238976Y0246131D01*
X0238976Y0243913D01*
X0242561Y0243913D01*
X0242561Y0243545D01*
X0242929Y0243545D01*
X0242929Y0243913D01*
X0246513Y0243913D01*
X0246513Y0246131D01*
X0246473Y0246284D01*
X0248543Y0244214D01*
X0248543Y0238081D01*
X0249160Y0237463D01*
X0198733Y0237463D01*
X0192701Y0243495D01*
X0192701Y0249402D01*
X0191764Y0250339D01*
X0183883Y0250339D01*
X0182946Y0249402D01*
X0182946Y0243407D01*
X0182455Y0243898D01*
X0182701Y0244491D01*
X0182701Y0246432D01*
X0181959Y0248224D01*
X0180587Y0249596D01*
X0178794Y0250339D01*
X0176853Y0250339D01*
X0175061Y0249596D01*
X0174865Y0249400D01*
X0174865Y0268933D01*
X0175493Y0268672D01*
X0176926Y0268672D01*
X0177953Y0269098D01*
X0177953Y0264161D01*
X0178579Y0263026D02*
X0174865Y0263026D01*
X0174865Y0261428D02*
X0259739Y0261428D01*
X0259739Y0259829D02*
X0174865Y0259829D01*
X0174865Y0258231D02*
X0259739Y0258231D01*
X0259739Y0256632D02*
X0174865Y0256632D01*
X0174865Y0255034D02*
X0259739Y0255034D01*
X0259739Y0253435D02*
X0246128Y0253435D01*
X0246859Y0251837D02*
X0259739Y0251837D01*
X0259739Y0250238D02*
X0248458Y0250238D01*
X0247699Y0250997D02*
X0247699Y0250997D01*
X0256109Y0248640D02*
X0258076Y0248640D01*
X0257643Y0247041D02*
X0256543Y0247041D01*
X0256543Y0245443D02*
X0257643Y0245443D01*
X0257643Y0243844D02*
X0256543Y0243844D01*
X0256543Y0242246D02*
X0257643Y0242246D01*
X0257643Y0240647D02*
X0256543Y0240647D01*
X0256543Y0239049D02*
X0257643Y0239049D01*
X0265012Y0237450D02*
X0267090Y0237450D01*
X0266543Y0239049D02*
X0265643Y0239049D01*
X0265643Y0240647D02*
X0266543Y0240647D01*
X0266543Y0242246D02*
X0265643Y0242246D01*
X0265643Y0243844D02*
X0266543Y0243844D01*
X0270342Y0242246D02*
X0271143Y0242246D01*
X0271143Y0240647D02*
X0270342Y0240647D01*
X0270342Y0239049D02*
X0271143Y0239049D01*
X0271143Y0237450D02*
X0270342Y0237450D01*
X0274943Y0240647D02*
X0277730Y0240647D01*
X0277860Y0240517D02*
X0278271Y0240280D01*
X0278728Y0240157D01*
X0280750Y0240157D01*
X0280750Y0243938D01*
X0280750Y0243939D02*
X0277165Y0243939D01*
X0277165Y0241720D01*
X0277288Y0241263D01*
X0277525Y0240852D01*
X0277860Y0240517D01*
X0277165Y0242246D02*
X0274943Y0242246D01*
X0274943Y0243844D02*
X0277165Y0243844D01*
X0277165Y0245443D02*
X0274943Y0245443D01*
X0274943Y0247041D02*
X0277322Y0247041D01*
X0280750Y0243844D02*
X0281118Y0243844D01*
X0281118Y0242246D02*
X0280750Y0242246D01*
X0280750Y0240647D02*
X0281118Y0240647D01*
X0289143Y0258231D02*
X0289611Y0258231D01*
X0291210Y0259829D02*
X0287382Y0259829D01*
X0284020Y0261428D02*
X0292808Y0261428D01*
X0294407Y0263026D02*
X0282422Y0263026D01*
X0280823Y0264625D02*
X0295641Y0264625D01*
X0295896Y0266223D02*
X0279225Y0266223D01*
X0277626Y0267822D02*
X0297081Y0267822D01*
X0306011Y0274216D02*
X0353875Y0274216D01*
X0286328Y0269420D02*
X0276028Y0269420D01*
X0274429Y0271019D02*
X0284729Y0271019D01*
X0283131Y0272617D02*
X0272831Y0272617D01*
X0271232Y0274216D02*
X0281532Y0274216D01*
X0279934Y0275814D02*
X0269633Y0275814D01*
X0268035Y0277413D02*
X0278335Y0277413D01*
X0276737Y0279011D02*
X0266436Y0279011D01*
X0264838Y0280610D02*
X0275138Y0280610D01*
X0274011Y0282208D02*
X0263239Y0282208D01*
X0261641Y0283807D02*
X0274011Y0283807D01*
X0274011Y0285405D02*
X0260042Y0285405D01*
X0258444Y0287004D02*
X0274011Y0287004D01*
X0274011Y0288602D02*
X0256845Y0288602D01*
X0255247Y0290201D02*
X0274011Y0290201D01*
X0274011Y0291799D02*
X0253648Y0291799D01*
X0252050Y0293398D02*
X0274011Y0293398D01*
X0274011Y0294996D02*
X0250451Y0294996D01*
X0248853Y0296595D02*
X0274011Y0296595D01*
X0274011Y0298193D02*
X0247254Y0298193D01*
X0245656Y0299792D02*
X0274011Y0299792D01*
X0274011Y0301390D02*
X0244057Y0301390D01*
X0242459Y0302989D02*
X0275314Y0302989D01*
X0276913Y0304588D02*
X0240860Y0304588D01*
X0239262Y0306186D02*
X0278511Y0306186D01*
X0278417Y0307785D02*
X0237663Y0307785D01*
X0236065Y0309383D02*
X0279095Y0309383D01*
X0249307Y0290201D02*
X0178309Y0290201D01*
X0178309Y0291799D02*
X0247709Y0291799D01*
X0246110Y0293398D02*
X0178309Y0293398D01*
X0178309Y0294996D02*
X0244512Y0294996D01*
X0242913Y0296595D02*
X0178309Y0296595D01*
X0178309Y0298193D02*
X0241315Y0298193D01*
X0239716Y0299792D02*
X0191540Y0299792D01*
X0191592Y0301390D02*
X0238118Y0301390D01*
X0236519Y0302989D02*
X0191592Y0302989D01*
X0191592Y0304588D02*
X0234921Y0304588D01*
X0233322Y0306186D02*
X0191592Y0306186D01*
X0191592Y0307785D02*
X0231724Y0307785D01*
X0230125Y0309383D02*
X0185572Y0309383D01*
X0185572Y0309687D02*
X0191592Y0309687D01*
X0191592Y0317785D01*
X0191469Y0318243D01*
X0191232Y0318653D01*
X0190897Y0318988D01*
X0190487Y0319225D01*
X0190029Y0319348D01*
X0185572Y0319348D01*
X0185572Y0309687D01*
X0185572Y0310982D02*
X0183972Y0310982D01*
X0183972Y0312580D02*
X0185572Y0312580D01*
X0185572Y0314179D02*
X0183972Y0314179D01*
X0183972Y0315777D02*
X0185572Y0315777D01*
X0185572Y0317376D02*
X0183972Y0317376D01*
X0183972Y0318974D02*
X0185572Y0318974D01*
X0190912Y0318974D02*
X0220534Y0318974D01*
X0222133Y0317376D02*
X0191592Y0317376D01*
X0191592Y0315777D02*
X0223731Y0315777D01*
X0225330Y0314179D02*
X0191592Y0314179D01*
X0191592Y0312580D02*
X0226928Y0312580D01*
X0228527Y0310982D02*
X0191592Y0310982D01*
X0185572Y0307785D02*
X0183972Y0307785D01*
X0183972Y0306186D02*
X0185572Y0306186D01*
X0185572Y0304588D02*
X0183972Y0304588D01*
X0183972Y0302989D02*
X0185572Y0302989D01*
X0185572Y0301390D02*
X0183972Y0301390D01*
X0183972Y0299792D02*
X0185572Y0299792D01*
X0178309Y0288602D02*
X0250906Y0288602D01*
X0252504Y0287004D02*
X0178309Y0287004D01*
X0178309Y0285405D02*
X0254103Y0285405D01*
X0255701Y0283807D02*
X0178309Y0283807D01*
X0183972Y0282208D02*
X0185572Y0282208D01*
X0185572Y0283521D02*
X0185572Y0273860D01*
X0191592Y0273860D01*
X0191592Y0281958D01*
X0191469Y0282416D01*
X0191232Y0282826D01*
X0190897Y0283162D01*
X0190487Y0283399D01*
X0190029Y0283521D01*
X0185572Y0283521D01*
X0185572Y0280610D02*
X0183972Y0280610D01*
X0183972Y0279011D02*
X0185572Y0279011D01*
X0185572Y0277413D02*
X0183972Y0277413D01*
X0183972Y0275814D02*
X0185572Y0275814D01*
X0185572Y0274216D02*
X0183972Y0274216D01*
X0185572Y0272617D02*
X0253036Y0272617D01*
X0252956Y0271019D02*
X0198620Y0271019D01*
X0195138Y0271019D02*
X0191592Y0271019D01*
X0191592Y0269420D02*
X0193635Y0269420D01*
X0193279Y0267822D02*
X0191592Y0267822D01*
X0191592Y0266223D02*
X0193653Y0266223D01*
X0195242Y0264625D02*
X0191592Y0264625D01*
X0190965Y0263026D02*
X0252956Y0263026D01*
X0252956Y0264625D02*
X0198516Y0264625D01*
X0191592Y0274216D02*
X0265292Y0274216D01*
X0263694Y0275814D02*
X0191592Y0275814D01*
X0191592Y0277413D02*
X0262095Y0277413D01*
X0260497Y0279011D02*
X0191592Y0279011D01*
X0191592Y0280610D02*
X0258898Y0280610D01*
X0257300Y0282208D02*
X0191525Y0282208D01*
X0185572Y0271019D02*
X0183972Y0271019D01*
X0183972Y0269420D02*
X0185572Y0269420D01*
X0185572Y0267822D02*
X0183972Y0267822D01*
X0183972Y0266223D02*
X0185572Y0266223D01*
X0185572Y0264625D02*
X0183972Y0264625D01*
X0183972Y0263026D02*
X0185572Y0263026D01*
X0177953Y0266223D02*
X0174865Y0266223D01*
X0174865Y0267822D02*
X0177953Y0267822D01*
X0158797Y0261428D02*
X0121619Y0261428D01*
X0123217Y0259829D02*
X0157610Y0259829D01*
X0157354Y0258231D02*
X0124816Y0258231D01*
X0126414Y0256632D02*
X0157828Y0256632D01*
X0153862Y0263026D02*
X0120020Y0263026D01*
X0118421Y0264625D02*
X0153153Y0264625D01*
X0153153Y0266223D02*
X0116823Y0266223D01*
X0115224Y0267822D02*
X0153153Y0267822D01*
X0153153Y0269420D02*
X0113626Y0269420D01*
X0112027Y0271019D02*
X0153153Y0271019D01*
X0153153Y0272617D02*
X0121114Y0272617D01*
X0120550Y0277413D02*
X0153153Y0277413D01*
X0153153Y0279011D02*
X0104035Y0279011D01*
X0105633Y0277413D02*
X0115727Y0277413D01*
X0114690Y0275814D02*
X0107232Y0275814D01*
X0108830Y0274216D02*
X0114539Y0274216D01*
X0115163Y0272617D02*
X0110429Y0272617D01*
X0107686Y0269420D02*
X0076931Y0269420D01*
X0076931Y0267822D02*
X0109285Y0267822D01*
X0110883Y0266223D02*
X0076931Y0266223D01*
X0076931Y0264625D02*
X0112482Y0264625D01*
X0114080Y0263026D02*
X0076931Y0263026D01*
X0076931Y0261428D02*
X0115679Y0261428D01*
X0117277Y0259829D02*
X0076931Y0259829D01*
X0076931Y0258231D02*
X0118876Y0258231D01*
X0120474Y0256632D02*
X0076931Y0256632D01*
X0076931Y0255034D02*
X0122073Y0255034D01*
X0123671Y0253435D02*
X0076931Y0253435D01*
X0076931Y0251837D02*
X0125270Y0251837D01*
X0118116Y0248640D02*
X0117531Y0248640D01*
X0117531Y0247041D02*
X0118116Y0247041D01*
X0118116Y0243844D02*
X0117531Y0243844D01*
X0117531Y0242246D02*
X0118116Y0242246D01*
X0121763Y0242246D02*
X0124142Y0242246D01*
X0123214Y0243844D02*
X0122637Y0243844D01*
X0106088Y0271019D02*
X0076931Y0271019D01*
X0076931Y0272617D02*
X0104489Y0272617D01*
X0102891Y0274216D02*
X0076931Y0274216D01*
X0076931Y0275814D02*
X0101292Y0275814D01*
X0099694Y0277413D02*
X0076931Y0277413D01*
X0076931Y0279011D02*
X0098095Y0279011D01*
X0096497Y0280610D02*
X0076931Y0280610D01*
X0076931Y0282208D02*
X0094898Y0282208D01*
X0093300Y0283807D02*
X0076931Y0283807D01*
X0076931Y0285405D02*
X0091701Y0285405D01*
X0090103Y0287004D02*
X0076931Y0287004D01*
X0076931Y0288602D02*
X0088504Y0288602D01*
X0087495Y0290201D02*
X0076931Y0290201D01*
X0076931Y0291799D02*
X0087495Y0291799D01*
X0087495Y0293398D02*
X0076931Y0293398D01*
X0076931Y0294996D02*
X0087495Y0294996D01*
X0087495Y0296595D02*
X0076931Y0296595D01*
X0076931Y0298193D02*
X0087495Y0298193D01*
X0087495Y0299792D02*
X0078254Y0299792D01*
X0079852Y0301390D02*
X0087495Y0301390D01*
X0087495Y0302989D02*
X0081451Y0302989D01*
X0083049Y0304588D02*
X0087495Y0304588D01*
X0087495Y0306186D02*
X0084648Y0306186D01*
X0086246Y0307785D02*
X0086277Y0307785D01*
X0083504Y0310982D02*
X0063644Y0310982D01*
X0063644Y0312580D02*
X0085102Y0312580D01*
X0086701Y0314179D02*
X0063644Y0314179D01*
X0063644Y0315777D02*
X0088299Y0315777D01*
X0089898Y0317376D02*
X0063644Y0317376D01*
X0063644Y0318974D02*
X0091496Y0318974D01*
X0093095Y0320573D02*
X0063644Y0320573D01*
X0063644Y0322171D02*
X0094693Y0322171D01*
X0096292Y0323770D02*
X0063644Y0323770D01*
X0063644Y0325368D02*
X0097890Y0325368D01*
X0099489Y0326967D02*
X0063644Y0326967D01*
X0063644Y0328565D02*
X0101087Y0328565D01*
X0102686Y0330164D02*
X0063644Y0330164D01*
X0063644Y0331762D02*
X0104284Y0331762D01*
X0107027Y0328565D02*
X0161730Y0328565D01*
X0160132Y0330164D02*
X0125358Y0330164D01*
X0122615Y0333361D02*
X0122233Y0333361D01*
X0122701Y0334959D02*
X0122946Y0334959D01*
X0122998Y0336558D02*
X0122649Y0336558D01*
X0121987Y0338156D02*
X0123660Y0338156D01*
X0125443Y0339755D02*
X0120204Y0339755D01*
X0115443Y0339755D02*
X0063644Y0339755D01*
X0063644Y0341353D02*
X0150785Y0341353D01*
X0152649Y0336558D02*
X0152998Y0336558D01*
X0152946Y0334959D02*
X0152701Y0334959D01*
X0152233Y0333361D02*
X0153414Y0333361D01*
X0154625Y0331762D02*
X0151022Y0331762D01*
X0144625Y0331762D02*
X0141022Y0331762D01*
X0140587Y0331326D02*
X0141959Y0332698D01*
X0142701Y0334491D01*
X0142701Y0336432D01*
X0141959Y0338224D01*
X0140587Y0339596D01*
X0138794Y0340339D01*
X0136853Y0340339D01*
X0135061Y0339596D01*
X0133689Y0338224D01*
X0132946Y0336432D01*
X0132946Y0334491D01*
X0133689Y0332698D01*
X0135061Y0331326D01*
X0136853Y0330584D01*
X0138794Y0330584D01*
X0140587Y0331326D01*
X0142233Y0333361D02*
X0143414Y0333361D01*
X0142946Y0334959D02*
X0142701Y0334959D01*
X0142649Y0336558D02*
X0142998Y0336558D01*
X0143660Y0338156D02*
X0141987Y0338156D01*
X0140204Y0339755D02*
X0145443Y0339755D01*
X0135443Y0339755D02*
X0130204Y0339755D01*
X0131987Y0338156D02*
X0133660Y0338156D01*
X0132998Y0336558D02*
X0132649Y0336558D01*
X0132701Y0334959D02*
X0132946Y0334959D01*
X0133414Y0333361D02*
X0132233Y0333361D01*
X0131022Y0331762D02*
X0134625Y0331762D01*
X0113660Y0338156D02*
X0063644Y0338156D01*
X0063644Y0336558D02*
X0112998Y0336558D01*
X0112946Y0334959D02*
X0063644Y0334959D01*
X0063644Y0333361D02*
X0113414Y0333361D01*
X0105429Y0326967D02*
X0163329Y0326967D01*
X0164927Y0325368D02*
X0103830Y0325368D01*
X0102232Y0323770D02*
X0166526Y0323770D01*
X0168124Y0322171D02*
X0100633Y0322171D01*
X0099035Y0320573D02*
X0169723Y0320573D01*
X0170665Y0318974D02*
X0165629Y0318974D01*
X0166392Y0317376D02*
X0170665Y0317376D01*
X0166887Y0315777D02*
X0166392Y0315777D01*
X0153916Y0318974D02*
X0097436Y0318974D01*
X0095838Y0317376D02*
X0153153Y0317376D01*
X0153153Y0315777D02*
X0094239Y0315777D01*
X0092641Y0314179D02*
X0153153Y0314179D01*
X0153153Y0312580D02*
X0152314Y0312580D01*
X0149908Y0312580D02*
X0091042Y0312580D01*
X0092746Y0310982D02*
X0147960Y0310982D01*
X0147511Y0309383D02*
X0093195Y0309383D01*
X0092913Y0307785D02*
X0106882Y0307785D01*
X0105283Y0306186D02*
X0091695Y0306186D01*
X0091695Y0304588D02*
X0103685Y0304588D01*
X0102086Y0302989D02*
X0091695Y0302989D01*
X0091695Y0301390D02*
X0100488Y0301390D01*
X0098889Y0299792D02*
X0091695Y0299792D01*
X0091695Y0298193D02*
X0097291Y0298193D01*
X0095692Y0296595D02*
X0091695Y0296595D01*
X0091695Y0294996D02*
X0093941Y0294996D01*
X0092981Y0293398D02*
X0091695Y0293398D01*
X0091695Y0291799D02*
X0092885Y0291799D01*
X0092845Y0290201D02*
X0093643Y0290201D01*
X0094444Y0288602D02*
X0101025Y0288602D01*
X0099327Y0290201D02*
X0104062Y0290201D01*
X0105660Y0291799D02*
X0100085Y0291799D01*
X0099989Y0293398D02*
X0107259Y0293398D01*
X0108857Y0294996D02*
X0100033Y0294996D01*
X0101632Y0296595D02*
X0107680Y0296595D01*
X0107680Y0298193D02*
X0103230Y0298193D01*
X0104829Y0299792D02*
X0107680Y0299792D01*
X0107680Y0301390D02*
X0106427Y0301390D01*
X0081905Y0309383D02*
X0063644Y0309383D01*
X0063644Y0307785D02*
X0080307Y0307785D01*
X0078708Y0306186D02*
X0063644Y0306186D01*
X0063644Y0304588D02*
X0077110Y0304588D01*
X0075511Y0302989D02*
X0063644Y0302989D01*
X0063644Y0301390D02*
X0073913Y0301390D01*
X0072731Y0299792D02*
X0063644Y0299792D01*
X0063644Y0298193D02*
X0072731Y0298193D01*
X0072731Y0296595D02*
X0063644Y0296595D01*
X0063644Y0294996D02*
X0072731Y0294996D01*
X0072731Y0293398D02*
X0063644Y0293398D01*
X0063644Y0291799D02*
X0072731Y0291799D01*
X0072731Y0290201D02*
X0063644Y0290201D01*
X0063644Y0288602D02*
X0072731Y0288602D01*
X0072731Y0287004D02*
X0063644Y0287004D01*
X0063644Y0285405D02*
X0072731Y0285405D01*
X0072731Y0283807D02*
X0063644Y0283807D01*
X0063644Y0282208D02*
X0072731Y0282208D01*
X0072731Y0280610D02*
X0063644Y0280610D01*
X0063644Y0279011D02*
X0072731Y0279011D01*
X0072731Y0277413D02*
X0063644Y0277413D01*
X0063644Y0275814D02*
X0072731Y0275814D01*
X0072731Y0274216D02*
X0063644Y0274216D01*
X0063644Y0272617D02*
X0072731Y0272617D01*
X0072731Y0271019D02*
X0063644Y0271019D01*
X0063644Y0269420D02*
X0072731Y0269420D01*
X0072731Y0267822D02*
X0063644Y0267822D01*
X0063644Y0266223D02*
X0072731Y0266223D01*
X0072731Y0264625D02*
X0063644Y0264625D01*
X0063644Y0263026D02*
X0072731Y0263026D01*
X0072731Y0261428D02*
X0063644Y0261428D01*
X0063644Y0259829D02*
X0072731Y0259829D01*
X0072731Y0258231D02*
X0063644Y0258231D01*
X0063644Y0256632D02*
X0072731Y0256632D01*
X0072731Y0255034D02*
X0063644Y0255034D01*
X0063644Y0253435D02*
X0072731Y0253435D01*
X0072731Y0251837D02*
X0063644Y0251837D01*
X0063644Y0250238D02*
X0072731Y0250238D01*
X0072731Y0248640D02*
X0063644Y0248640D01*
X0102436Y0280610D02*
X0108326Y0280610D01*
X0107680Y0282208D02*
X0104130Y0282208D01*
X0105273Y0283807D02*
X0107680Y0283807D01*
X0107680Y0285405D02*
X0105498Y0285405D01*
X0106804Y0287004D02*
X0107680Y0287004D01*
X0098804Y0287004D02*
X0096042Y0287004D01*
X0097641Y0285405D02*
X0098298Y0285405D01*
X0130707Y0280610D02*
X0130793Y0280610D01*
X0135996Y0280610D02*
X0153153Y0280610D01*
X0153153Y0282208D02*
X0136922Y0282208D01*
X0136994Y0283807D02*
X0157869Y0283807D01*
X0157869Y0285405D02*
X0138178Y0285405D01*
X0139777Y0287004D02*
X0157869Y0287004D01*
X0157869Y0288602D02*
X0140416Y0288602D01*
X0140416Y0290201D02*
X0157869Y0290201D01*
X0157869Y0291799D02*
X0140416Y0291799D01*
X0140416Y0293398D02*
X0157869Y0293398D01*
X0157869Y0294996D02*
X0140416Y0294996D01*
X0140416Y0296595D02*
X0157869Y0296595D01*
X0157869Y0298193D02*
X0140416Y0298193D01*
X0140341Y0299792D02*
X0153153Y0299792D01*
X0153153Y0301390D02*
X0138742Y0301390D01*
X0137144Y0302989D02*
X0153153Y0302989D01*
X0153153Y0304588D02*
X0135545Y0304588D01*
X0133947Y0306186D02*
X0149016Y0306186D01*
X0147793Y0307785D02*
X0132348Y0307785D01*
X0172717Y0333361D02*
X0173195Y0333361D01*
X0172762Y0334959D02*
X0172701Y0334959D01*
X0172649Y0336558D02*
X0172856Y0336558D01*
X0177531Y0334959D02*
X0178116Y0334959D01*
X0178116Y0333361D02*
X0177531Y0333361D01*
X0177531Y0331762D02*
X0178116Y0331762D01*
X0175914Y0330164D02*
X0209344Y0330164D01*
X0207746Y0331762D02*
X0192701Y0331762D01*
X0192701Y0333361D02*
X0206147Y0333361D01*
X0204549Y0334959D02*
X0192701Y0334959D01*
X0192701Y0336558D02*
X0202950Y0336558D01*
X0205693Y0339755D02*
X0325269Y0339755D01*
X0321361Y0341353D02*
X0204095Y0341353D01*
X0210943Y0328565D02*
X0177513Y0328565D01*
X0178309Y0326967D02*
X0212541Y0326967D01*
X0214140Y0325368D02*
X0178309Y0325368D01*
X0178309Y0323770D02*
X0215738Y0323770D01*
X0217337Y0322171D02*
X0178309Y0322171D01*
X0178309Y0320573D02*
X0218935Y0320573D01*
X0182946Y0331762D02*
X0181305Y0331762D01*
X0182452Y0333361D02*
X0182946Y0333361D01*
X0182946Y0334959D02*
X0182885Y0334959D01*
X0182946Y0336558D02*
X0182791Y0336558D01*
X0174342Y0331762D02*
X0174316Y0331762D01*
X0178309Y0318974D02*
X0178633Y0318974D01*
X0077416Y0365331D02*
X0300498Y0365331D01*
X0302905Y0365331D02*
X0307506Y0365331D01*
X0307632Y0366929D02*
X0304853Y0366929D01*
X0305302Y0368528D02*
X0307880Y0368528D01*
X0308228Y0370126D02*
X0306069Y0370126D01*
X0307667Y0371725D02*
X0308681Y0371725D01*
X0304925Y0374922D02*
X0077416Y0374922D01*
X0077416Y0376521D02*
X0306523Y0376521D01*
X0308122Y0378119D02*
X0077416Y0378119D01*
X0077416Y0379718D02*
X0309720Y0379718D01*
X0311319Y0381316D02*
X0077416Y0381316D01*
X0077416Y0382915D02*
X0312917Y0382915D01*
X0314516Y0384513D02*
X0077416Y0384513D01*
X0080241Y0386112D02*
X0316114Y0386112D01*
X0317713Y0387710D02*
X0081966Y0387710D01*
X0082368Y0389309D02*
X0319311Y0389309D01*
X0320910Y0390907D02*
X0082040Y0390907D01*
X0080674Y0392506D02*
X0322508Y0392506D01*
X0324107Y0394104D02*
X0034087Y0394104D01*
X0031645Y0392506D02*
X0046385Y0392506D01*
X0045476Y0390907D02*
X0029739Y0390907D01*
X0027834Y0389309D02*
X0045476Y0389309D01*
X0045476Y0387710D02*
X0026468Y0387710D01*
X0025127Y0386112D02*
X0045476Y0386112D01*
X0045476Y0384513D02*
X0023813Y0384513D01*
X0022890Y0382915D02*
X0045476Y0382915D01*
X0045476Y0381316D02*
X0021968Y0381316D01*
X0021045Y0379718D02*
X0045476Y0379718D01*
X0045476Y0378119D02*
X0020396Y0378119D01*
X0019814Y0376521D02*
X0045476Y0376521D01*
X0045476Y0374922D02*
X0019232Y0374922D01*
X0018728Y0373323D02*
X0045476Y0373323D01*
X0045476Y0371725D02*
X0018446Y0371725D01*
X0018164Y0370126D02*
X0045476Y0370126D01*
X0045476Y0368528D02*
X0017883Y0368528D01*
X0017717Y0366929D02*
X0045476Y0366929D01*
X0045476Y0365331D02*
X0017647Y0365331D01*
X0017624Y0363732D02*
X0045476Y0363732D01*
X0045476Y0362134D02*
X0017624Y0362134D01*
X0063644Y0358937D02*
X0307975Y0358937D01*
X0308358Y0357338D02*
X0063644Y0357338D01*
X0063644Y0355740D02*
X0308857Y0355740D01*
X0309471Y0354141D02*
X0063644Y0354141D01*
X0063644Y0352543D02*
X0310211Y0352543D01*
X0311090Y0350944D02*
X0063644Y0350944D01*
X0063644Y0349346D02*
X0312129Y0349346D01*
X0313355Y0347747D02*
X0063644Y0347747D01*
X0063644Y0346149D02*
X0314806Y0346149D01*
X0316536Y0344550D02*
X0063644Y0344550D01*
X0063644Y0342952D02*
X0318629Y0342952D01*
X0298550Y0366929D02*
X0077416Y0366929D01*
X0077416Y0368528D02*
X0298102Y0368528D01*
X0298384Y0370126D02*
X0077416Y0370126D01*
X0077416Y0371725D02*
X0299606Y0371725D01*
X0303326Y0373323D02*
X0077416Y0373323D01*
X0076863Y0392506D02*
X0076507Y0392506D01*
X0047304Y0398900D02*
X0324629Y0398900D01*
X0324334Y0397301D02*
X0040820Y0397301D01*
X0036855Y0395703D02*
X0324334Y0395703D01*
X0239361Y0253435D02*
X0205059Y0253435D01*
X0200509Y0253435D02*
X0174865Y0253435D01*
X0174865Y0251837D02*
X0199392Y0251837D01*
X0199184Y0250238D02*
X0191865Y0250238D01*
X0192701Y0248640D02*
X0199707Y0248640D01*
X0202015Y0247041D02*
X0192701Y0247041D01*
X0192701Y0245443D02*
X0238976Y0245443D01*
X0239377Y0247041D02*
X0203554Y0247041D01*
X0193950Y0242246D02*
X0238976Y0242246D01*
X0238976Y0241327D02*
X0238976Y0243545D01*
X0242561Y0243545D01*
X0242561Y0239764D01*
X0240539Y0239764D01*
X0240082Y0239886D01*
X0239671Y0240123D01*
X0239336Y0240459D01*
X0239099Y0240869D01*
X0238976Y0241327D01*
X0239227Y0240647D02*
X0195549Y0240647D01*
X0197147Y0239049D02*
X0248543Y0239049D01*
X0248543Y0240647D02*
X0246263Y0240647D01*
X0246154Y0240459D02*
X0246391Y0240869D01*
X0246513Y0241327D01*
X0246513Y0243545D01*
X0242929Y0243545D01*
X0242929Y0239764D01*
X0244950Y0239764D01*
X0245408Y0239886D01*
X0245819Y0240123D01*
X0246154Y0240459D01*
X0246513Y0242246D02*
X0248543Y0242246D01*
X0248543Y0243844D02*
X0242929Y0243844D01*
X0242561Y0243844D02*
X0192701Y0243844D01*
X0191208Y0239049D02*
X0187305Y0239049D01*
X0188903Y0237450D02*
X0192806Y0237450D01*
X0194405Y0235852D02*
X0190502Y0235852D01*
X0192100Y0234253D02*
X0196003Y0234253D01*
X0182946Y0243844D02*
X0182509Y0243844D01*
X0182701Y0245443D02*
X0182946Y0245443D01*
X0182946Y0247041D02*
X0182449Y0247041D01*
X0182946Y0248640D02*
X0181543Y0248640D01*
X0183782Y0250238D02*
X0179037Y0250238D01*
X0176610Y0250238D02*
X0174865Y0250238D01*
X0180616Y0224662D02*
X0181016Y0224662D01*
X0181016Y0223063D02*
X0180616Y0223063D01*
X0180616Y0221465D02*
X0181016Y0221465D01*
X0181016Y0219866D02*
X0180616Y0219866D01*
X0180616Y0218268D02*
X0181016Y0218268D01*
X0181016Y0217742D02*
X0181016Y0212156D01*
X0180616Y0212156D01*
X0180616Y0217742D01*
X0181016Y0217742D01*
X0181016Y0216669D02*
X0180616Y0216669D01*
X0180616Y0215071D02*
X0181016Y0215071D01*
X0181016Y0213472D02*
X0180616Y0213472D01*
X0174447Y0187896D02*
X0111489Y0187896D01*
X0113087Y0186298D02*
X0176045Y0186298D01*
X0177644Y0184699D02*
X0114686Y0184699D01*
X0116284Y0183101D02*
X0179242Y0183101D01*
X0180841Y0181502D02*
X0117883Y0181502D01*
X0119481Y0179904D02*
X0182439Y0179904D01*
X0184038Y0178305D02*
X0121080Y0178305D01*
X0122678Y0176707D02*
X0185636Y0176707D01*
X0187235Y0175108D02*
X0124277Y0175108D01*
X0125875Y0173510D02*
X0188833Y0173510D01*
X0190432Y0171911D02*
X0127474Y0171911D01*
X0129072Y0170313D02*
X0192030Y0170313D01*
X0193629Y0168714D02*
X0130671Y0168714D01*
X0132269Y0167116D02*
X0204100Y0167116D01*
X0203617Y0165517D02*
X0133868Y0165517D01*
X0135466Y0163919D02*
X0203617Y0163919D01*
X0203617Y0162320D02*
X0137065Y0162320D01*
X0138663Y0160721D02*
X0203617Y0160721D01*
X0203617Y0159123D02*
X0140262Y0159123D01*
X0141860Y0157524D02*
X0203865Y0157524D01*
X0204822Y0155926D02*
X0143459Y0155926D01*
X0145057Y0154327D02*
X0206856Y0154327D01*
X0204759Y0152729D02*
X0146656Y0152729D01*
X0148254Y0151130D02*
X0204069Y0151130D01*
X0204011Y0146335D02*
X0154123Y0146335D01*
X0154420Y0144736D02*
X0204011Y0144736D01*
X0204020Y0143138D02*
X0154420Y0143138D01*
X0154420Y0143926D02*
X0149320Y0143926D01*
X0154420Y0143926D01*
X0154146Y0141539D02*
X0204683Y0141539D01*
X0206573Y0139941D02*
X0152547Y0139941D01*
X0149320Y0139941D02*
X0149320Y0139941D01*
X0149320Y0138826D02*
X0149320Y0143926D01*
X0149320Y0143926D01*
X0149320Y0143926D01*
X0149320Y0138826D01*
X0149320Y0141539D02*
X0149320Y0141539D01*
X0149320Y0143138D02*
X0149320Y0143138D01*
X0149320Y0143926D02*
X0144220Y0143926D01*
X0149320Y0143926D01*
X0149320Y0143926D01*
X0146092Y0139941D02*
X0142264Y0139941D01*
X0141349Y0139026D02*
X0144220Y0141896D01*
X0144220Y0145956D01*
X0141349Y0148826D01*
X0137290Y0148826D01*
X0134420Y0145956D01*
X0134420Y0141896D01*
X0137290Y0139026D01*
X0141349Y0139026D01*
X0143863Y0141539D02*
X0144494Y0141539D01*
X0144220Y0143138D02*
X0144220Y0143138D01*
X0144220Y0144736D02*
X0144220Y0144736D01*
X0144516Y0146335D02*
X0143840Y0146335D01*
X0142242Y0147933D02*
X0145512Y0147933D01*
X0143913Y0149532D02*
X0120325Y0149532D01*
X0118727Y0151130D02*
X0142315Y0151130D01*
X0140716Y0152729D02*
X0117128Y0152729D01*
X0115530Y0154327D02*
X0139118Y0154327D01*
X0136397Y0147933D02*
X0121924Y0147933D01*
X0123522Y0146335D02*
X0134799Y0146335D01*
X0134420Y0144736D02*
X0125121Y0144736D01*
X0126719Y0143138D02*
X0134420Y0143138D01*
X0134777Y0141539D02*
X0128318Y0141539D01*
X0129916Y0139941D02*
X0136375Y0139941D01*
X0133113Y0136744D02*
X0215756Y0136744D01*
X0214158Y0138342D02*
X0131515Y0138342D01*
X0134712Y0135145D02*
X0217355Y0135145D01*
X0218953Y0133547D02*
X0136310Y0133547D01*
X0137909Y0131948D02*
X0220552Y0131948D01*
X0222150Y0130350D02*
X0139507Y0130350D01*
X0141106Y0128751D02*
X0223749Y0128751D01*
X0225347Y0127153D02*
X0142704Y0127153D01*
X0144303Y0125554D02*
X0226946Y0125554D01*
X0212559Y0139941D02*
X0210649Y0139941D01*
X0192088Y0088788D02*
X0188395Y0088788D01*
X0189993Y0087190D02*
X0190489Y0087190D01*
X0190283Y0085591D02*
X0190283Y0085591D01*
X0190283Y0083993D02*
X0190283Y0083993D01*
X0190647Y0082394D02*
X0189836Y0082394D01*
X0188237Y0080796D02*
X0192245Y0080796D01*
X0254375Y0053621D02*
X0261970Y0053621D01*
X0263568Y0052023D02*
X0255973Y0052023D01*
X0257572Y0050424D02*
X0265167Y0050424D01*
X0266765Y0048826D02*
X0258510Y0048826D01*
X0258510Y0047227D02*
X0268364Y0047227D01*
X0269962Y0045629D02*
X0258510Y0045629D01*
X0258510Y0044030D02*
X0271561Y0044030D01*
X0273159Y0042432D02*
X0258510Y0042432D01*
X0258221Y0040833D02*
X0274758Y0040833D01*
X0276356Y0039235D02*
X0256623Y0039235D01*
X0255024Y0037636D02*
X0277955Y0037636D01*
X0279553Y0036038D02*
X0253426Y0036038D01*
X0340949Y0040833D02*
X0346820Y0040833D01*
X0364030Y0037636D02*
X0387710Y0037636D01*
X0389308Y0036038D02*
X0364030Y0036038D01*
X0357315Y0123956D02*
X0356915Y0123956D01*
X0356915Y0125554D02*
X0357315Y0125554D01*
X0357315Y0127153D02*
X0356915Y0127153D01*
X0356915Y0128751D02*
X0357315Y0128751D01*
X0357315Y0130350D02*
X0356915Y0130350D01*
X0342515Y0130350D02*
X0341715Y0130350D01*
X0341715Y0131948D02*
X0342515Y0131948D01*
X0342515Y0133547D02*
X0341715Y0133547D01*
X0341592Y0135145D02*
X0342638Y0135145D01*
X0343420Y0136744D02*
X0340810Y0136744D01*
X0333420Y0136744D02*
X0330810Y0136744D01*
X0331592Y0135145D02*
X0332638Y0135145D01*
X0332515Y0133547D02*
X0331715Y0133547D01*
X0331715Y0131948D02*
X0332515Y0131948D01*
X0332515Y0130350D02*
X0331715Y0130350D01*
X0331715Y0128751D02*
X0332515Y0128751D01*
X0332515Y0127153D02*
X0331715Y0127153D01*
X0331108Y0125554D02*
X0333122Y0125554D01*
X0323122Y0125554D02*
X0321108Y0125554D01*
X0321715Y0127153D02*
X0322515Y0127153D01*
X0322515Y0128751D02*
X0321715Y0128751D01*
X0321715Y0130350D02*
X0322515Y0130350D01*
X0322515Y0131948D02*
X0321715Y0131948D01*
X0321715Y0133547D02*
X0322515Y0133547D01*
X0322638Y0135145D02*
X0321592Y0135145D01*
X0320810Y0136744D02*
X0323420Y0136744D01*
X0313420Y0136744D02*
X0310810Y0136744D01*
X0311592Y0135145D02*
X0312638Y0135145D01*
X0312515Y0133547D02*
X0311715Y0133547D01*
X0311715Y0131948D02*
X0312515Y0131948D01*
X0312515Y0130350D02*
X0311715Y0130350D01*
X0311715Y0128751D02*
X0312515Y0128751D01*
X0312515Y0127153D02*
X0311715Y0127153D01*
X0311108Y0125554D02*
X0313122Y0125554D01*
X0303122Y0125554D02*
X0301108Y0125554D01*
X0301715Y0127153D02*
X0302515Y0127153D01*
X0302515Y0128751D02*
X0301715Y0128751D01*
X0301715Y0130350D02*
X0302515Y0130350D01*
X0302515Y0131948D02*
X0301715Y0131948D01*
X0301715Y0133547D02*
X0302515Y0133547D01*
X0302638Y0135145D02*
X0301592Y0135145D01*
X0300810Y0136744D02*
X0303420Y0136744D01*
X0242929Y0240647D02*
X0242561Y0240647D01*
X0242561Y0242246D02*
X0242929Y0242246D01*
X0246513Y0245443D02*
X0247314Y0245443D01*
X0103070Y0155926D02*
X0076038Y0155926D01*
X0075479Y0157524D02*
X0101472Y0157524D01*
X0099873Y0159123D02*
X0074944Y0159123D01*
X0077636Y0154327D02*
X0103712Y0154327D01*
X0104213Y0152729D02*
X0079235Y0152729D01*
X0076492Y0149532D02*
X0017624Y0149532D01*
X0017624Y0151130D02*
X0074893Y0151130D01*
X0073295Y0152729D02*
X0017624Y0152729D01*
X0017624Y0154327D02*
X0069575Y0154327D01*
X0068475Y0155926D02*
X0017624Y0155926D01*
X0017624Y0157524D02*
X0068279Y0157524D01*
X0068814Y0159123D02*
X0017624Y0159123D01*
X0017624Y0160721D02*
X0098275Y0160721D01*
X0096676Y0162320D02*
X0017624Y0162320D01*
X0017624Y0163919D02*
X0095078Y0163919D01*
X0093479Y0165517D02*
X0017624Y0165517D01*
X0017624Y0167116D02*
X0091881Y0167116D01*
X0090282Y0168714D02*
X0017624Y0168714D01*
X0017624Y0170313D02*
X0088684Y0170313D01*
X0087085Y0171911D02*
X0017624Y0171911D01*
X0017624Y0173510D02*
X0085487Y0173510D01*
X0083888Y0175108D02*
X0017624Y0175108D01*
X0017624Y0176707D02*
X0082290Y0176707D01*
X0080691Y0178305D02*
X0017624Y0178305D01*
X0017624Y0179904D02*
X0079093Y0179904D01*
X0077494Y0181502D02*
X0017624Y0181502D01*
X0017624Y0183101D02*
X0075896Y0183101D01*
X0074297Y0184699D02*
X0017624Y0184699D01*
X0017624Y0186298D02*
X0072699Y0186298D01*
X0071100Y0187896D02*
X0017624Y0187896D01*
X0079120Y0197487D02*
X0079520Y0197487D01*
X0079520Y0199086D02*
X0079120Y0199086D01*
X0079120Y0200684D02*
X0079520Y0200684D01*
X0079520Y0202283D02*
X0079120Y0202283D01*
X0079120Y0203881D02*
X0079520Y0203881D01*
X0078090Y0147933D02*
X0017624Y0147933D01*
X0017624Y0146335D02*
X0079598Y0146335D01*
X0079740Y0144736D02*
X0017624Y0144736D01*
X0017624Y0143138D02*
X0080765Y0143138D01*
X0104204Y0122357D02*
X0036817Y0122357D01*
X0036185Y0120759D02*
X0103911Y0120759D01*
X0102312Y0119160D02*
X0035086Y0119160D01*
X0032749Y0117562D02*
X0100714Y0117562D01*
X0099115Y0115963D02*
X0017624Y0115963D01*
X0017624Y0114365D02*
X0027318Y0114365D01*
X0026677Y0114099D02*
X0029056Y0115084D01*
X0031631Y0115084D01*
X0034010Y0114099D01*
X0035831Y0112278D01*
X0036817Y0109899D01*
X0036817Y0107323D01*
X0035831Y0104944D01*
X0034010Y0103123D01*
X0031631Y0102138D01*
X0029056Y0102138D01*
X0026677Y0103123D01*
X0024856Y0104944D01*
X0023870Y0107323D01*
X0023870Y0109899D01*
X0024856Y0112278D01*
X0026677Y0114099D01*
X0025344Y0112766D02*
X0017624Y0112766D01*
X0017624Y0111168D02*
X0024396Y0111168D01*
X0023870Y0109569D02*
X0017624Y0109569D01*
X0017624Y0107971D02*
X0023870Y0107971D01*
X0024264Y0106372D02*
X0017624Y0106372D01*
X0017624Y0104774D02*
X0025026Y0104774D01*
X0026625Y0103175D02*
X0017624Y0103175D01*
X0017624Y0101577D02*
X0083265Y0101577D01*
X0081080Y0099978D02*
X0017624Y0099978D01*
X0017624Y0098380D02*
X0080582Y0098380D01*
X0080815Y0096781D02*
X0017624Y0096781D01*
X0017624Y0095183D02*
X0081968Y0095183D01*
X0086327Y0103175D02*
X0034062Y0103175D01*
X0035660Y0104774D02*
X0087926Y0104774D01*
X0089524Y0106372D02*
X0036422Y0106372D01*
X0036817Y0107971D02*
X0091123Y0107971D01*
X0092721Y0109569D02*
X0036817Y0109569D01*
X0036291Y0111168D02*
X0094320Y0111168D01*
X0095918Y0112766D02*
X0035343Y0112766D01*
X0033368Y0114365D02*
X0097517Y0114365D01*
X0121448Y0082394D02*
X0063600Y0082394D01*
X0064557Y0080796D02*
X0122706Y0080796D01*
X0124296Y0079197D02*
X0064652Y0079197D01*
X0063891Y0077599D02*
X0122225Y0077599D01*
X0121249Y0076000D02*
X0063152Y0076000D01*
X0063152Y0074402D02*
X0120715Y0074402D01*
X0120715Y0072803D02*
X0063152Y0072803D01*
X0063152Y0071205D02*
X0121113Y0071205D01*
X0121895Y0069606D02*
X0063152Y0069606D01*
X0063152Y0068008D02*
X0123500Y0068008D01*
X0027937Y0117562D02*
X0017624Y0117562D01*
X0017624Y0119160D02*
X0025600Y0119160D01*
X0024502Y0120759D02*
X0017624Y0120759D01*
X0017624Y0122357D02*
X0023870Y0122357D01*
X0023870Y0123956D02*
X0017624Y0123956D01*
X0017624Y0125554D02*
X0024158Y0125554D01*
X0024820Y0127153D02*
X0017624Y0127153D01*
X0017624Y0128751D02*
X0026368Y0128751D01*
D30*
X0071879Y0157115D03*
X0083198Y0145796D03*
X0107312Y0154654D03*
X0107804Y0121682D03*
X0084182Y0098060D03*
X0061052Y0079851D03*
X0186544Y0111839D03*
X0220993Y0120206D03*
X0238709Y0102489D03*
X0239202Y0143335D03*
X0331229Y0057213D03*
X0331721Y0051308D03*
X0436544Y0028670D03*
X0131918Y0239792D03*
X0160954Y0258493D03*
X0176209Y0272272D03*
X0196879Y0267843D03*
X0202784Y0250619D03*
X0134871Y0294418D03*
X0133394Y0283099D03*
X0118139Y0274733D03*
X0101898Y0285068D03*
X0096485Y0292450D03*
X0089595Y0309182D03*
X0151111Y0309182D03*
X0169320Y0313119D03*
X0282017Y0307213D03*
X0345009Y0316564D03*
X0364202Y0266859D03*
X0299241Y0264891D03*
X0285954Y0256524D03*
X0450816Y0270304D03*
X0541367Y0259969D03*
X0356328Y0378080D03*
X0301702Y0368729D03*
X0078769Y0389398D03*
D31*
X0248414Y0045304D03*
X0394477Y0045146D03*
M02*
